<svg xmlns="http://www.w3.org/2000/svg">
<symbol id="vk" viewBox="0 0 100 100">
<g>
<path d="M85,4H15C8.9,4,4,8.9,4,15v70c0,6.1,4.9,11,11,11h70c6.1,0,11-4.9,11-11V15C96,8.9,91.1,4,85,4z M79.2,69  c-0.8,1.6-3.1,1.8-3.4,1.8L68,70.9c-0.1,0-0.3,0-0.5,0c-0.8,0-2.3-0.2-4-1.4c-1.3-0.9-2.4-2.2-3.6-3.5c-1.1-1.3-2.7-3.2-3.5-3  c-1,0.3-1.5,2.9-1.4,4.5c0,0.2,0,1.5-0.8,2.2c-0.8,0.8-2,1-2.2,1c0,0-0.1,0-0.1,0h-3.5c-0.7,0-8.5,0.2-15.4-7  c-7.5-7.8-14-22.9-14.3-23.6c-0.1-0.3-0.6-1.7,0.2-2.5c0.7-0.8,2.1-0.9,2.5-0.9l8.5-0.1c0.1,0,0.1,0,0.2,0c0.1,0,1.1,0.2,1.8,0.7  c0.7,0.5,1,1.3,1.1,1.4c0,0,1.4,3.4,3.1,6.5c3.8,6.6,4.9,6.5,5,6.4c0.6-0.5,0.9-4.1,0.7-7.7c0-1-0.2-2.8-0.7-3.5  c-0.5-0.7-1.6-0.9-1.9-0.9c-0.5-0.1-0.9-0.4-1-1c-0.2-1,1.1-2.2,2-2.6c1.7-0.8,4.6-0.9,7.8-0.9c2.5,0,3.3,0.2,4.4,0.4  c3,0.7,2.9,3.2,2.8,7c0,1.1-0.1,2.4-0.1,3.9c0,0.3,0,0.7,0,1.1c0,1.4-0.1,3.4,0.6,4c0.3-0.1,1.7-0.8,4.9-6.3  c1.8-3.1,3.2-6.7,3.2-6.8c0.1-0.2,0.5-1,1.2-1.5c0.7-0.4,1.4-0.4,1.7-0.3l8.8-0.1c0.7-0.1,3.5-0.3,4.1,1.5c0.4,1.1,0.2,3.3-4.8,10  c-0.8,1-1.4,1.9-2,2.7c-1.7,2.2-2.8,3.6-2.8,4.4c0,0.7,1.1,1.7,2.8,3.3l0.1,0.1c2.1,1.9,4.8,4.7,6,7C79.6,67,79.7,68.1,79.2,69z"/>
</g>
</symbol>
<symbol id="youtube" viewBox="0 0 512 512">
<g>
<path d="M501.303,132.765c-5.887,-22.03 -23.235,-39.377 -45.265,-45.265c-39.932,-10.7 -200.038,-10.7 -200.038,-10.7c0,0 -160.107,0 -200.039,10.7c-22.026,5.888 -39.377,23.235 -45.264,45.265c-10.697,39.928 -10.697,123.238 -10.697,123.238c0,0 0,83.308 10.697,123.232c5.887,22.03 23.238,39.382 45.264,45.269c39.932,10.696 200.039,10.696 200.039,10.696c0,0 160.106,0 200.038,-10.696c22.03,-5.887 39.378,-23.239 45.265,-45.269c10.696,-39.924 10.696,-123.232 10.696,-123.232c0,0 0,-83.31 -10.696,-123.238Zm-296.506,200.039l0,-153.603l133.019,76.802l-133.019,76.801Z" style="fill-rule:nonzero;"/>
</g>
</symbol>
<symbol id="telegram" viewBox="0 0 100 100">
<g>
<path d="M95,9.9c-1.3-1.1-3.4-1.2-7-0.1c0,0,0,0,0,0c-2.5,0.8-24.7,9.2-44.3,17.3c-17.6,7.3-31.9,13.7-33.6,14.5  c-1.9,0.6-6,2.4-6.2,5.2c-0.1,1.8,1.4,3.4,4.3,4.7c3.1,1.6,16.8,6.2,19.7,7.1c1,3.4,6.9,23.3,7.2,24.5c0.4,1.8,1.6,2.8,2.2,3.2  c0.1,0.1,0.3,0.3,0.5,0.4c0.3,0.2,0.7,0.3,1.2,0.3c0.7,0,1.5-0.3,2.2-0.8c3.7-3,10.1-9.7,11.9-11.6c7.9,6.2,16.5,13.1,17.3,13.9  c0,0,0.1,0.1,0.1,0.1c1.9,1.6,3.9,2.5,5.7,2.5c0.6,0,1.2-0.1,1.8-0.3c2.1-0.7,3.6-2.7,4.1-5.4c0-0.1,0.1-0.5,0.3-1.2  c3.4-14.8,6.1-27.8,8.3-38.7c2.1-10.7,3.8-21.2,4.8-26.8c0.2-1.4,0.4-2.5,0.5-3.2C96.3,13.5,96.5,11.2,95,9.9z M30,58.3l47.7-31.6  c0.1-0.1,0.3-0.2,0.4-0.3c0,0,0,0,0,0c0.1,0,0.1-0.1,0.2-0.1c0.1,0,0.1,0,0.2-0.1c-0.1,0.1-0.2,0.4-0.4,0.6L66,38.1  c-8.4,7.7-19.4,17.8-26.7,24.4c0,0,0,0,0,0.1c0,0-0.1,0.1-0.1,0.1c0,0,0,0.1-0.1,0.1c0,0.1,0,0.1-0.1,0.2c0,0,0,0.1,0,0.1  c0,0,0,0,0,0.1c-0.5,5.6-1.4,15.2-1.8,19.5c0,0,0,0,0-0.1C36.8,81.4,31.2,62.3,30,58.3z"/>
</g>
</symbol>
<symbol id="like" viewBox="0 0 512 512">
<g>
<path d="M340.8,83C307,83,276,98.8,256,124.8c-20-26-51-41.8-84.8-41.8C112.1,83,64,131.3,64,190.7c0,27.9,10.6,54.4,29.9,74.6  L245.1,418l10.9,11l10.9-11l148.3-149.8c21-20.3,32.8-47.9,32.8-77.5C448,131.3,399.9,83,340.8,83L340.8,83z"/>
</g>
</symbol>
<symbol id="cart" viewBox="0 0 24 24" fill="none" stroke="currentColor" stroke-linecap="round" stroke-linejoin="round" stroke-width="2">
<g>
<circle cx="9" cy="21" r="1"/><circle cx="20" cy="21" r="1"/>
<path d="M1 1h4l2.68 13.39a2 2 0 0 0 2 1.61h9.72a2 2 0 0 0 2-1.61L23 6H6"/>
</g>
</symbol>
<symbol id="person" viewBox="0 0 16 16">
<g>
<path d="M11 6a3 3 0 1 1-6 0 3 3 0 0 1 6 0z"/><path d="M0 8a8 8 0 1 1 16 0A8 8 0 0 1 0 8zm8-7a7 7 0 0 0-5.468 11.37C3.242 11.226 4.805 10 8 10s4.757 1.225 5.468 2.37A7 7 0 0 0 8 1z" fill-rule="evenodd"/>
</g>
</symbol>

<symbol id="gift" viewBox="0 0 24 24">
<path d="M14.5 2C16.2949 2 17.75 3.45507 17.75 5.25C17.75 5.89455 17.5624 6.49528 17.2387 7.00054L19.75 7C20.4404 7 21 7.55964 21 8.25V11.75C21 12.3544 20.571 12.8586 20.0009 12.9748L20 18.75C20 20.483 18.6435 21.8992 16.9344 21.9949L16.75 22H7.25C5.51697 22 4.10075 20.6435 4.00514 18.9344L4 18.75L4.00005 12.975C3.42947 12.8592 3 12.3548 3 11.75V8.25C3 7.55964 3.55964 7 4.25 7L6.76126 7.00054C6.43763 6.49528 6.25 5.89455 6.25 5.25C6.25 3.45507 7.70507 2 9.5 2C10.5055 2 11.4044 2.45666 12.0006 3.17391C12.5956 2.45666 13.4945 2 14.5 2ZM11.25 12.999H5.5V18.75C5.5 19.6682 6.20711 20.4212 7.10647 20.4942L7.25 20.5H11.25V12.999ZM18.5 12.999H12.75V20.5H16.75C17.6682 20.5 18.4212 19.7929 18.4942 18.8935L18.5 18.75V12.999ZM11.25 8.5H4.5V11.5L11.25 11.499V8.5ZM19.5 11.5V8.5H12.75V11.499L19.5 11.5ZM14.5 3.5C13.5335 3.5 12.75 4.2835 12.75 5.25V6.999H14.524L14.6435 6.9942C15.5429 6.92119 16.25 6.16817 16.25 5.25C16.25 4.2835 15.4665 3.5 14.5 3.5ZM9.5 3.5C8.5335 3.5 7.75 4.2835 7.75 5.25C7.75 6.16817 8.45711 6.92119 9.35647 6.9942L9.476 6.999H11.25V5.25L11.2442 5.10647C11.1712 4.20711 10.4182 3.5 9.5 3.5Z" fill="#BCFFBB"/>
</symbol>
</svg>