<svg id="Слой_4" data-name="Слой 4" xmlns="http://www.w3.org/2000/svg" viewBox="0 0 841.97 1121.01">
  <defs>
    <style>
      .cls-1 {
        fill: #10c65a;
      }
    </style>
  </defs>
  <path class="cls-1" d="M206,37.78a41.59,41.59,0,0,1,40.15,52.33l-2.28,8.51,8.75-1a43,43,0,0,1,4.78-.27,41.56,41.56,0,1,1-8.82,82.17L241.35,178v63H92.43V178.14l-7.21,1.47a41.56,41.56,0,1,1-8.4-82.26,42,42,0,0,1,4.34.22l8.66.9-2.24-8.41A41.56,41.56,0,0,1,162,55.75l4.94,7.14,4.94-7.14a41.59,41.59,0,0,1,34.21-18m0-6a47.49,47.49,0,0,0-39.15,20.56A47.57,47.57,0,0,0,81.78,91.6c-1.63-.16-3.29-.25-5-.25a47.56,47.56,0,1,0,9.61,94.14V247H247.35v-61.6a47.56,47.56,0,1,0,10.09-94,49.26,49.26,0,0,0-5.46.31A47.57,47.57,0,0,0,206,31.78Z" transform="translate(-29.26 107.02)"/>
  <path class="cls-1" d="M167.13,124.25a40.6,40.6,0,1,1-40.6,40.6,40.64,40.64,0,0,1,40.6-40.6m0-6a46.6,46.6,0,1,0,46.6,46.6,46.6,46.6,0,0,0-46.6-46.6Z" transform="translate(-29.26 107.02)"/>
  <path class="cls-1" d="M76.82,113.68a24.75,24.75,0,1,1-24.75,24.75,24.77,24.77,0,0,1,24.75-24.75m0-6a30.75,30.75,0,1,0,30.74,30.75,30.75,30.75,0,0,0-30.74-30.75Z" transform="translate(-29.26 107.02)"/>
  <path class="cls-1" d="M127.74,54.59A24.75,24.75,0,1,1,103,79.34a24.77,24.77,0,0,1,24.75-24.75m0-6a30.75,30.75,0,1,0,30.74,30.75,30.75,30.75,0,0,0-30.74-30.75Z" transform="translate(-29.26 107.02)"/>
  <path class="cls-1" d="M206,54.59A24.75,24.75,0,1,1,181.3,79.34,24.77,24.77,0,0,1,206,54.59m0-6a30.75,30.75,0,1,0,30.75,30.75A30.74,30.74,0,0,0,206,48.59Z" transform="translate(-29.26 107.02)"/>
  <path class="cls-1" d="M257,114.16a24.75,24.75,0,1,1-24.74,24.75A24.77,24.77,0,0,1,257,114.16m0-6a30.75,30.75,0,1,0,30.75,30.75A30.74,30.74,0,0,0,257,108.16Z" transform="translate(-29.26 107.02)"/>
  <path class="cls-1" d="M175,136.26c2.37,0,4.3,1.59,4.3,3.55a3.31,3.31,0,0,1-1.24,2.49l-.26.22-.24.25L166.91,154l-10.55-11-.31-.32-.35-.28a3.32,3.32,0,0,1-1.39-2.6c0-2,1.93-3.55,4.31-3.55a4.62,4.62,0,0,1,3.55,1.57l4.63,5.61,4.63-5.61a4.63,4.63,0,0,1,3.56-1.57m0-6A10.6,10.6,0,0,0,166.8,134a10.58,10.58,0,0,0-8.18-3.75c-5.69,0-10.31,4.28-10.31,9.55a9.28,9.28,0,0,0,3.72,7.35l14.91,15.56,15-15.83a9.23,9.23,0,0,0,3.38-7.08c0-5.27-4.61-9.55-10.3-9.55Z" transform="translate(-29.26 107.02)"/>
  <path class="cls-1" d="M190.93,152.52c1.72,0,3.18,2,3.18,4.31a4.8,4.8,0,0,1-1.52,3.63l-5.3,4.55,5.3,4.55a4.82,4.82,0,0,1,1.52,3.64c0,2.33-1.46,4.3-3.18,4.3a2.86,2.86,0,0,1-2.14-1.15l-.21-.27-.24-.23-10.9-10.73,10.66-10.63.32-.32.27-.36a2.89,2.89,0,0,1,2.24-1.29m0-6a8.81,8.81,0,0,0-7.06,3.72l-15,14.91,15.21,15a8.73,8.73,0,0,0,6.8,3.38c5.07,0,9.18-4.61,9.18-10.3A10.79,10.79,0,0,0,196.5,165a10.77,10.77,0,0,0,3.61-8.18c0-5.69-4.11-10.31-9.18-10.31Z" transform="translate(-29.26 107.02)"/>
  <path class="cls-1" d="M167,176.29,177.6,187l.32.32.36.26a2.93,2.93,0,0,1,1.29,2.24c0,1.73-2,3.18-4.3,3.18a4.81,4.81,0,0,1-3.64-1.51l-4.55-5.3-4.55,5.3a4.81,4.81,0,0,1-3.64,1.51c-2.33,0-4.3-1.45-4.3-3.18a2.86,2.86,0,0,1,1.15-2.13l.27-.21.24-.25L167,176.29m0-8.52L152,183a8.71,8.71,0,0,0-3.38,6.79c0,5.07,4.61,9.18,10.3,9.18a10.76,10.76,0,0,0,8.19-3.6,10.76,10.76,0,0,0,8.19,3.6c5.69,0,10.3-4.11,10.3-9.18a8.82,8.82,0,0,0-3.72-7.06l-14.91-14.94Z" transform="translate(-29.26 107.02)"/>
  <path class="cls-1" d="M142.32,152.81a2.86,2.86,0,0,1,2.13,1.15l.22.26.24.24,10.89,10.72-10.66,10.64-.32.31-.26.36a2.93,2.93,0,0,1-2.24,1.29c-1.73,0-3.18-2-3.18-4.3a4.81,4.81,0,0,1,1.51-3.63l5.31-4.56-5.31-4.55a4.81,4.81,0,0,1-1.51-3.63c0-2.33,1.45-4.3,3.18-4.3m0-6c-5.07,0-9.18,4.61-9.18,10.3a10.72,10.72,0,0,0,3.61,8.18,10.75,10.75,0,0,0-3.61,8.19c0,5.69,4.11,10.3,9.18,10.3a8.79,8.79,0,0,0,7.06-3.72l14.94-14.91-15.2-15a8.75,8.75,0,0,0-6.8-3.38Z" transform="translate(-29.26 107.02)"/>
  <path class="cls-1" d="M206.17,293.77a41.59,41.59,0,0,1,40.15,52.33L244,354.62l8.75-1a40.7,40.7,0,0,1,4.78-.28,41.56,41.56,0,1,1,0,83.12,42.15,42.15,0,0,1-8.82-.94L241.48,434v63H92.56V434.13l-7.21,1.48a42.14,42.14,0,0,1-8.4.85,41.56,41.56,0,0,1,0-83.12,42.06,42.06,0,0,1,4.34.23l8.66.89-2.24-8.4a41.56,41.56,0,0,1,74.37-34.32l4.94,7.15,4.94-7.15a41.59,41.59,0,0,1,34.21-18m0-6A47.49,47.49,0,0,0,167,308.33,47.57,47.57,0,0,0,81.91,347.6a47.56,47.56,0,1,0,4.65,93.89V503H247.48V441.38a47.56,47.56,0,1,0,10.09-94,47,47,0,0,0-5.46.32,47.58,47.58,0,0,0-45.94-59.89Z" transform="translate(-29.26 107.02)"/>
  <path class="cls-1" d="M167.26,380.24a40.6,40.6,0,1,1-40.6,40.6,40.64,40.64,0,0,1,40.6-40.6m0-6a46.6,46.6,0,1,0,46.6,46.6,46.61,46.61,0,0,0-46.6-46.6Z" transform="translate(-29.26 107.02)"/>
  <path class="cls-1" d="M77,369.67A24.75,24.75,0,1,1,52.2,394.42,24.78,24.78,0,0,1,77,369.67m0-6a30.75,30.75,0,1,0,30.74,30.75A30.75,30.75,0,0,0,77,363.67Z" transform="translate(-29.26 107.02)"/>
  <path class="cls-1" d="M127.87,310.59a24.75,24.75,0,1,1-24.75,24.74,24.77,24.77,0,0,1,24.75-24.74m0-6a30.75,30.75,0,1,0,30.74,30.74,30.74,30.74,0,0,0-30.74-30.74Z" transform="translate(-29.26 107.02)"/>
  <path class="cls-1" d="M206.17,310.59a24.75,24.75,0,1,1-24.74,24.74,24.77,24.77,0,0,1,24.74-24.74m0-6a30.75,30.75,0,1,0,30.75,30.74,30.74,30.74,0,0,0-30.75-30.74Z" transform="translate(-29.26 107.02)"/>
  <path class="cls-1" d="M257.09,370.16a24.74,24.74,0,1,1-24.74,24.74,24.77,24.77,0,0,1,24.74-24.74m0-6a30.74,30.74,0,1,0,30.75,30.74,30.74,30.74,0,0,0-30.75-30.74Z" transform="translate(-29.26 107.02)"/>
  <path class="cls-1" d="M175.12,392.25c2.37,0,4.3,1.6,4.3,3.56a3.3,3.3,0,0,1-1.24,2.48l-.26.22-.24.25L167,410l-10.55-11-.31-.33-.35-.27a3.34,3.34,0,0,1-1.39-2.6c0-2,1.93-3.56,4.31-3.56a4.59,4.59,0,0,1,3.55,1.58l4.63,5.61,4.63-5.61a4.6,4.6,0,0,1,3.56-1.58m0-6a10.61,10.61,0,0,0-8.19,3.76,10.58,10.58,0,0,0-8.18-3.76c-5.69,0-10.31,4.28-10.31,9.56a9.31,9.31,0,0,0,3.72,7.35l14.91,15.55,15-15.83a9.21,9.21,0,0,0,3.38-7.07c0-5.28-4.61-9.56-10.3-9.56Z" transform="translate(-29.26 107.02)"/>
  <path class="cls-1" d="M191.06,408.52c1.72,0,3.18,2,3.18,4.3a4.78,4.78,0,0,1-1.52,3.63l-5.3,4.56,5.3,4.55a4.78,4.78,0,0,1,1.52,3.63c0,2.34-1.46,4.31-3.18,4.31a2.87,2.87,0,0,1-2.14-1.16l-.21-.26-.24-.24-10.9-10.72,10.66-10.64.32-.31.27-.36a2.89,2.89,0,0,1,2.24-1.29m0-6a8.78,8.78,0,0,0-7.06,3.72l-14.95,14.91,15.21,15a8.76,8.76,0,0,0,6.8,3.38c5.07,0,9.18-4.62,9.18-10.31a10.75,10.75,0,0,0-3.61-8.18,10.79,10.79,0,0,0,3.61-8.19c0-5.69-4.11-10.3-9.18-10.3Z" transform="translate(-29.26 107.02)"/>
  <path class="cls-1" d="M167.1,432.29,177.73,443l.32.31.36.27a2.91,2.91,0,0,1,1.29,2.24c0,1.72-2,3.18-4.3,3.18a4.82,4.82,0,0,1-3.64-1.52l-4.55-5.3-4.55,5.3A4.82,4.82,0,0,1,159,449a5,5,0,0,1-3.29-1.17,2.74,2.74,0,0,1-1-2,2.86,2.86,0,0,1,1.15-2.14l.27-.21.24-.24,10.72-10.89m0-8.53L152.1,439a8.73,8.73,0,0,0-3.38,6.8c0,5.07,4.61,9.18,10.3,9.18a10.77,10.77,0,0,0,8.19-3.61A10.77,10.77,0,0,0,175.4,455c5.69,0,10.3-4.11,10.3-9.18a8.81,8.81,0,0,0-3.72-7.06l-14.91-14.95Z" transform="translate(-29.26 107.02)"/>
  <path class="cls-1" d="M142.45,408.8a2.86,2.86,0,0,1,2.13,1.15l.22.27.24.24,10.89,10.72-10.66,10.63-.32.32-.26.36a2.93,2.93,0,0,1-2.24,1.29c-1.73,0-3.18-2-3.18-4.31a4.83,4.83,0,0,1,1.51-3.63l5.31-4.55-5.31-4.55a4.85,4.85,0,0,1-1.51-3.64c0-2.33,1.45-4.3,3.18-4.3m0-6c-5.07,0-9.18,4.61-9.18,10.3a10.74,10.74,0,0,0,3.61,8.19,10.73,10.73,0,0,0-3.61,8.18c0,5.7,4.11,10.31,9.18,10.31a8.82,8.82,0,0,0,7.06-3.72l14.94-14.91-15.2-15a8.75,8.75,0,0,0-6.8-3.38Z" transform="translate(-29.26 107.02)"/>
  <path class="cls-1" d="M206.11,548.78a41.59,41.59,0,0,1,40.14,52.33L244,609.62l8.76-1a42.84,42.84,0,0,1,4.78-.28,41.56,41.56,0,1,1-8.82,82.18L241.42,689v63H92.49V689.13l-7.21,1.48a42.07,42.07,0,0,1-8.4.85,41.56,41.56,0,0,1,0-83.12,42.11,42.11,0,0,1,4.35.23l8.65.9-2.24-8.41a42,42,0,0,1-1.39-10.72A41.56,41.56,0,0,1,162,566.75l4.93,7.14,4.94-7.14a41.6,41.6,0,0,1,34.22-18m0-6A47.54,47.54,0,0,0,167,563.33a47.57,47.57,0,0,0-85.1,39.27,48.07,48.07,0,0,0-5-.26,47.56,47.56,0,1,0,9.61,94.15V758H247.42V696.38a47.57,47.57,0,1,0,4.63-93.72,47.6,47.6,0,0,0-45.94-59.88Z" transform="translate(-29.26 107.02)"/>
  <path class="cls-1" d="M167.2,635.25a40.6,40.6,0,1,1-40.6,40.59,40.64,40.64,0,0,1,40.6-40.59m0-6a46.6,46.6,0,1,0,46.59,46.59,46.59,46.59,0,0,0-46.59-46.59Z" transform="translate(-29.26 107.02)"/>
  <path class="cls-1" d="M76.88,624.68a24.75,24.75,0,1,1-24.74,24.74,24.77,24.77,0,0,1,24.74-24.74m0-6a30.75,30.75,0,1,0,30.75,30.74,30.74,30.74,0,0,0-30.75-30.74Z" transform="translate(-29.26 107.02)"/>
  <path class="cls-1" d="M127.8,565.59a24.75,24.75,0,1,1-24.74,24.75,24.77,24.77,0,0,1,24.74-24.75m0-6a30.75,30.75,0,1,0,30.75,30.75,30.74,30.74,0,0,0-30.75-30.75Z" transform="translate(-29.26 107.02)"/>
  <path class="cls-1" d="M206.11,565.59a24.75,24.75,0,1,1-24.75,24.75,24.77,24.77,0,0,1,24.75-24.75m0-6a30.75,30.75,0,1,0,30.74,30.75,30.75,30.75,0,0,0-30.74-30.75Z" transform="translate(-29.26 107.02)"/>
  <path class="cls-1" d="M257,625.16a24.75,24.75,0,1,1-24.75,24.74A24.77,24.77,0,0,1,257,625.16m0-6a30.75,30.75,0,1,0,30.74,30.74A30.74,30.74,0,0,0,257,619.16Z" transform="translate(-29.26 107.02)"/>
  <path class="cls-1" d="M175.05,647.26c2.38,0,4.31,1.59,4.31,3.55a3.3,3.3,0,0,1-1.25,2.49l-.26.22-.23.25L167,665l-10.55-11-.31-.33-.36-.27a3.36,3.36,0,0,1-1.38-2.6c0-2,1.93-3.55,4.3-3.55a4.59,4.59,0,0,1,3.56,1.57l4.63,5.61,4.63-5.61a4.59,4.59,0,0,1,3.55-1.57m0-6a10.58,10.58,0,0,0-8.18,3.75,10.6,10.6,0,0,0-8.19-3.75c-5.69,0-10.3,4.27-10.3,9.55a9.28,9.28,0,0,0,3.72,7.35L167,673.72l15-15.83a9.26,9.26,0,0,0,3.38-7.08c0-5.28-4.62-9.55-10.31-9.55Z" transform="translate(-29.26 107.02)"/>
  <path class="cls-1" d="M191,663.52c1.72,0,3.18,2,3.18,4.3a4.82,4.82,0,0,1-1.52,3.64l-5.3,4.55,5.3,4.55a4.82,4.82,0,0,1,1.52,3.64c0,2.33-1.46,4.3-3.18,4.3a2.86,2.86,0,0,1-2.13-1.15l-.22-.27-.24-.24-10.89-10.72,10.66-10.63.31-.32.27-.36a2.91,2.91,0,0,1,2.24-1.29m0-6a8.81,8.81,0,0,0-7.06,3.72l-15,14.91,15.21,15a8.78,8.78,0,0,0,6.8,3.38c5.07,0,9.18-4.61,9.18-10.3a10.74,10.74,0,0,0-3.61-8.19,10.74,10.74,0,0,0,3.61-8.19c0-5.69-4.11-10.3-9.18-10.3Z" transform="translate(-29.26 107.02)"/>
  <path class="cls-1" d="M167,687.29,177.67,698l.31.31.36.27a2.91,2.91,0,0,1,1.29,2.24c0,1.72-2,3.18-4.3,3.18a4.78,4.78,0,0,1-3.63-1.52l-4.56-5.3-4.55,5.3A4.78,4.78,0,0,1,159,704a5,5,0,0,1-3.3-1.17,2.74,2.74,0,0,1-1-2,2.87,2.87,0,0,1,1.16-2.13l.26-.22.24-.24L167,687.29m0-8.53L152,694a8.78,8.78,0,0,0-3.38,6.8c0,5.07,4.62,9.18,10.31,9.18a10.72,10.72,0,0,0,8.18-3.61,10.75,10.75,0,0,0,8.19,3.61c5.69,0,10.3-4.11,10.3-9.18a8.78,8.78,0,0,0-3.72-7.06l-14.91-15Z" transform="translate(-29.26 107.02)"/>
  <path class="cls-1" d="M142.38,663.8a2.87,2.87,0,0,1,2.14,1.16l.21.26.24.24,10.89,10.72-10.65,10.63-.32.32-.27.36a2.91,2.91,0,0,1-2.24,1.29c-1.72,0-3.18-2-3.18-4.3a4.82,4.82,0,0,1,1.52-3.64l5.3-4.55-5.3-4.55a4.8,4.8,0,0,1-1.52-3.63c0-2.34,1.46-4.31,3.18-4.31m0-6c-5.07,0-9.18,4.62-9.18,10.31a10.77,10.77,0,0,0,3.61,8.18,10.77,10.77,0,0,0-3.61,8.19c0,5.69,4.11,10.3,9.18,10.3a8.81,8.81,0,0,0,7.06-3.72l14.95-14.91-15.21-15a8.76,8.76,0,0,0-6.8-3.38Z" transform="translate(-29.26 107.02)"/>
  <path class="cls-1" d="M206.24,804.77a41.59,41.59,0,0,1,40.14,52.33l-2.28,8.51,8.76-1a42.82,42.82,0,0,1,4.78-.27,41.56,41.56,0,1,1-8.82,82.17l-7.27-1.57v63H92.62V945.13l-7.21,1.48a42.06,42.06,0,0,1-8.4.84,41.56,41.56,0,1,1,0-83.11,42.1,42.1,0,0,1,4.35.22l8.65.9-2.24-8.41a41.57,41.57,0,0,1,74.38-34.31l4.93,7.14,4.94-7.14a41.62,41.62,0,0,1,34.22-18m0-6a47.53,47.53,0,0,0-39.16,20.56A47.57,47.57,0,0,0,82,858.6a48.07,48.07,0,0,0-5-.26,47.56,47.56,0,1,0,9.61,94.14V1014H247.55v-61.6a47.56,47.56,0,1,0,10.09-94,49.13,49.13,0,0,0-5.46.31,47.6,47.6,0,0,0-45.94-59.88Z" transform="translate(-29.26 107.02)"/>
  <path class="cls-1" d="M167.33,891.24a40.6,40.6,0,1,1-40.6,40.6,40.64,40.64,0,0,1,40.6-40.6m0-6a46.6,46.6,0,1,0,46.59,46.6,46.6,46.6,0,0,0-46.59-46.6Z" transform="translate(-29.26 107.02)"/>
  <path class="cls-1" d="M77,880.67a24.75,24.75,0,1,1-24.74,24.75A24.77,24.77,0,0,1,77,880.67m0-6a30.75,30.75,0,1,0,30.75,30.75A30.74,30.74,0,0,0,77,874.67Z" transform="translate(-29.26 107.02)"/>
  <path class="cls-1" d="M127.93,821.58a24.75,24.75,0,1,1-24.74,24.75,24.77,24.77,0,0,1,24.74-24.75m0-6a30.75,30.75,0,1,0,30.75,30.75,30.74,30.74,0,0,0-30.75-30.75Z" transform="translate(-29.26 107.02)"/>
  <path class="cls-1" d="M206.24,821.58a24.75,24.75,0,1,1-24.75,24.75,24.77,24.77,0,0,1,24.75-24.75m0-6A30.75,30.75,0,1,0,237,846.33a30.75,30.75,0,0,0-30.74-30.75Z" transform="translate(-29.26 107.02)"/>
  <path class="cls-1" d="M257.16,881.15a24.75,24.75,0,1,1-24.75,24.75,24.77,24.77,0,0,1,24.75-24.75m0-6A30.75,30.75,0,1,0,287.9,905.9a30.75,30.75,0,0,0-30.74-30.75Z" transform="translate(-29.26 107.02)"/>
  <path class="cls-1" d="M175.18,903.25c2.38,0,4.31,1.59,4.31,3.56a3.27,3.27,0,0,1-1.25,2.48l-.26.22-.23.25L167.11,921l-10.55-11-.31-.32-.36-.28a3.34,3.34,0,0,1-1.38-2.59c0-2,1.93-3.56,4.3-3.56a4.63,4.63,0,0,1,3.56,1.57l4.63,5.61,4.63-5.61a4.62,4.62,0,0,1,3.55-1.57m0-6A10.55,10.55,0,0,0,167,901a10.57,10.57,0,0,0-8.19-3.76c-5.69,0-10.3,4.28-10.3,9.56a9.27,9.27,0,0,0,3.72,7.34l14.91,15.56,15-15.83a9.26,9.26,0,0,0,3.38-7.07c0-5.28-4.62-9.56-10.31-9.56Z" transform="translate(-29.26 107.02)"/>
  <path class="cls-1" d="M191.12,919.51c1.72,0,3.18,2,3.18,4.31a4.78,4.78,0,0,1-1.52,3.63l-5.3,4.55,5.3,4.56a4.78,4.78,0,0,1,1.52,3.63c0,2.33-1.46,4.3-3.18,4.3a2.86,2.86,0,0,1-2.13-1.15l-.22-.26-.24-.24-10.89-10.72,10.66-10.64.31-.31.27-.36a2.89,2.89,0,0,1,2.24-1.3m0-6a8.81,8.81,0,0,0-7.06,3.72l-14.95,14.91,15.21,15a8.75,8.75,0,0,0,6.8,3.38c5.07,0,9.18-4.61,9.18-10.3a10.75,10.75,0,0,0-3.61-8.19,10.72,10.72,0,0,0,3.61-8.18c0-5.69-4.11-10.31-9.18-10.31Z" transform="translate(-29.26 107.02)"/>
  <path class="cls-1" d="M167.16,943.28l10.64,10.66.31.32.36.27a2.89,2.89,0,0,1,1.29,2.23c0,1.73-2,3.18-4.3,3.18a4.78,4.78,0,0,1-3.63-1.51l-4.56-5.3-4.55,5.3a4.78,4.78,0,0,1-3.63,1.51c-2.33,0-4.31-1.45-4.31-3.18a2.87,2.87,0,0,1,1.16-2.13l.26-.21.24-.24,10.72-10.9m0-8.52-15,15.21a8.76,8.76,0,0,0-3.38,6.79c0,5.07,4.62,9.18,10.31,9.18a10.74,10.74,0,0,0,8.18-3.6,10.78,10.78,0,0,0,8.19,3.6c5.69,0,10.3-4.11,10.3-9.18A8.81,8.81,0,0,0,182,949.7l-14.91-14.94Z" transform="translate(-29.26 107.02)"/>
  <path class="cls-1" d="M142.51,919.8a2.86,2.86,0,0,1,2.14,1.15l.21.26.24.24L156,932.17l-10.65,10.64-.32.31-.27.36a2.89,2.89,0,0,1-2.24,1.3c-1.72,0-3.18-2-3.18-4.31a4.78,4.78,0,0,1,1.52-3.63l5.3-4.55-5.3-4.56a4.78,4.78,0,0,1-1.52-3.63c0-2.33,1.46-4.3,3.18-4.3m0-6c-5.07,0-9.18,4.61-9.18,10.3a10.79,10.79,0,0,0,3.61,8.19,10.75,10.75,0,0,0-3.61,8.18c0,5.69,4.11,10.31,9.18,10.31a8.81,8.81,0,0,0,7.06-3.72l15-14.92-15.21-15a8.73,8.73,0,0,0-6.8-3.38Z" transform="translate(-29.26 107.02)"/>
  <path class="cls-1" d="M491.11,154.88a41.59,41.59,0,0,1,40.14,52.33L529,215.72l8.76-1a42.84,42.84,0,0,1,4.78-.28,41.56,41.56,0,1,1,0,83.12,42.08,42.08,0,0,1-8.82-.94l-7.27-1.57v63H377.49V295.23l-7.21,1.48a42.07,42.07,0,0,1-8.4.85,41.56,41.56,0,0,1,0-83.12,42.11,42.11,0,0,1,4.35.23l8.65.9-2.24-8.41a42.12,42.12,0,0,1-1.39-10.73A41.56,41.56,0,0,1,447,172.84L452,180l4.94-7.15a41.61,41.61,0,0,1,34.22-18m0-6A47.52,47.52,0,0,0,452,169.43a47.57,47.57,0,0,0-85.1,39.27,48.07,48.07,0,0,0-5-.26,47.56,47.56,0,0,0,0,95.12,48.26,48.26,0,0,0,9.61-1v61.5H532.42V302.48a47.57,47.57,0,1,0,4.63-93.72,47.6,47.6,0,0,0-45.94-59.88Z" transform="translate(-29.26 107.02)"/>
  <path class="cls-1" d="M452.2,241.34a40.6,40.6,0,1,1-40.6,40.6,40.65,40.65,0,0,1,40.6-40.6m0-6a46.6,46.6,0,1,0,46.59,46.6,46.6,46.6,0,0,0-46.59-46.6Z" transform="translate(-29.26 107.02)"/>
  <path class="cls-1" d="M361.88,230.78a24.75,24.75,0,1,1-24.74,24.74,24.77,24.77,0,0,1,24.74-24.74m0-6a30.75,30.75,0,1,0,30.75,30.74,30.74,30.74,0,0,0-30.75-30.74Z" transform="translate(-29.26 107.02)"/>
  <path class="cls-1" d="M412.8,171.69a24.75,24.75,0,1,1-24.74,24.74,24.77,24.77,0,0,1,24.74-24.74m0-6a30.75,30.75,0,1,0,30.75,30.74,30.74,30.74,0,0,0-30.75-30.74Z" transform="translate(-29.26 107.02)"/>
  <path class="cls-1" d="M491.11,171.69a24.75,24.75,0,1,1-24.75,24.74,24.77,24.77,0,0,1,24.75-24.74m0-6a30.75,30.75,0,1,0,30.74,30.74,30.74,30.74,0,0,0-30.74-30.74Z" transform="translate(-29.26 107.02)"/>
  <path class="cls-1" d="M542,231.26A24.75,24.75,0,1,1,517.28,256,24.77,24.77,0,0,1,542,231.26m0-6A30.75,30.75,0,1,0,572.77,256,30.74,30.74,0,0,0,542,225.26Z" transform="translate(-29.26 107.02)"/>
  <path class="cls-1" d="M460.05,253.35c2.38,0,4.31,1.6,4.31,3.56a3.31,3.31,0,0,1-1.25,2.49l-.26.22-.23.24L452,271.11l-10.55-11-.31-.33-.36-.27a3.36,3.36,0,0,1-1.38-2.6c0-2,1.93-3.56,4.3-3.56a4.6,4.6,0,0,1,3.56,1.58l4.63,5.61,4.63-5.61a4.59,4.59,0,0,1,3.55-1.58m0-6a10.58,10.58,0,0,0-8.18,3.76,10.61,10.61,0,0,0-8.19-3.76c-5.69,0-10.3,4.28-10.3,9.56a9.29,9.29,0,0,0,3.72,7.35L452,279.82,467,264a9.28,9.28,0,0,0,3.38-7.08c0-5.28-4.62-9.56-10.31-9.56Z" transform="translate(-29.26 107.02)"/>
  <path class="cls-1" d="M476,269.62c1.72,0,3.18,2,3.18,4.3a4.82,4.82,0,0,1-1.52,3.64l-5.3,4.55,5.3,4.55a4.8,4.8,0,0,1,1.52,3.63c0,2.34-1.46,4.31-3.18,4.31a2.87,2.87,0,0,1-2.13-1.16l-.22-.26-.24-.24-10.89-10.72,10.66-10.63.31-.32.27-.36a2.91,2.91,0,0,1,2.24-1.29m0-6a8.81,8.81,0,0,0-7.06,3.72L454,282.25l15.21,15a8.78,8.78,0,0,0,6.8,3.38c5.07,0,9.18-4.62,9.18-10.31a10.73,10.73,0,0,0-3.61-8.18,10.74,10.74,0,0,0,3.61-8.19c0-5.69-4.11-10.3-9.18-10.3Z" transform="translate(-29.26 107.02)"/>
  <path class="cls-1" d="M452,293.39l10.64,10.66.31.31.36.27a2.91,2.91,0,0,1,1.29,2.24c0,1.72-2,3.18-4.3,3.18a4.78,4.78,0,0,1-3.63-1.52l-4.56-5.3-4.55,5.3a4.78,4.78,0,0,1-3.63,1.52,5,5,0,0,1-3.3-1.17,2.74,2.74,0,0,1-1-2,2.83,2.83,0,0,1,1.16-2.13l.26-.22.24-.24L452,293.39m0-8.53-15,15.21a8.76,8.76,0,0,0-3.38,6.8c0,5.07,4.62,9.18,10.31,9.18a10.75,10.75,0,0,0,8.18-3.61,10.79,10.79,0,0,0,8.19,3.61c5.69,0,10.3-4.11,10.3-9.18a8.78,8.78,0,0,0-3.72-7.06L452,284.86Z" transform="translate(-29.26 107.02)"/>
  <path class="cls-1" d="M427.38,269.9h0a2.86,2.86,0,0,1,2.14,1.15l.21.27.24.24,10.89,10.72-10.65,10.63-.32.32-.27.36a2.91,2.91,0,0,1-2.24,1.29c-1.72,0-3.18-2-3.18-4.3a4.82,4.82,0,0,1,1.52-3.64l5.3-4.55-5.3-4.55a4.82,4.82,0,0,1-1.52-3.64c0-2.33,1.46-4.3,3.18-4.3m0-6c-5.07,0-9.18,4.61-9.18,10.3a10.77,10.77,0,0,0,3.61,8.19,10.77,10.77,0,0,0-3.61,8.19c0,5.69,4.11,10.3,9.18,10.3a8.81,8.81,0,0,0,7.06-3.72l14.95-14.91-15.21-15a8.73,8.73,0,0,0-6.8-3.38Z" transform="translate(-29.26 107.02)"/>
  <path class="cls-1" d="M491.24,410.87a41.59,41.59,0,0,1,40.14,52.33l-2.28,8.51,8.76-1a42.82,42.82,0,0,1,4.78-.27,41.56,41.56,0,1,1-8.82,82.17L526.55,551v63H377.62V551.23l-7.21,1.47a41.56,41.56,0,1,1-8.4-82.26,42.1,42.1,0,0,1,4.35.22l8.65.9-2.24-8.41a41.57,41.57,0,0,1,74.38-34.31l4.93,7.14,4.94-7.14a41.62,41.62,0,0,1,34.22-18m0-6a47.53,47.53,0,0,0-39.16,20.56A47.56,47.56,0,0,0,367,464.69c-1.64-.16-3.29-.25-5-.25a47.56,47.56,0,1,0,9.61,94.14v61.5H532.55v-61.6a47.56,47.56,0,1,0,10.09-94,49.13,49.13,0,0,0-5.46.31,47.6,47.6,0,0,0-45.94-59.88Z" transform="translate(-29.26 107.02)"/>
  <path class="cls-1" d="M452.33,497.34a40.6,40.6,0,1,1-40.6,40.6,40.64,40.64,0,0,1,40.6-40.6m0-6a46.6,46.6,0,1,0,46.59,46.6,46.6,46.6,0,0,0-46.59-46.6Z" transform="translate(-29.26 107.02)"/>
  <path class="cls-1" d="M362,486.77a24.75,24.75,0,1,1-24.74,24.74A24.77,24.77,0,0,1,362,486.77m0-6a30.75,30.75,0,1,0,30.75,30.74A30.74,30.74,0,0,0,362,480.77Z" transform="translate(-29.26 107.02)"/>
  <path class="cls-1" d="M412.93,427.68a24.75,24.75,0,1,1-24.74,24.75,24.77,24.77,0,0,1,24.74-24.75m0-6a30.75,30.75,0,1,0,30.75,30.75,30.74,30.74,0,0,0-30.75-30.75Z" transform="translate(-29.26 107.02)"/>
  <path class="cls-1" d="M491.24,427.68a24.75,24.75,0,1,1-24.75,24.75,24.77,24.77,0,0,1,24.75-24.75m0-6A30.75,30.75,0,1,0,522,452.43a30.75,30.75,0,0,0-30.74-30.75Z" transform="translate(-29.26 107.02)"/>
  <path class="cls-1" d="M542.16,487.25A24.75,24.75,0,1,1,517.41,512a24.77,24.77,0,0,1,24.75-24.75m0-6A30.75,30.75,0,1,0,572.9,512a30.75,30.75,0,0,0-30.74-30.75Z" transform="translate(-29.26 107.02)"/>
  <path class="cls-1" d="M460.18,509.35c2.38,0,4.31,1.59,4.31,3.55a3.28,3.28,0,0,1-1.25,2.49l-.26.22-.23.25-10.64,11.25-10.55-11-.31-.32-.36-.28a3.34,3.34,0,0,1-1.38-2.6c0-2,1.93-3.55,4.3-3.55a4.63,4.63,0,0,1,3.56,1.57l4.63,5.61,4.63-5.61a4.62,4.62,0,0,1,3.55-1.57m0-6A10.58,10.58,0,0,0,452,507.1a10.6,10.6,0,0,0-8.19-3.75c-5.69,0-10.3,4.28-10.3,9.55a9.28,9.28,0,0,0,3.72,7.35l14.91,15.56,15-15.83a9.26,9.26,0,0,0,3.38-7.08c0-5.27-4.62-9.55-10.31-9.55Z" transform="translate(-29.26 107.02)"/>
  <path class="cls-1" d="M476.12,525.61c1.72,0,3.18,2,3.18,4.31a4.8,4.8,0,0,1-1.52,3.63l-5.3,4.55,5.3,4.55a4.82,4.82,0,0,1,1.52,3.64c0,2.33-1.46,4.3-3.18,4.3a2.86,2.86,0,0,1-2.13-1.15l-.22-.27-.24-.23-10.89-10.73,10.66-10.63.31-.32.27-.36a2.91,2.91,0,0,1,2.24-1.29m0-6a8.81,8.81,0,0,0-7.06,3.72l-14.95,14.91,15.21,15a8.75,8.75,0,0,0,6.8,3.38c5.07,0,9.18-4.61,9.18-10.3a10.74,10.74,0,0,0-3.61-8.19,10.73,10.73,0,0,0,3.61-8.18c0-5.69-4.11-10.31-9.18-10.31Z" transform="translate(-29.26 107.02)"/>
  <path class="cls-1" d="M452.16,549.38,462.8,560l.31.32.36.26a2.93,2.93,0,0,1,1.29,2.24c0,1.73-2,3.18-4.3,3.18a4.78,4.78,0,0,1-3.63-1.51l-4.56-5.3-4.55,5.3a4.78,4.78,0,0,1-3.63,1.51c-2.33,0-4.31-1.45-4.31-3.18a2.87,2.87,0,0,1,1.16-2.13l.26-.21.24-.25,10.72-10.89m0-8.52-15,15.21a8.74,8.74,0,0,0-3.38,6.79c0,5.07,4.62,9.18,10.31,9.18a10.74,10.74,0,0,0,8.18-3.6,10.78,10.78,0,0,0,8.19,3.6c5.69,0,10.3-4.11,10.3-9.18A8.79,8.79,0,0,0,467,555.8l-14.91-14.94Z" transform="translate(-29.26 107.02)"/>
  <path class="cls-1" d="M427.51,525.9a2.86,2.86,0,0,1,2.14,1.15l.21.26.24.24L441,538.27l-10.65,10.64-.32.31-.27.36a2.91,2.91,0,0,1-2.24,1.29c-1.72,0-3.18-2-3.18-4.3a4.78,4.78,0,0,1,1.52-3.63l5.3-4.56-5.3-4.55a4.78,4.78,0,0,1-1.52-3.63c0-2.33,1.46-4.3,3.18-4.3m0-6c-5.07,0-9.18,4.61-9.18,10.3a10.75,10.75,0,0,0,3.61,8.18,10.79,10.79,0,0,0-3.61,8.19c0,5.69,4.11,10.3,9.18,10.3a8.78,8.78,0,0,0,7.06-3.72l14.95-14.91-15.21-15a8.73,8.73,0,0,0-6.8-3.38Z" transform="translate(-29.26 107.02)"/>
  <path class="cls-1" d="M491.17,665.87a41.59,41.59,0,0,1,40.15,52.33L529,726.72l8.75-1a40.7,40.7,0,0,1,4.78-.28,41.56,41.56,0,1,1,0,83.12,42.15,42.15,0,0,1-8.82-.94l-7.27-1.57v63H377.56V806.23l-7.21,1.48a42.14,42.14,0,0,1-8.4.85,41.56,41.56,0,0,1,0-83.12,42.06,42.06,0,0,1,4.34.23l8.66.89-2.24-8.41a41.56,41.56,0,0,1,74.37-34.31L452,691l4.94-7.14a41.59,41.59,0,0,1,34.21-18m0-6A47.49,47.49,0,0,0,452,680.43a47.57,47.57,0,0,0-85.11,39.27,47.56,47.56,0,1,0,4.65,93.88v61.5H532.48v-61.6a47.56,47.56,0,1,0,10.09-94,49.26,49.26,0,0,0-5.46.31,47.57,47.57,0,0,0-45.94-59.88Z" transform="translate(-29.26 107.02)"/>
  <path class="cls-1" d="M452.26,752.34a40.6,40.6,0,1,1-40.6,40.6,40.64,40.64,0,0,1,40.6-40.6m0-6a46.6,46.6,0,1,0,46.6,46.6,46.6,46.6,0,0,0-46.6-46.6Z" transform="translate(-29.26 107.02)"/>
  <path class="cls-1" d="M362,741.77a24.75,24.75,0,1,1-24.75,24.75A24.77,24.77,0,0,1,362,741.77m0-6a30.75,30.75,0,1,0,30.74,30.75A30.75,30.75,0,0,0,362,735.77Z" transform="translate(-29.26 107.02)"/>
  <path class="cls-1" d="M412.87,682.69a24.75,24.75,0,1,1-24.75,24.74,24.77,24.77,0,0,1,24.75-24.74m0-6a30.75,30.75,0,1,0,30.74,30.74,30.74,30.74,0,0,0-30.74-30.74Z" transform="translate(-29.26 107.02)"/>
  <path class="cls-1" d="M491.17,682.69a24.75,24.75,0,1,1-24.74,24.74,24.77,24.77,0,0,1,24.74-24.74m0-6a30.75,30.75,0,1,0,30.75,30.74,30.74,30.74,0,0,0-30.75-30.74Z" transform="translate(-29.26 107.02)"/>
  <path class="cls-1" d="M542.09,742.25A24.75,24.75,0,1,1,517.35,767a24.77,24.77,0,0,1,24.74-24.75m0-6A30.75,30.75,0,1,0,572.84,767a30.74,30.74,0,0,0-30.75-30.75Z" transform="translate(-29.26 107.02)"/>
  <path class="cls-1" d="M460.12,764.35c2.37,0,4.3,1.6,4.3,3.56a3.3,3.3,0,0,1-1.24,2.48l-.26.22-.24.25L452,782.11l-10.55-11-.31-.32-.35-.28a3.3,3.3,0,0,1-1.39-2.59c0-2,1.93-3.56,4.31-3.56a4.62,4.62,0,0,1,3.55,1.57l4.63,5.61,4.63-5.61a4.63,4.63,0,0,1,3.56-1.57m0-6a10.57,10.57,0,0,0-8.19,3.76,10.55,10.55,0,0,0-8.18-3.76c-5.69,0-10.31,4.28-10.31,9.56a9.31,9.31,0,0,0,3.72,7.35l14.91,15.55L467,775a9.22,9.22,0,0,0,3.38-7.07c0-5.28-4.61-9.56-10.3-9.56Z" transform="translate(-29.26 107.02)"/>
  <path class="cls-1" d="M476.06,780.62c1.72,0,3.18,2,3.18,4.3a4.78,4.78,0,0,1-1.52,3.63l-5.3,4.56,5.3,4.55a4.78,4.78,0,0,1,1.52,3.63c0,2.33-1.46,4.3-3.18,4.3a2.86,2.86,0,0,1-2.14-1.15l-.21-.26-.24-.24-10.9-10.72,10.66-10.64.32-.31.27-.36a2.89,2.89,0,0,1,2.24-1.29m0-6a8.78,8.78,0,0,0-7.06,3.72l-14.95,14.91,15.21,15a8.73,8.73,0,0,0,6.8,3.38c5.07,0,9.18-4.61,9.18-10.3a10.75,10.75,0,0,0-3.61-8.18,10.79,10.79,0,0,0,3.61-8.19c0-5.69-4.11-10.3-9.18-10.3Z" transform="translate(-29.26 107.02)"/>
  <path class="cls-1" d="M452.1,804.38,462.73,815l.32.32.36.27a2.89,2.89,0,0,1,1.29,2.24c0,1.72-2,3.18-4.3,3.18a4.82,4.82,0,0,1-3.64-1.52l-4.55-5.3-4.55,5.3a4.82,4.82,0,0,1-3.64,1.52c-2.33,0-4.3-1.46-4.3-3.18a2.86,2.86,0,0,1,1.15-2.14l.27-.21.24-.24,10.72-10.9m0-8.52-15,15.21a8.73,8.73,0,0,0-3.38,6.8c0,5.07,4.61,9.18,10.3,9.18a10.77,10.77,0,0,0,8.19-3.61,10.77,10.77,0,0,0,8.19,3.61c5.69,0,10.3-4.11,10.3-9.18a8.81,8.81,0,0,0-3.72-7.06l-14.91-14.95Z" transform="translate(-29.26 107.02)"/>
  <path class="cls-1" d="M427.45,780.9a2.86,2.86,0,0,1,2.13,1.15l.22.27.24.23,10.89,10.73-10.66,10.63-.32.32-.26.35a2.91,2.91,0,0,1-2.24,1.3c-1.73,0-3.18-2-3.18-4.31a4.81,4.81,0,0,1,1.51-3.63l5.31-4.55-5.31-4.55a4.85,4.85,0,0,1-1.51-3.64c0-2.33,1.45-4.3,3.18-4.3m0-6c-5.07,0-9.18,4.61-9.18,10.3a10.75,10.75,0,0,0,3.61,8.19,10.73,10.73,0,0,0-3.61,8.18c0,5.69,4.11,10.31,9.18,10.31a8.82,8.82,0,0,0,7.06-3.72l14.94-14.91-15.2-15a8.75,8.75,0,0,0-6.8-3.38Z" transform="translate(-29.26 107.02)"/>
  <path class="cls-1" d="M772.07,37.32a41.59,41.59,0,0,1,40.15,52.33l-2.28,8.51,8.76-1a42.64,42.64,0,0,1,4.77-.27,41.56,41.56,0,1,1-8.82,82.17l-7.26-1.57v63H658.46V177.67l-7.21,1.48a41.56,41.56,0,1,1-8.4-82.26,42,42,0,0,1,4.34.22l8.66.9-2.24-8.41A41.57,41.57,0,0,1,728,55.29l4.93,7.14,4.94-7.14a41.59,41.59,0,0,1,34.21-18m0-6a47.51,47.51,0,0,0-39.15,20.56,47.57,47.57,0,0,0-85.11,39.26A47.56,47.56,0,1,0,652.46,185v61.5H813.39v-61.6a47.56,47.56,0,1,0,10.08-94,46.78,46.78,0,0,0-5.45.31,47.6,47.6,0,0,0-45.95-59.88Z" transform="translate(-29.26 107.02)"/>
  <path class="cls-1" d="M733.16,123.79a40.6,40.6,0,1,1-40.59,40.59,40.64,40.64,0,0,1,40.59-40.59m0-6a46.6,46.6,0,1,0,46.6,46.59,46.59,46.59,0,0,0-46.6-46.59Z" transform="translate(-29.26 107.02)"/>
  <path class="cls-1" d="M642.85,113.22A24.75,24.75,0,1,1,618.11,138a24.77,24.77,0,0,1,24.74-24.74m0-6A30.75,30.75,0,1,0,673.59,138a30.74,30.74,0,0,0-30.74-30.74Z" transform="translate(-29.26 107.02)"/>
  <path class="cls-1" d="M693.77,54.13A24.75,24.75,0,1,1,669,78.88a24.77,24.77,0,0,1,24.74-24.75m0-6a30.75,30.75,0,1,0,30.75,30.75,30.74,30.74,0,0,0-30.75-30.75Z" transform="translate(-29.26 107.02)"/>
  <path class="cls-1" d="M772.07,54.13a24.75,24.75,0,1,1-24.74,24.75,24.77,24.77,0,0,1,24.74-24.75m0-6a30.75,30.75,0,1,0,30.75,30.75,30.74,30.74,0,0,0-30.75-30.75Z" transform="translate(-29.26 107.02)"/>
  <path class="cls-1" d="M823,113.7a24.75,24.75,0,1,1-24.74,24.74A24.77,24.77,0,0,1,823,113.7m0-6a30.75,30.75,0,1,0,30.75,30.74A30.74,30.74,0,0,0,823,107.7Z" transform="translate(-29.26 107.02)"/>
  <path class="cls-1" d="M741,135.8c2.37,0,4.3,1.59,4.3,3.55a3.32,3.32,0,0,1-1.24,2.49l-.26.22-.24.25L733,153.56l-10.55-11-.31-.32-.36-.28a3.33,3.33,0,0,1-1.38-2.6c0-2,1.93-3.55,4.3-3.55a4.66,4.66,0,0,1,3.56,1.57l4.62,5.61,4.63-5.61A4.66,4.66,0,0,1,741,135.8m0-6a10.6,10.6,0,0,0-8.19,3.75,10.56,10.56,0,0,0-8.18-3.75c-5.69,0-10.3,4.28-10.3,9.55a9.27,9.27,0,0,0,3.71,7.35L733,162.26l15-15.83a9.23,9.23,0,0,0,3.38-7.08c0-5.27-4.61-9.55-10.3-9.55Z" transform="translate(-29.26 107.02)"/>
  <path class="cls-1" d="M757,152.06c1.72,0,3.18,2,3.18,4.3a4.82,4.82,0,0,1-1.52,3.64l-5.3,4.55,5.3,4.55a4.82,4.82,0,0,1,1.52,3.64c0,2.33-1.46,4.3-3.18,4.3a2.86,2.86,0,0,1-2.14-1.15l-.21-.27-.24-.24-10.89-10.72L754.14,154l.31-.32.27-.36a2.91,2.91,0,0,1,2.24-1.29m0-6a8.81,8.81,0,0,0-7.06,3.72L735,164.69l15.21,15A8.73,8.73,0,0,0,757,183c5.07,0,9.18-4.61,9.18-10.3a10.77,10.77,0,0,0-3.61-8.19,10.77,10.77,0,0,0,3.61-8.19c0-5.69-4.11-10.3-9.18-10.3Z" transform="translate(-29.26 107.02)"/>
  <path class="cls-1" d="M733,175.83l10.63,10.66.32.32.36.26a2.93,2.93,0,0,1,1.29,2.24c0,1.73-2,3.18-4.3,3.18a4.85,4.85,0,0,1-3.64-1.51l-4.55-5.31L728.56,191a4.83,4.83,0,0,1-3.63,1.51,5,5,0,0,1-3.3-1.17,2.74,2.74,0,0,1-1-2,2.83,2.83,0,0,1,1.16-2.13L722,187l.24-.24L733,175.83m0-8.52-15,15.2a8.78,8.78,0,0,0-3.38,6.8c0,5.07,4.62,9.18,10.31,9.18a10.73,10.73,0,0,0,8.18-3.61,10.74,10.74,0,0,0,8.19,3.61c5.69,0,10.3-4.11,10.3-9.18a8.82,8.82,0,0,0-3.72-7.06L733,167.31Z" transform="translate(-29.26 107.02)"/>
  <path class="cls-1" d="M708.35,152.34a2.85,2.85,0,0,1,2.13,1.16l.22.26.24.24,10.89,10.72-10.66,10.64-.31.31-.27.36a2.91,2.91,0,0,1-2.24,1.29c-1.72,0-3.18-2-3.18-4.3a4.78,4.78,0,0,1,1.52-3.63l5.3-4.56-5.3-4.55a4.78,4.78,0,0,1-1.52-3.63c0-2.34,1.46-4.31,3.18-4.31m0-6c-5.07,0-9.18,4.62-9.18,10.31a10.75,10.75,0,0,0,3.61,8.18,10.79,10.79,0,0,0-3.61,8.19c0,5.69,4.11,10.3,9.18,10.3a8.78,8.78,0,0,0,7.06-3.72l15-14.91-15.21-15a8.76,8.76,0,0,0-6.8-3.38Z" transform="translate(-29.26 107.02)"/>
  <path class="cls-1" d="M772.2,293.31a41.59,41.59,0,0,1,40.15,52.33l-2.28,8.52,8.76-1a40.41,40.41,0,0,1,4.77-.28,41.56,41.56,0,0,1,0,83.12,42.15,42.15,0,0,1-8.82-.94l-7.26-1.57v63H658.59V433.67l-7.21,1.48a42.07,42.07,0,0,1-8.4.85,41.56,41.56,0,0,1,0-83.12,42.06,42.06,0,0,1,4.34.23L656,354l-2.24-8.41a41.57,41.57,0,0,1,74.38-34.31l4.93,7.14,4.94-7.14a41.59,41.59,0,0,1,34.21-18m0-6a47.51,47.51,0,0,0-39.15,20.56,47.57,47.57,0,0,0-85.11,39.27A47.56,47.56,0,1,0,652.59,441v61.5H813.52v-61.6a47.56,47.56,0,1,0,10.08-94,49.08,49.08,0,0,0-5.45.31,47.6,47.6,0,0,0-45.95-59.88Z" transform="translate(-29.26 107.02)"/>
  <path class="cls-1" d="M733.29,379.78a40.6,40.6,0,1,1-40.59,40.6,40.64,40.64,0,0,1,40.59-40.6m0-6a46.6,46.6,0,1,0,46.6,46.6,46.59,46.59,0,0,0-46.6-46.6Z" transform="translate(-29.26 107.02)"/>
  <path class="cls-1" d="M643,369.21A24.75,24.75,0,1,1,618.24,394,24.77,24.77,0,0,1,643,369.21m0-6A30.75,30.75,0,1,0,673.72,394,30.74,30.74,0,0,0,643,363.21Z" transform="translate(-29.26 107.02)"/>
  <path class="cls-1" d="M693.9,310.13a24.75,24.75,0,1,1-24.74,24.74,24.77,24.77,0,0,1,24.74-24.74m0-6a30.75,30.75,0,1,0,30.75,30.74,30.74,30.74,0,0,0-30.75-30.74Z" transform="translate(-29.26 107.02)"/>
  <path class="cls-1" d="M772.2,310.13a24.75,24.75,0,1,1-24.74,24.74,24.77,24.77,0,0,1,24.74-24.74m0-6A30.75,30.75,0,1,0,803,334.87a30.74,30.74,0,0,0-30.75-30.74Z" transform="translate(-29.26 107.02)"/>
  <path class="cls-1" d="M823.12,369.69a24.75,24.75,0,1,1-24.74,24.75,24.77,24.77,0,0,1,24.74-24.75m0-6a30.75,30.75,0,1,0,30.75,30.75,30.74,30.74,0,0,0-30.75-30.75Z" transform="translate(-29.26 107.02)"/>
  <path class="cls-1" d="M741.15,391.79c2.37,0,4.3,1.6,4.3,3.56a3.3,3.3,0,0,1-1.24,2.48l-.26.22-.24.25-10.63,11.25-10.55-11-.31-.32-.36-.28a3.29,3.29,0,0,1-1.38-2.59c0-2,1.93-3.56,4.3-3.56a4.66,4.66,0,0,1,3.56,1.57L733,399l4.63-5.61a4.66,4.66,0,0,1,3.56-1.57m0-6a10.57,10.57,0,0,0-8.19,3.76,10.54,10.54,0,0,0-8.18-3.76c-5.69,0-10.3,4.28-10.3,9.56a9.3,9.3,0,0,0,3.71,7.35l14.92,15.55,15-15.83a9.22,9.22,0,0,0,3.38-7.07c0-5.28-4.61-9.56-10.3-9.56Z" transform="translate(-29.26 107.02)"/>
  <path class="cls-1" d="M757.09,408.06c1.72,0,3.18,2,3.18,4.3a4.78,4.78,0,0,1-1.52,3.63l-5.3,4.56,5.3,4.55a4.78,4.78,0,0,1,1.52,3.63c0,2.33-1.46,4.3-3.18,4.3a2.86,2.86,0,0,1-2.14-1.15l-.21-.26-.24-.24-10.89-10.72L754.27,410l.31-.31.27-.36a2.91,2.91,0,0,1,2.24-1.29m0-6a8.78,8.78,0,0,0-7.06,3.72l-14.95,14.91,15.21,15a8.73,8.73,0,0,0,6.8,3.38c5.07,0,9.18-4.61,9.18-10.3a10.75,10.75,0,0,0-3.61-8.18,10.79,10.79,0,0,0,3.61-8.19c0-5.69-4.11-10.3-9.18-10.3Z" transform="translate(-29.26 107.02)"/>
  <path class="cls-1" d="M733.13,431.82l10.63,10.66.32.32.36.27a2.89,2.89,0,0,1,1.29,2.24c0,1.72-2,3.18-4.3,3.18a4.82,4.82,0,0,1-3.64-1.52l-4.55-5.3-4.55,5.3a4.8,4.8,0,0,1-3.63,1.52c-2.34,0-4.31-1.46-4.31-3.18a2.84,2.84,0,0,1,1.16-2.14l.26-.21.24-.24,10.72-10.9m0-8.52-15,15.21a8.76,8.76,0,0,0-3.38,6.8c0,5.07,4.62,9.18,10.31,9.18a10.77,10.77,0,0,0,8.18-3.61,10.77,10.77,0,0,0,8.19,3.61c5.69,0,10.3-4.11,10.3-9.18a8.81,8.81,0,0,0-3.72-7.06L733.1,423.3Z" transform="translate(-29.26 107.02)"/>
  <path class="cls-1" d="M708.48,408.34a2.84,2.84,0,0,1,2.13,1.15l.22.27.24.23L722,420.72,711.3,431.35l-.31.32-.27.35a2.89,2.89,0,0,1-2.24,1.3c-1.72,0-3.18-2-3.18-4.31a4.78,4.78,0,0,1,1.52-3.63l5.3-4.55-5.3-4.55a4.82,4.82,0,0,1-1.52-3.64c0-2.33,1.46-4.3,3.18-4.3m0-6c-5.07,0-9.18,4.61-9.18,10.3a10.79,10.79,0,0,0,3.61,8.19A10.77,10.77,0,0,0,699.3,429c0,5.69,4.11,10.31,9.18,10.31a8.81,8.81,0,0,0,7.06-3.72l15-14.91-15.21-15a8.73,8.73,0,0,0-6.8-3.38Z" transform="translate(-29.26 107.02)"/>
  <path class="cls-1" d="M772.14,548.32a41.56,41.56,0,0,1,40.14,52.33L810,609.16l8.75-1a43,43,0,0,1,4.78-.28,41.56,41.56,0,1,1,0,83.12,42.15,42.15,0,0,1-8.82-.94l-7.27-1.57v63H658.52V688.67l-7.2,1.48a42.22,42.22,0,0,1-8.4.85,41.56,41.56,0,0,1,0-83.12,42.06,42.06,0,0,1,4.34.23l8.66.9-2.24-8.41a41.56,41.56,0,0,1,74.37-34.32l4.94,7.15,4.93-7.15a41.61,41.61,0,0,1,34.22-18m0-6A47.48,47.48,0,0,0,733,562.87a47.57,47.57,0,0,0-85.11,39.27A47.56,47.56,0,1,0,652.52,696v61.5H813.45V695.92a47.57,47.57,0,1,0,4.63-93.72,47.57,47.57,0,0,0-45.94-59.88Z" transform="translate(-29.26 107.02)"/>
  <path class="cls-1" d="M733.23,634.78a40.6,40.6,0,1,1-40.6,40.6,40.65,40.65,0,0,1,40.6-40.6m0-6a46.6,46.6,0,1,0,46.59,46.6,46.6,46.6,0,0,0-46.59-46.6Z" transform="translate(-29.26 107.02)"/>
  <path class="cls-1" d="M642.92,624.22A24.75,24.75,0,1,1,618.17,649a24.77,24.77,0,0,1,24.75-24.74m0-6A30.75,30.75,0,1,0,673.66,649a30.74,30.74,0,0,0-30.74-30.74Z" transform="translate(-29.26 107.02)"/>
  <path class="cls-1" d="M693.84,565.13a24.75,24.75,0,1,1-24.75,24.74,24.77,24.77,0,0,1,24.75-24.74m0-6a30.75,30.75,0,1,0,30.74,30.74,30.74,30.74,0,0,0-30.74-30.74Z" transform="translate(-29.26 107.02)"/>
  <path class="cls-1" d="M772.14,565.13a24.75,24.75,0,1,1-24.75,24.74,24.77,24.77,0,0,1,24.75-24.74m0-6a30.75,30.75,0,1,0,30.74,30.74,30.74,30.74,0,0,0-30.74-30.74Z" transform="translate(-29.26 107.02)"/>
  <path class="cls-1" d="M823.06,624.7a24.75,24.75,0,1,1-24.75,24.74,24.77,24.77,0,0,1,24.75-24.74m0-6a30.75,30.75,0,1,0,30.74,30.74,30.74,30.74,0,0,0-30.74-30.74Z" transform="translate(-29.26 107.02)"/>
  <path class="cls-1" d="M741.09,646.79c2.37,0,4.3,1.6,4.3,3.56a3.31,3.31,0,0,1-1.25,2.49l-.26.22-.23.24L733,664.55l-10.55-11-.31-.33-.36-.27a3.36,3.36,0,0,1-1.38-2.6c0-2,1.93-3.56,4.3-3.56a4.6,4.6,0,0,1,3.56,1.58L732.9,654l4.63-5.61a4.6,4.6,0,0,1,3.56-1.58m0-6a10.59,10.59,0,0,0-8.19,3.76,10.59,10.59,0,0,0-8.19-3.76c-5.69,0-10.3,4.28-10.3,9.56a9.29,9.29,0,0,0,3.72,7.35L733,673.26l15-15.83a9.24,9.24,0,0,0,3.38-7.08c0-5.28-4.61-9.56-10.3-9.56Z" transform="translate(-29.26 107.02)"/>
  <path class="cls-1" d="M757,663.06c1.73,0,3.18,2,3.18,4.3a4.81,4.81,0,0,1-1.51,3.64l-5.3,4.55,5.3,4.55a4.79,4.79,0,0,1,1.51,3.63c0,2.34-1.45,4.31-3.18,4.31a2.87,2.87,0,0,1-2.13-1.16l-.21-.26-.25-.24-10.89-10.72L754.2,665l.32-.32.26-.36a2.93,2.93,0,0,1,2.24-1.29m0-6a8.82,8.82,0,0,0-7.06,3.72L735,675.69l15.2,15A8.78,8.78,0,0,0,757,694c5.07,0,9.18-4.62,9.18-10.31a10.76,10.76,0,0,0-3.6-8.18,10.76,10.76,0,0,0,3.6-8.19c0-5.69-4.11-10.3-9.18-10.3Z" transform="translate(-29.26 107.02)"/>
  <path class="cls-1" d="M733.06,686.83l10.64,10.66.31.31.36.27a2.89,2.89,0,0,1,1.3,2.24c0,1.72-2,3.18-4.31,3.18a4.78,4.78,0,0,1-3.63-1.52l-4.55-5.3-4.56,5.3a4.78,4.78,0,0,1-3.63,1.52c-2.33,0-4.3-1.46-4.3-3.18a2.82,2.82,0,0,1,1.15-2.13l.26-.22.24-.24,10.72-10.89m0-8.53-15,15.21a8.73,8.73,0,0,0-3.38,6.8c0,5.07,4.61,9.18,10.3,9.18a10.79,10.79,0,0,0,8.19-3.61,10.75,10.75,0,0,0,8.18,3.61c5.69,0,10.31-4.11,10.31-9.18a8.81,8.81,0,0,0-3.72-7.06L733,678.3Z" transform="translate(-29.26 107.02)"/>
  <path class="cls-1" d="M708.42,663.34a2.86,2.86,0,0,1,2.13,1.15l.21.27.24.24,10.9,10.72-10.66,10.63-.32.32-.27.36a2.89,2.89,0,0,1-2.23,1.29c-1.73,0-3.18-2-3.18-4.3a4.81,4.81,0,0,1,1.51-3.64l5.3-4.55-5.3-4.55a4.81,4.81,0,0,1-1.51-3.64c0-2.33,1.45-4.3,3.18-4.3m0-6c-5.07,0-9.18,4.61-9.18,10.3a10.76,10.76,0,0,0,3.6,8.19,10.76,10.76,0,0,0-3.6,8.19c0,5.69,4.11,10.3,9.18,10.3a8.83,8.83,0,0,0,7.06-3.72l14.94-14.91-15.21-15a8.73,8.73,0,0,0-6.79-3.38Z" transform="translate(-29.26 107.02)"/>
  <path class="cls-1" d="M772.27,804.31a41.56,41.56,0,0,1,40.14,52.33l-2.27,8.51,8.75-1a43,43,0,0,1,4.78-.27,41.56,41.56,0,1,1-8.82,82.17l-7.27-1.57v63H658.65V944.67l-7.2,1.47a41.56,41.56,0,1,1-8.4-82.26,42,42,0,0,1,4.34.22l8.66.9-2.24-8.41a41.56,41.56,0,0,1,74.37-34.31l4.94,7.14,4.93-7.14a41.62,41.62,0,0,1,34.22-18m0-6a47.49,47.49,0,0,0-39.15,20.56A47.57,47.57,0,0,0,648,858.13c-1.63-.16-3.29-.25-5-.25a47.56,47.56,0,1,0,9.6,94.14v61.5H813.58v-61.6a47.56,47.56,0,1,0,10.09-94,49.13,49.13,0,0,0-5.46.31,47.57,47.57,0,0,0-45.94-59.88Z" transform="translate(-29.26 107.02)"/>
  <path class="cls-1" d="M733.36,890.78a40.6,40.6,0,1,1-40.6,40.6,40.64,40.64,0,0,1,40.6-40.6m0-6A46.6,46.6,0,1,0,780,931.38a46.6,46.6,0,0,0-46.59-46.6Z" transform="translate(-29.26 107.02)"/>
  <path class="cls-1" d="M643.05,880.21A24.75,24.75,0,1,1,618.3,905a24.77,24.77,0,0,1,24.75-24.74m0-6A30.75,30.75,0,1,0,673.79,905a30.75,30.75,0,0,0-30.74-30.74Z" transform="translate(-29.26 107.02)"/>
  <path class="cls-1" d="M694,821.12a24.75,24.75,0,1,1-24.75,24.75A24.77,24.77,0,0,1,694,821.12m0-6a30.75,30.75,0,1,0,30.74,30.75A30.75,30.75,0,0,0,694,815.12Z" transform="translate(-29.26 107.02)"/>
  <path class="cls-1" d="M772.27,821.12a24.75,24.75,0,1,1-24.75,24.75,24.77,24.77,0,0,1,24.75-24.75m0-6A30.75,30.75,0,1,0,803,845.87a30.75,30.75,0,0,0-30.74-30.75Z" transform="translate(-29.26 107.02)"/>
  <path class="cls-1" d="M823.19,880.69a24.75,24.75,0,1,1-24.75,24.75,24.77,24.77,0,0,1,24.75-24.75m0-6a30.75,30.75,0,1,0,30.74,30.75,30.75,30.75,0,0,0-30.74-30.75Z" transform="translate(-29.26 107.02)"/>
  <path class="cls-1" d="M741.22,902.79c2.37,0,4.3,1.59,4.3,3.55a3.28,3.28,0,0,1-1.25,2.49l-.26.22-.23.25-10.64,11.25-10.55-11-.31-.32-.36-.28a3.34,3.34,0,0,1-1.38-2.6c0-2,1.93-3.55,4.3-3.55a4.63,4.63,0,0,1,3.56,1.57L733,910l4.63-5.61a4.63,4.63,0,0,1,3.56-1.57m0-6a10.58,10.58,0,0,0-8.19,3.75,10.58,10.58,0,0,0-8.19-3.75c-5.69,0-10.3,4.28-10.3,9.55a9.28,9.28,0,0,0,3.72,7.35l14.91,15.56,15-15.83a9.23,9.23,0,0,0,3.38-7.08c0-5.27-4.61-9.55-10.3-9.55Z" transform="translate(-29.26 107.02)"/>
  <path class="cls-1" d="M757.15,919.05c1.73,0,3.18,2,3.18,4.31a4.79,4.79,0,0,1-1.51,3.63l-5.3,4.55,5.3,4.55a4.81,4.81,0,0,1,1.51,3.64c0,2.33-1.45,4.3-3.18,4.3a2.86,2.86,0,0,1-2.13-1.15l-.21-.27-.25-.23-10.89-10.73L754.33,921l.32-.32.26-.36a2.93,2.93,0,0,1,2.24-1.29m0-6a8.82,8.82,0,0,0-7.06,3.72l-14.94,14.91,15.2,15a8.75,8.75,0,0,0,6.8,3.38c5.07,0,9.18-4.61,9.18-10.3a10.78,10.78,0,0,0-3.6-8.19,10.76,10.76,0,0,0,3.6-8.18c0-5.69-4.11-10.31-9.18-10.31Z" transform="translate(-29.26 107.02)"/>
  <path class="cls-1" d="M733.19,942.82l10.64,10.66.31.32.36.26a2.91,2.91,0,0,1,1.3,2.24c0,1.73-2,3.18-4.31,3.18a4.78,4.78,0,0,1-3.63-1.51l-4.55-5.3-4.56,5.3a4.78,4.78,0,0,1-3.63,1.51c-2.33,0-4.3-1.45-4.3-3.18a2.86,2.86,0,0,1,1.15-2.13l.26-.21.24-.25,10.72-10.89m0-8.52-15,15.21a8.71,8.71,0,0,0-3.38,6.79c0,5.07,4.61,9.18,10.3,9.18a10.78,10.78,0,0,0,8.19-3.6,10.74,10.74,0,0,0,8.18,3.6c5.69,0,10.31-4.11,10.31-9.18a8.82,8.82,0,0,0-3.72-7.06L733.17,934.3Z" transform="translate(-29.26 107.02)"/>
  <path class="cls-1" d="M708.55,919.34a2.86,2.86,0,0,1,2.13,1.15l.21.26.24.24L722,931.71l-10.66,10.64-.32.31-.27.36a2.89,2.89,0,0,1-2.23,1.29c-1.73,0-3.18-2-3.18-4.3a4.78,4.78,0,0,1,1.51-3.63l5.3-4.56-5.3-4.55a4.78,4.78,0,0,1-1.51-3.63c0-2.33,1.45-4.3,3.18-4.3m0-6c-5.07,0-9.18,4.61-9.18,10.3a10.74,10.74,0,0,0,3.6,8.18,10.78,10.78,0,0,0-3.6,8.19c0,5.69,4.11,10.3,9.18,10.3a8.81,8.81,0,0,0,7.06-3.72l14.94-14.91-15.21-15a8.73,8.73,0,0,0-6.79-3.38Z" transform="translate(-29.26 107.02)"/>
  <path class="cls-1" d="M491.2,665.31a41.59,41.59,0,0,1,40.15,52.33l-2.28,8.52,8.76-1a40.41,40.41,0,0,1,4.77-.28,41.56,41.56,0,0,1,0,83.12,42.15,42.15,0,0,1-8.82-.94l-7.26-1.57v63H377.59V805.67l-7.21,1.48a42.07,42.07,0,0,1-8.4.85,41.56,41.56,0,0,1,0-83.12,42.06,42.06,0,0,1,4.34.23L375,726l-2.24-8.41a41.57,41.57,0,0,1,74.38-34.31l4.93,7.14,4.94-7.14a41.59,41.59,0,0,1,34.21-18m0-6a47.51,47.51,0,0,0-39.15,20.56,47.57,47.57,0,0,0-85.11,39.27A47.56,47.56,0,1,0,371.59,813v61.5H532.52v-61.6a47.56,47.56,0,1,0,10.08-94,49.08,49.08,0,0,0-5.45.31,47.6,47.6,0,0,0-45.95-59.88Z" transform="translate(-29.26 107.02)"/>
  <path class="cls-1" d="M452.29,751.78a40.6,40.6,0,1,1-40.59,40.6,40.64,40.64,0,0,1,40.59-40.6m0-6a46.6,46.6,0,1,0,46.6,46.6,46.59,46.59,0,0,0-46.6-46.6Z" transform="translate(-29.26 107.02)"/>
  <path class="cls-1" d="M362,741.21A24.75,24.75,0,1,1,337.24,766,24.78,24.78,0,0,1,362,741.21m0-6A30.75,30.75,0,1,0,392.73,766,30.74,30.74,0,0,0,362,735.21Z" transform="translate(-29.26 107.02)"/>
  <path class="cls-1" d="M412.9,682.13a24.75,24.75,0,1,1-24.74,24.74,24.77,24.77,0,0,1,24.74-24.74m0-6a30.75,30.75,0,1,0,30.75,30.74,30.74,30.74,0,0,0-30.75-30.74Z" transform="translate(-29.26 107.02)"/>
  <path class="cls-1" d="M491.2,682.13a24.75,24.75,0,1,1-24.74,24.74,24.77,24.77,0,0,1,24.74-24.74m0-6A30.75,30.75,0,1,0,522,706.87a30.74,30.74,0,0,0-30.75-30.74Z" transform="translate(-29.26 107.02)"/>
  <path class="cls-1" d="M542.12,741.69a24.75,24.75,0,1,1-24.74,24.75,24.77,24.77,0,0,1,24.74-24.75m0-6a30.75,30.75,0,1,0,30.75,30.75,30.74,30.74,0,0,0-30.75-30.75Z" transform="translate(-29.26 107.02)"/>
  <path class="cls-1" d="M460.15,763.79c2.37,0,4.3,1.6,4.3,3.56a3.3,3.3,0,0,1-1.24,2.48l-.26.22-.24.25-10.63,11.25-10.55-11-.31-.32-.36-.28a3.29,3.29,0,0,1-1.38-2.59c0-2,1.93-3.56,4.3-3.56a4.66,4.66,0,0,1,3.56,1.57L452,771l4.63-5.61a4.66,4.66,0,0,1,3.56-1.57m0-6a10.57,10.57,0,0,0-8.19,3.76,10.54,10.54,0,0,0-8.18-3.76c-5.69,0-10.3,4.28-10.3,9.56a9.3,9.3,0,0,0,3.71,7.35l14.92,15.55,15-15.83a9.22,9.22,0,0,0,3.38-7.07c0-5.28-4.61-9.56-10.3-9.56Z" transform="translate(-29.26 107.02)"/>
  <path class="cls-1" d="M476.09,780.06c1.72,0,3.18,2,3.18,4.3a4.78,4.78,0,0,1-1.52,3.63l-5.3,4.56,5.3,4.55a4.78,4.78,0,0,1,1.52,3.63c0,2.33-1.46,4.3-3.18,4.3a2.86,2.86,0,0,1-2.14-1.15l-.21-.26-.24-.24-10.89-10.72L473.27,782l.31-.31.27-.36a2.91,2.91,0,0,1,2.24-1.29m0-6a8.78,8.78,0,0,0-7.06,3.72l-14.95,14.91,15.21,15a8.73,8.73,0,0,0,6.8,3.38c5.07,0,9.18-4.61,9.18-10.3a10.75,10.75,0,0,0-3.61-8.18,10.79,10.79,0,0,0,3.61-8.19c0-5.69-4.11-10.3-9.18-10.3Z" transform="translate(-29.26 107.02)"/>
  <path class="cls-1" d="M452.13,803.82l10.63,10.66.32.32.36.27a2.89,2.89,0,0,1,1.29,2.24c0,1.72-2,3.18-4.3,3.18a4.82,4.82,0,0,1-3.64-1.52l-4.55-5.3-4.55,5.3a4.8,4.8,0,0,1-3.63,1.52c-2.34,0-4.31-1.46-4.31-3.18a2.84,2.84,0,0,1,1.16-2.14l.26-.21.24-.24,10.72-10.9m0-8.52-15,15.21a8.76,8.76,0,0,0-3.38,6.8c0,5.07,4.62,9.18,10.31,9.18a10.77,10.77,0,0,0,8.18-3.61,10.77,10.77,0,0,0,8.19,3.61c5.69,0,10.3-4.11,10.3-9.18a8.81,8.81,0,0,0-3.72-7.06l-14.91-15Z" transform="translate(-29.26 107.02)"/>
  <path class="cls-1" d="M427.48,780.34a2.84,2.84,0,0,1,2.13,1.15l.22.27.24.23L441,792.72,430.3,803.35l-.31.32-.27.35a2.89,2.89,0,0,1-2.24,1.3c-1.72,0-3.18-2-3.18-4.31a4.78,4.78,0,0,1,1.52-3.63l5.3-4.55-5.3-4.55a4.82,4.82,0,0,1-1.52-3.64c0-2.33,1.46-4.3,3.18-4.3m0-6c-5.07,0-9.18,4.61-9.18,10.3a10.79,10.79,0,0,0,3.61,8.19A10.77,10.77,0,0,0,418.3,801c0,5.69,4.11,10.31,9.18,10.31a8.81,8.81,0,0,0,7.06-3.72l14.95-14.91-15.21-15a8.73,8.73,0,0,0-6.8-3.38Z" transform="translate(-29.26 107.02)"/>
  <path class="cls-1" d="M491.11-101a41.6,41.6,0,0,1,41.55,41.56,41.57,41.57,0,0,1-1.41,10.77L529-40.18l8.76-1a42.84,42.84,0,0,1,4.78-.28A41.62,41.62,0,0,1,584.07.1a41.61,41.61,0,0,1-41.56,41.56,42.08,42.08,0,0,1-8.82-.94l-7.27-1.57v63H377.49V39.33l-7.21,1.48a42.07,42.07,0,0,1-8.4.85A41.61,41.61,0,0,1,320.32.1a41.62,41.62,0,0,1,41.56-41.56,42.11,42.11,0,0,1,4.35.23l8.65.9-2.24-8.41a42,42,0,0,1-1.39-10.72A41.6,41.6,0,0,1,412.8-101,41.6,41.6,0,0,1,447-83L452-75.91,456.89-83a41.6,41.6,0,0,1,34.22-18m0-6A47.54,47.54,0,0,0,452-86.47,47.51,47.51,0,0,0,412.8-107a47.55,47.55,0,0,0-47.55,47.56,47.21,47.21,0,0,0,1.6,12.26,48.07,48.07,0,0,0-5-.26A47.57,47.57,0,0,0,314.32.1a47.56,47.56,0,0,0,47.56,47.56,47.53,47.53,0,0,0,9.61-1v61.5H532.42V46.58a47.26,47.26,0,0,0,10.09,1.08A47.56,47.56,0,0,0,590.07.1a47.57,47.57,0,0,0-47.56-47.56,46.82,46.82,0,0,0-5.46.32,47.67,47.67,0,0,0,1.61-12.32A47.55,47.55,0,0,0,491.11-107Z" transform="translate(-29.26 107.02)"/>
  <path class="cls-1" d="M452.2-14.55A40.6,40.6,0,1,1,411.6,26a40.64,40.64,0,0,1,40.6-40.59m0-6A46.6,46.6,0,1,0,498.79,26,46.59,46.59,0,0,0,452.2-20.55Z" transform="translate(-29.26 107.02)"/>
  <path class="cls-1" d="M361.88-25.12A24.77,24.77,0,0,1,386.63-.38a24.77,24.77,0,0,1-24.75,24.75A24.77,24.77,0,0,1,337.14-.38a24.77,24.77,0,0,1,24.74-24.74m0-6A30.74,30.74,0,0,0,331.14-.38a30.74,30.74,0,0,0,30.74,30.75A30.75,30.75,0,0,0,392.63-.38a30.74,30.74,0,0,0-30.75-30.74Z" transform="translate(-29.26 107.02)"/>
  <path class="cls-1" d="M412.8-84.21a24.77,24.77,0,0,1,24.75,24.75A24.77,24.77,0,0,1,412.8-34.72a24.77,24.77,0,0,1-24.74-24.74A24.77,24.77,0,0,1,412.8-84.21m0-6a30.74,30.74,0,0,0-30.74,30.75A30.74,30.74,0,0,0,412.8-28.72a30.75,30.75,0,0,0,30.75-30.74A30.75,30.75,0,0,0,412.8-90.21Z" transform="translate(-29.26 107.02)"/>
  <path class="cls-1" d="M491.11-84.21a24.77,24.77,0,0,1,24.74,24.75,24.77,24.77,0,0,1-24.74,24.74,24.77,24.77,0,0,1-24.75-24.74,24.77,24.77,0,0,1,24.75-24.75m0-6a30.75,30.75,0,0,0-30.75,30.75,30.75,30.75,0,0,0,30.75,30.74,30.74,30.74,0,0,0,30.74-30.74,30.74,30.74,0,0,0-30.74-30.75Z" transform="translate(-29.26 107.02)"/>
  <path class="cls-1" d="M542-24.64A24.77,24.77,0,0,1,566.77.1,24.77,24.77,0,0,1,542,24.85,24.77,24.77,0,0,1,517.28.1,24.77,24.77,0,0,1,542-24.64m0-6A30.74,30.74,0,0,0,511.28.1,30.75,30.75,0,0,0,542,30.85,30.74,30.74,0,0,0,572.77.1,30.74,30.74,0,0,0,542-30.64Z" transform="translate(-29.26 107.02)"/>
  <path class="cls-1" d="M460.05-2.54c2.38,0,4.31,1.59,4.31,3.55a3.3,3.3,0,0,1-1.25,2.49l-.26.22-.23.25L452,15.22l-10.55-11-.31-.33-.36-.27A3.36,3.36,0,0,1,439.38,1c0-2,1.93-3.55,4.3-3.55A4.59,4.59,0,0,1,447.24-1l4.63,5.61L456.5-1a4.59,4.59,0,0,1,3.55-1.57m0-6a10.58,10.58,0,0,0-8.18,3.75,10.6,10.6,0,0,0-8.19-3.75c-5.69,0-10.3,4.27-10.3,9.55a9.28,9.28,0,0,0,3.72,7.35L452,23.92,467,8.09A9.26,9.26,0,0,0,470.36,1c0-5.28-4.62-9.55-10.31-9.55Z" transform="translate(-29.26 107.02)"/>
  <path class="cls-1" d="M476,13.72c1.72,0,3.18,2,3.18,4.3a4.82,4.82,0,0,1-1.52,3.64l-5.3,4.55,5.3,4.55a4.82,4.82,0,0,1,1.52,3.64c0,2.33-1.46,4.3-3.18,4.3a2.86,2.86,0,0,1-2.13-1.15l-.22-.27L473.4,37,462.51,26.32l10.66-10.63.31-.32.27-.36A2.91,2.91,0,0,1,476,13.72m0-6a8.81,8.81,0,0,0-7.06,3.72L454,26.35l15.21,15A8.78,8.78,0,0,0,476,44.7c5.07,0,9.18-4.61,9.18-10.3a10.74,10.74,0,0,0-3.61-8.19A10.74,10.74,0,0,0,485.17,18c0-5.69-4.11-10.3-9.18-10.3Z" transform="translate(-29.26 107.02)"/>
  <path class="cls-1" d="M452,37.49l10.64,10.66.31.31.36.27A2.91,2.91,0,0,1,464.63,51c0,1.72-2,3.18-4.3,3.18a4.78,4.78,0,0,1-3.63-1.52l-4.56-5.3-4.55,5.3A4.78,4.78,0,0,1,444,54.15c-2.33,0-4.31-1.46-4.31-3.18a2.87,2.87,0,0,1,1.16-2.13l.26-.22.24-.24L452,37.49M452,29,437,44.17a8.78,8.78,0,0,0-3.38,6.8c0,5.07,4.62,9.18,10.31,9.18a10.72,10.72,0,0,0,8.18-3.61,10.75,10.75,0,0,0,8.19,3.61c5.69,0,10.3-4.11,10.3-9.18a8.78,8.78,0,0,0-3.72-7.06L452,29Z" transform="translate(-29.26 107.02)"/>
  <path class="cls-1" d="M427.38,14a2.87,2.87,0,0,1,2.14,1.16l.21.26.24.24,10.89,10.72L430.21,37l-.32.32-.27.36A2.89,2.89,0,0,1,427.38,39c-1.72,0-3.18-2-3.18-4.3A4.82,4.82,0,0,1,425.72,31l5.3-4.55-5.3-4.55a4.8,4.8,0,0,1-1.52-3.63c0-2.34,1.46-4.31,3.18-4.31m0-6c-5.07,0-9.18,4.62-9.18,10.31a10.77,10.77,0,0,0,3.61,8.18,10.77,10.77,0,0,0-3.61,8.19c0,5.69,4.11,10.3,9.18,10.3a8.81,8.81,0,0,0,7.06-3.72l14.95-14.91-15.21-15A8.76,8.76,0,0,0,427.38,8Z" transform="translate(-29.26 107.02)"/>
  <path class="cls-1" d="M491.24,155a41.59,41.59,0,0,1,40.14,52.33l-2.28,8.51,8.76-1a42.82,42.82,0,0,1,4.78-.27,41.56,41.56,0,1,1-8.82,82.17l-7.27-1.57v63H377.62V295.33l-7.21,1.48a42.06,42.06,0,0,1-8.4.84,41.56,41.56,0,1,1,0-83.11,42.1,42.1,0,0,1,4.35.22l8.65.9-2.24-8.41a41.57,41.57,0,0,1,74.38-34.31l4.93,7.14,4.94-7.14a41.62,41.62,0,0,1,34.22-18m0-6a47.53,47.53,0,0,0-39.16,20.56A47.57,47.57,0,0,0,367,208.8a48.07,48.07,0,0,0-5-.26,47.56,47.56,0,1,0,9.61,94.14v61.5H532.55v-61.6a47.56,47.56,0,1,0,10.09-94,49.13,49.13,0,0,0-5.46.31A47.6,47.6,0,0,0,491.24,149Z" transform="translate(-29.26 107.02)"/>
  <path class="cls-1" d="M452.33,241.44a40.6,40.6,0,1,1-40.6,40.6,40.64,40.64,0,0,1,40.6-40.6m0-6A46.6,46.6,0,1,0,498.92,282a46.6,46.6,0,0,0-46.59-46.6Z" transform="translate(-29.26 107.02)"/>
  <path class="cls-1" d="M362,230.87a24.75,24.75,0,1,1-24.74,24.75A24.77,24.77,0,0,1,362,230.87m0-6a30.75,30.75,0,1,0,30.75,30.75A30.74,30.74,0,0,0,362,224.87Z" transform="translate(-29.26 107.02)"/>
  <path class="cls-1" d="M412.93,171.78a24.75,24.75,0,1,1-24.74,24.75,24.77,24.77,0,0,1,24.74-24.75m0-6a30.75,30.75,0,1,0,30.75,30.75,30.74,30.74,0,0,0-30.75-30.75Z" transform="translate(-29.26 107.02)"/>
  <path class="cls-1" d="M491.24,171.78a24.75,24.75,0,1,1-24.75,24.75,24.77,24.77,0,0,1,24.75-24.75m0-6A30.75,30.75,0,1,0,522,196.53a30.75,30.75,0,0,0-30.74-30.75Z" transform="translate(-29.26 107.02)"/>
  <path class="cls-1" d="M542.16,231.35a24.75,24.75,0,1,1-24.75,24.75,24.77,24.77,0,0,1,24.75-24.75m0-6A30.75,30.75,0,1,0,572.9,256.1a30.75,30.75,0,0,0-30.74-30.75Z" transform="translate(-29.26 107.02)"/>
  <path class="cls-1" d="M460.18,253.45c2.38,0,4.31,1.59,4.31,3.56a3.27,3.27,0,0,1-1.25,2.48l-.26.22-.23.25-10.64,11.25-10.55-11-.31-.32-.36-.28a3.34,3.34,0,0,1-1.38-2.59c0-2,1.93-3.56,4.3-3.56a4.63,4.63,0,0,1,3.56,1.57l4.63,5.61,4.63-5.61a4.62,4.62,0,0,1,3.55-1.57m0-6a10.55,10.55,0,0,0-8.18,3.76,10.57,10.57,0,0,0-8.19-3.76c-5.69,0-10.3,4.28-10.3,9.56a9.27,9.27,0,0,0,3.72,7.34l14.91,15.56,15-15.83a9.26,9.26,0,0,0,3.38-7.07c0-5.28-4.62-9.56-10.31-9.56Z" transform="translate(-29.26 107.02)"/>
  <path class="cls-1" d="M476.12,269.71c1.72,0,3.18,2,3.18,4.31a4.78,4.78,0,0,1-1.52,3.63l-5.3,4.55,5.3,4.56a4.78,4.78,0,0,1,1.52,3.63c0,2.33-1.46,4.3-3.18,4.3a2.86,2.86,0,0,1-2.13-1.15l-.22-.26-.24-.24-10.89-10.72,10.66-10.64.31-.31.27-.36a2.89,2.89,0,0,1,2.24-1.3m0-6a8.81,8.81,0,0,0-7.06,3.72l-14.95,14.91,15.21,15a8.75,8.75,0,0,0,6.8,3.38c5.07,0,9.18-4.61,9.18-10.3a10.75,10.75,0,0,0-3.61-8.19A10.72,10.72,0,0,0,485.3,274c0-5.69-4.11-10.31-9.18-10.31Z" transform="translate(-29.26 107.02)"/>
  <path class="cls-1" d="M452.16,293.48l10.64,10.66.31.32.36.27a2.89,2.89,0,0,1,1.29,2.23c0,1.73-2,3.18-4.3,3.18a4.78,4.78,0,0,1-3.63-1.51l-4.56-5.3-4.55,5.3a4.78,4.78,0,0,1-3.63,1.51c-2.33,0-4.31-1.45-4.31-3.18a2.87,2.87,0,0,1,1.16-2.13l.26-.21.24-.24,10.72-10.9m0-8.52-15,15.21a8.76,8.76,0,0,0-3.38,6.79c0,5.07,4.62,9.18,10.31,9.18a10.74,10.74,0,0,0,8.18-3.6,10.78,10.78,0,0,0,8.19,3.6c5.69,0,10.3-4.11,10.3-9.18A8.81,8.81,0,0,0,467,299.9L452.13,285Z" transform="translate(-29.26 107.02)"/>
  <path class="cls-1" d="M427.51,270a2.86,2.86,0,0,1,2.14,1.15l.21.26.24.24L441,282.37,430.34,293l-.32.31-.27.36a2.89,2.89,0,0,1-2.24,1.3c-1.72,0-3.18-2-3.18-4.31a4.78,4.78,0,0,1,1.52-3.63l5.3-4.55-5.3-4.56a4.78,4.78,0,0,1-1.52-3.63c0-2.33,1.46-4.3,3.18-4.3m0-6c-5.07,0-9.18,4.61-9.18,10.3a10.79,10.79,0,0,0,3.61,8.19,10.75,10.75,0,0,0-3.61,8.18c0,5.69,4.11,10.31,9.18,10.31a8.81,8.81,0,0,0,7.06-3.72l14.95-14.92-15.21-15a8.73,8.73,0,0,0-6.8-3.38Z" transform="translate(-29.26 107.02)"/>
</svg>
