<svg id="Слой_7" data-name="Слой 7" xmlns="http://www.w3.org/2000/svg" viewBox="0 0 841.77 269">
  <defs>
    <style>
      .cls-1 {
        fill: #bcffbb;
      }
    </style>
  </defs>
  <path class="cls-1" d="M268,425.2a41.59,41.59,0,0,1,40.15,52.33l-2.28,8.52,8.76-1a40.45,40.45,0,0,1,4.78-.28,41.56,41.56,0,0,1,0,83.12,42.17,42.17,0,0,1-8.83-.94l-7.26-1.57v63H154.4V565.56L147.19,567a42.07,42.07,0,0,1-8.4.85,41.56,41.56,0,1,1,0-83.12,42.25,42.25,0,0,1,4.35.23l8.65.89-2.24-8.41a41.57,41.57,0,0,1,74.38-34.31l4.93,7.15,4.94-7.15a41.59,41.59,0,0,1,34.21-18m0-6a47.51,47.51,0,0,0-39.15,20.56A47.57,47.57,0,0,0,143.75,479a47.56,47.56,0,1,0-5,94.86,48.26,48.26,0,0,0,9.61-1v61.5H309.33V572.81a47.56,47.56,0,1,0,10.09-94,49.13,49.13,0,0,0-5.46.31A47.6,47.6,0,0,0,268,419.2Z" transform="translate(-91.23 -403)"/>
  <path class="cls-1" d="M229.1,511.67a40.6,40.6,0,1,1-40.59,40.6,40.64,40.64,0,0,1,40.59-40.6m0-6a46.6,46.6,0,1,0,46.6,46.6,46.59,46.59,0,0,0-46.6-46.6Z" transform="translate(-91.23 -403)"/>
  <path class="cls-1" d="M138.79,501.1a24.75,24.75,0,1,1-24.74,24.75,24.77,24.77,0,0,1,24.74-24.75m0-6a30.75,30.75,0,1,0,30.75,30.75,30.74,30.74,0,0,0-30.75-30.75Z" transform="translate(-91.23 -403)"/>
  <path class="cls-1" d="M189.71,442A24.75,24.75,0,1,1,165,466.76,24.77,24.77,0,0,1,189.71,442m0-6a30.75,30.75,0,1,0,30.75,30.74A30.74,30.74,0,0,0,189.71,436Z" transform="translate(-91.23 -403)"/>
  <path class="cls-1" d="M268,442a24.75,24.75,0,1,1-24.74,24.74A24.77,24.77,0,0,1,268,442m0-6a30.75,30.75,0,1,0,30.75,30.74A30.74,30.74,0,0,0,268,436Z" transform="translate(-91.23 -403)"/>
  <path class="cls-1" d="M318.94,501.58a24.75,24.75,0,1,1-24.75,24.75,24.77,24.77,0,0,1,24.75-24.75m0-6a30.75,30.75,0,1,0,30.74,30.75,30.75,30.75,0,0,0-30.74-30.75Z" transform="translate(-91.23 -403)"/>
  <path class="cls-1" d="M237,523.68c2.37,0,4.31,1.6,4.31,3.56a3.27,3.27,0,0,1-1.25,2.48l-.26.22-.23.25-10.64,11.25-10.55-11-.31-.32-.36-.27a3.33,3.33,0,0,1-1.38-2.6c0-2,1.93-3.56,4.3-3.56a4.63,4.63,0,0,1,3.56,1.58l4.63,5.61,4.62-5.61a4.63,4.63,0,0,1,3.56-1.58m0-6a10.57,10.57,0,0,0-8.18,3.76,10.61,10.61,0,0,0-8.19-3.76c-5.69,0-10.3,4.28-10.3,9.56a9.28,9.28,0,0,0,3.72,7.35l14.91,15.55,15-15.83a9.24,9.24,0,0,0,3.38-7.07c0-5.28-4.62-9.56-10.31-9.56Z" transform="translate(-91.23 -403)"/>
  <path class="cls-1" d="M252.9,540c1.72,0,3.18,2,3.18,4.3a4.78,4.78,0,0,1-1.52,3.63l-5.3,4.56,5.3,4.55a4.78,4.78,0,0,1,1.52,3.63c0,2.33-1.46,4.3-3.18,4.3a2.82,2.82,0,0,1-2.13-1.15l-.22-.26-.24-.24-10.89-10.72,10.66-10.64.31-.31.27-.36A2.91,2.91,0,0,1,252.9,540m0-6a8.78,8.78,0,0,0-7.06,3.72l-15,14.91,15.21,15a8.75,8.75,0,0,0,6.8,3.37c5.07,0,9.18-4.61,9.18-10.3a10.75,10.75,0,0,0-3.61-8.18,10.79,10.79,0,0,0,3.61-8.19c0-5.69-4.11-10.3-9.18-10.3Z" transform="translate(-91.23 -403)"/>
  <path class="cls-1" d="M228.94,563.72l10.64,10.65.31.32.36.27a2.89,2.89,0,0,1,1.29,2.24c0,1.72-2,3.18-4.3,3.18a4.82,4.82,0,0,1-3.64-1.52l-4.55-5.3-4.55,5.3a4.78,4.78,0,0,1-3.63,1.52c-2.34,0-4.31-1.46-4.31-3.18a2.87,2.87,0,0,1,1.16-2.14l.26-.21.24-.24,10.72-10.89m0-8.53-15,15.21a8.76,8.76,0,0,0-3.38,6.8c0,5.07,4.62,9.18,10.31,9.18a10.77,10.77,0,0,0,8.18-3.61,10.79,10.79,0,0,0,8.19,3.61c5.69,0,10.3-4.11,10.3-9.18a8.81,8.81,0,0,0-3.72-7.06l-14.91-14.95Z" transform="translate(-91.23 -403)"/>
  <path class="cls-1" d="M204.29,540.23a2.82,2.82,0,0,1,2.13,1.15l.22.27.24.24,10.89,10.72-10.66,10.63-.31.32-.27.36a2.91,2.91,0,0,1-2.24,1.29c-1.72,0-3.18-2-3.18-4.31a4.8,4.8,0,0,1,1.52-3.63l5.3-4.55-5.3-4.55a4.82,4.82,0,0,1-1.52-3.64,5,5,0,0,1,1.17-3.29,2.74,2.74,0,0,1,2-1h0m0-6c-5.07,0-9.18,4.61-9.18,10.3a10.77,10.77,0,0,0,3.61,8.19,10.77,10.77,0,0,0-3.61,8.18c0,5.69,4.11,10.31,9.18,10.31a8.81,8.81,0,0,0,7.06-3.72l15-14.91-15.21-15a8.73,8.73,0,0,0-6.8-3.38Z" transform="translate(-91.23 -403)"/>
  <path class="cls-1" d="M834.05,424.74a41.56,41.56,0,0,1,40.14,52.33l-2.27,8.52,8.75-1a42.82,42.82,0,0,1,4.78-.27,41.56,41.56,0,1,1-8.82,82.17l-7.27-1.56v63H720.43V565.1l-7.2,1.48a42.24,42.24,0,0,1-8.41.85,41.56,41.56,0,0,1,0-83.12c1.45,0,2.91.08,4.35.22l8.65.9L715.59,477A41.56,41.56,0,0,1,790,442.71l4.94,7.14,4.93-7.14a41.62,41.62,0,0,1,34.22-18m0-6A47.49,47.49,0,0,0,794.9,439.3a47.57,47.57,0,0,0-85.11,39.27,47.56,47.56,0,1,0,4.64,93.88V634H875.36v-61.6a47.56,47.56,0,1,0,10.09-94,49.13,49.13,0,0,0-5.46.31,47.57,47.57,0,0,0-45.94-59.88Z" transform="translate(-91.23 -403)"/>
  <path class="cls-1" d="M795.14,511.21a40.6,40.6,0,1,1-40.6,40.6,40.64,40.64,0,0,1,40.6-40.6m0-6a46.6,46.6,0,1,0,46.59,46.6,46.6,46.6,0,0,0-46.59-46.6Z" transform="translate(-91.23 -403)"/>
  <path class="cls-1" d="M704.82,500.64a24.75,24.75,0,1,1-24.74,24.75,24.77,24.77,0,0,1,24.74-24.75m0-6a30.75,30.75,0,1,0,30.75,30.75,30.74,30.74,0,0,0-30.75-30.75Z" transform="translate(-91.23 -403)"/>
  <path class="cls-1" d="M755.74,441.56A24.74,24.74,0,1,1,731,466.3a24.77,24.77,0,0,1,24.74-24.74m0-6a30.74,30.74,0,1,0,30.75,30.74,30.74,30.74,0,0,0-30.75-30.74Z" transform="translate(-91.23 -403)"/>
  <path class="cls-1" d="M834.05,441.56A24.74,24.74,0,1,1,809.3,466.3a24.77,24.77,0,0,1,24.75-24.74m0-6a30.74,30.74,0,1,0,30.74,30.74,30.74,30.74,0,0,0-30.74-30.74Z" transform="translate(-91.23 -403)"/>
  <path class="cls-1" d="M885,501.12a24.75,24.75,0,1,1-24.75,24.75A24.77,24.77,0,0,1,885,501.12m0-6a30.75,30.75,0,1,0,30.74,30.75A30.75,30.75,0,0,0,885,495.12Z" transform="translate(-91.23 -403)"/>
  <path class="cls-1" d="M803,523.22c2.38,0,4.31,1.6,4.31,3.56a3.27,3.27,0,0,1-1.25,2.48l-.26.22-.23.25L794.92,541l-10.55-11-.31-.32-.36-.28a3.32,3.32,0,0,1-1.38-2.59c0-2,1.93-3.56,4.3-3.56a4.63,4.63,0,0,1,3.56,1.57l4.63,5.61,4.63-5.61a4.62,4.62,0,0,1,3.55-1.57m0-6a10.55,10.55,0,0,0-8.18,3.76,10.56,10.56,0,0,0-8.19-3.76c-5.69,0-10.3,4.28-10.3,9.56a9.27,9.27,0,0,0,3.72,7.34L795,549.68l15-15.83a9.26,9.26,0,0,0,3.38-7.07c0-5.28-4.62-9.56-10.31-9.56Z" transform="translate(-91.23 -403)"/>
  <path class="cls-1" d="M818.93,539.49c1.73,0,3.18,2,3.18,4.3a4.78,4.78,0,0,1-1.52,3.63l-5.3,4.55,5.3,4.56a4.78,4.78,0,0,1,1.52,3.63c0,2.33-1.45,4.3-3.18,4.3a2.86,2.86,0,0,1-2.13-1.15l-.22-.26-.24-.24-10.89-10.72,10.66-10.64.32-.31.26-.36a2.9,2.9,0,0,1,2.24-1.29m0-6a8.81,8.81,0,0,0-7.06,3.71l-14.94,14.92,15.2,15a8.75,8.75,0,0,0,6.8,3.38c5.07,0,9.18-4.61,9.18-10.3A10.75,10.75,0,0,0,824.5,552a10.72,10.72,0,0,0,3.61-8.18c0-5.69-4.11-10.3-9.18-10.3Z" transform="translate(-91.23 -403)"/>
  <path class="cls-1" d="M795,563.25l10.64,10.66.31.32.36.27a2.87,2.87,0,0,1,1.29,2.24c0,1.72-2,3.18-4.3,3.18a4.78,4.78,0,0,1-3.63-1.52l-4.55-5.3-4.56,5.3a4.78,4.78,0,0,1-3.63,1.52c-2.33,0-4.3-1.46-4.3-3.18a2.86,2.86,0,0,1,1.15-2.14l.26-.21.24-.24L795,563.25m0-8.52-15,15.21a8.73,8.73,0,0,0-3.38,6.8c0,5.07,4.61,9.18,10.3,9.18a10.79,10.79,0,0,0,8.19-3.61,10.75,10.75,0,0,0,8.18,3.61c5.69,0,10.3-4.11,10.3-9.18a8.8,8.8,0,0,0-3.71-7.06l-14.92-14.95Z" transform="translate(-91.23 -403)"/>
  <path class="cls-1" d="M770.32,539.77a2.86,2.86,0,0,1,2.14,1.15l.21.27.24.23,10.9,10.72-10.66,10.64-.32.31-.27.36a2.87,2.87,0,0,1-2.24,1.3c-1.72,0-3.18-2-3.18-4.31a4.78,4.78,0,0,1,1.52-3.63l5.3-4.55-5.3-4.56a4.78,4.78,0,0,1-1.52-3.63c0-2.33,1.46-4.3,3.18-4.3m0-6c-5.07,0-9.18,4.61-9.18,10.3a10.79,10.79,0,0,0,3.61,8.19,10.75,10.75,0,0,0-3.61,8.18c0,5.69,4.11,10.31,9.18,10.31a8.81,8.81,0,0,0,7.06-3.72l15-14.91-15.21-15a8.73,8.73,0,0,0-6.8-3.38Z" transform="translate(-91.23 -403)"/>
  <g>
    <path class="cls-1" d="M384.25,656.88a41.6,41.6,0,0,1,41.56-41.56,42.06,42.06,0,0,1,4.34.23l8.66.89L436.57,608a41.56,41.56,0,0,1,74.37-34.31l4.94,7.15,4.94-7.15a41.57,41.57,0,0,1,74.36,34.36l-2.28,8.52,8.75-1a40.7,40.7,0,0,1,4.78-.28A41.53,41.53,0,0,1,645.13,672h6.39a47.55,47.55,0,0,0-45.09-62.68,47,47,0,0,0-5.46.32,47.56,47.56,0,0,0-85.09-39.33,47.57,47.57,0,0,0-85.11,39.27,47.55,47.55,0,0,0-50,62.42h6.39A41.32,41.32,0,0,1,384.25,656.88Z" transform="translate(-91.23 -403)"/>
    <path class="cls-1" d="M516.12,642.22A40.66,40.66,0,0,1,555.24,672h6.2a46.59,46.59,0,0,0-90.64,0H477A40.66,40.66,0,0,1,516.12,642.22Z" transform="translate(-91.23 -403)"/>
    <path class="cls-1" d="M401.06,656.4A24.75,24.75,0,1,1,445,672h7.3a30.75,30.75,0,1,0-53,0h7.3A24.63,24.63,0,0,1,401.06,656.4Z" transform="translate(-91.23 -403)"/>
    <path class="cls-1" d="M476.73,566.57a30.75,30.75,0,1,0,30.74,30.74A30.74,30.74,0,0,0,476.73,566.57Zm0,55.49a24.75,24.75,0,1,1,24.74-24.75A24.77,24.77,0,0,1,476.73,622.06Z" transform="translate(-91.23 -403)"/>
    <path class="cls-1" d="M555,566.57a30.75,30.75,0,1,0,30.75,30.74A30.74,30.74,0,0,0,555,566.57Zm0,55.49a24.75,24.75,0,1,1,24.75-24.75A24.77,24.77,0,0,1,555,622.06Z" transform="translate(-91.23 -403)"/>
    <path class="cls-1" d="M581.21,656.88A24.75,24.75,0,1,1,625.52,672h7.2a30.75,30.75,0,1,0-53.53,0h7.19A24.61,24.61,0,0,1,581.21,656.88Z" transform="translate(-91.23 -403)"/>
    <path class="cls-1" d="M530.9,664.86a9.21,9.21,0,0,0,3.38-7.07c0-5.28-4.61-9.56-10.3-9.56a10.61,10.61,0,0,0-8.19,3.76,10.58,10.58,0,0,0-8.18-3.76c-5.69,0-10.31,4.28-10.31,9.56a9.31,9.31,0,0,0,3.72,7.35L507.6,672h16.55ZM505,660.66l-.35-.27a3.34,3.34,0,0,1-1.39-2.6c0-2,1.93-3.56,4.31-3.56a4.59,4.59,0,0,1,3.55,1.58l4.63,5.61,4.63-5.61a4.6,4.6,0,0,1,3.56-1.58c2.37,0,4.3,1.6,4.3,3.56a3.3,3.3,0,0,1-1.24,2.48l-.26.22-.24.25L515.9,672l-10.55-11Z" transform="translate(-91.23 -403)"/>
    <path class="cls-1" d="M537.68,671.79a2.89,2.89,0,0,1,2.24-1.29,2.93,2.93,0,0,1,2.37,1.5h6.45c-1.09-4.33-4.62-7.5-8.82-7.5a8.78,8.78,0,0,0-7.06,3.72l-3.8,3.78h8.46Z" transform="translate(-91.23 -403)"/>
    <path class="cls-1" d="M491.31,670.78a2.86,2.86,0,0,1,2.13,1.15l.06.07H502l-3.9-3.84a8.75,8.75,0,0,0-6.8-3.38c-4.12,0-7.6,3-8.76,7.22h6.57A2.82,2.82,0,0,1,491.31,670.78Z" transform="translate(-91.23 -403)"/>
  </g>
  <g>
    <path class="cls-1" d="M554.64,413.37A40.6,40.6,0,1,1,474.79,403h-6.18a47.22,47.22,0,0,0-1.17,10.37,46.6,46.6,0,1,0,92-10.37h-6.17A40.78,40.78,0,0,1,554.64,413.37Z" transform="translate(-91.23 -403)"/>
    <path class="cls-1" d="M423.73,411.69A24.66,24.66,0,0,1,404.92,403H397.5A30.75,30.75,0,0,0,450,403h-7.41A24.69,24.69,0,0,1,423.73,411.69Z" transform="translate(-91.23 -403)"/>
    <path class="cls-1" d="M603.87,412.17A24.7,24.7,0,0,1,584.66,403h-7.3a30.75,30.75,0,0,0,53,0h-7.3A24.7,24.7,0,0,1,603.87,412.17Z" transform="translate(-91.23 -403)"/>
    <polygon class="cls-1" points="422.62 8.24 430.42 0 414.72 0 422.62 8.24"/>
    <path class="cls-1" d="M541,405.35A4.81,4.81,0,0,1,539.5,409l-5.3,4.55,5.3,4.55a4.78,4.78,0,0,1,1.51,3.63c0,2.34-1.45,4.31-3.18,4.31a2.87,2.87,0,0,1-2.13-1.16l-.21-.26-.25-.24-10.89-10.72L535,403h-8.48l-10.7,10.68,15.21,15a8.76,8.76,0,0,0,6.79,3.38c5.07,0,9.18-4.62,9.18-10.31a10.76,10.76,0,0,0-3.6-8.18,10.78,10.78,0,0,0,3.6-8.19,11.35,11.35,0,0,0-.25-2.35h-6.28A5.41,5.41,0,0,1,541,405.35Z" transform="translate(-91.23 -403)"/>
    <path class="cls-1" d="M505.8,447.48a10.79,10.79,0,0,0,8.19-3.61,10.77,10.77,0,0,0,8.18,3.61c5.69,0,10.31-4.11,10.31-9.18a8.81,8.81,0,0,0-3.72-7.06l-14.91-14.95-15,15.21a8.73,8.73,0,0,0-3.38,6.8C495.5,443.37,500.11,447.48,505.8,447.48Zm-3.15-11.31.27-.22.23-.24,10.73-10.89,10.63,10.66.32.31.36.27a2.91,2.91,0,0,1,1.29,2.24c0,1.72-2,3.18-4.31,3.18a4.8,4.8,0,0,1-3.63-1.52l-4.55-5.3-4.55,5.3a4.82,4.82,0,0,1-3.64,1.52c-2.33,0-4.3-1.46-4.3-3.18A2.82,2.82,0,0,1,502.65,436.17Z" transform="translate(-91.23 -403)"/>
    <path class="cls-1" d="M502.71,413.71l-10.66,10.63-.32.32-.26.36a2.93,2.93,0,0,1-2.24,1.29,2.74,2.74,0,0,1-2-1,4.93,4.93,0,0,1-1.17-3.29,4.81,4.81,0,0,1,1.51-3.64l5.3-4.55-5.3-4.55a4.81,4.81,0,0,1-1.51-3.64,5.26,5.26,0,0,1,.7-2.63h-6.39a11.34,11.34,0,0,0-.31,2.63,10.76,10.76,0,0,0,3.6,8.19,10.76,10.76,0,0,0-3.6,8.19c0,5.69,4.11,10.3,9.18,10.3a8.82,8.82,0,0,0,7.06-3.72l14.94-14.91L500.38,403h-8.55Z" transform="translate(-91.23 -403)"/>
    <path class="cls-1" d="M604.43,429.44a42.15,42.15,0,0,1-8.82-.94l-7.27-1.57v63H439.42V427.11l-7.21,1.48a42.14,42.14,0,0,1-8.4.85A41.62,41.62,0,0,1,385.11,403h-6.39a47.57,47.57,0,0,0,45.09,32.44,48.34,48.34,0,0,0,9.61-1V496H594.34V434.36A47.57,47.57,0,0,0,649.52,403h-6.39A41.62,41.62,0,0,1,604.43,429.44Z" transform="translate(-91.23 -403)"/>
  </g>
</svg>
