<svg id="Слой_6" data-name="Слой 6" xmlns="http://www.w3.org/2000/svg" viewBox="0 0 642.5 502.64">
  <defs>
    <style>
      .cls-1 {
        fill: #fff;
      }
    </style>
  </defs>
  <g id="птичка">
    <path class="cls-1" d="M761,729H402.78C293.17,729,204,639.83,204,530.22V385.68c0-40.6,23.3-75.47,60.81-91s78.65-7.36,107.36,21.35l395.9,395.91A10,10,0,0,1,761,729ZM303,307a79.71,79.71,0,0,0-30.55,6.18C242.57,325.53,224,353.32,224,385.68V530.22C224,628.8,304.2,709,402.78,709H736.86L358,330.17A77.39,77.39,0,0,0,303,307Z" transform="translate(-161.5 -286.92)"/>
    <path class="cls-1" d="M459,729a10,10,0,0,1-9.7-7.62c-18.16-74.13-62-121.55-130.39-141-51.9-14.74-99.28-7.13-99.75-7a10,10,0,0,1-3.31-19.73c2.08-.35,51.69-8.41,107.81,7.34,33.28,9.34,61.88,25.14,85,47,28.86,27.23,49.06,63.8,60,108.67a10,10,0,0,1-7.33,12.09A9.83,9.83,0,0,1,459,729Z" transform="translate(-161.5 -286.92)"/>
    <path class="cls-1" d="M214,396.5H171.5a10,10,0,0,1,0-20H214a10,10,0,0,1,0,20Z" transform="translate(-161.5 -286.92)"/>
    <path class="cls-1" d="M285.19,402.09c-10.9,0-19.44-11.66-19.44-26.54S274.29,349,285.19,349s19.45,11.66,19.45,26.55S296.1,402.09,285.19,402.09Zm0-41.53c-3.72,0-7.88,6.41-7.88,15s4.16,15,7.88,15,7.89-6.41,7.89-15S288.92,360.56,285.19,360.56Z" transform="translate(-161.5 -286.92)"/>
    <path class="cls-1" d="M632,600a10,10,0,0,1-2.84-19.59l132.36-39.26L466.76,437.51a10,10,0,0,1,6.64-18.86L797.32,532.57a10,10,0,0,1-.48,19l-162,48A10,10,0,0,1,632,600Z" transform="translate(-161.5 -286.92)"/>
    <path class="cls-1" d="M499.84,789.56a10,10,0,0,1-10-10V719a10,10,0,0,1,20,0v60.56A10,10,0,0,1,499.84,789.56Z" transform="translate(-161.5 -286.92)"/>
    <path class="cls-1" d="M545.2,789.56a10,10,0,0,1-10-10V719.5a10,10,0,0,1,20,0v60.06A10,10,0,0,1,545.2,789.56Z" transform="translate(-161.5 -286.92)"/>
    <path class="cls-1" d="M597,789.56H455.56a10,10,0,1,1,0-20H597a10,10,0,0,1,0,20Z" transform="translate(-161.5 -286.92)"/>
  </g>
</svg>
