<svg id="Слой_6" data-name="Слой 6" xmlns="http://www.w3.org/2000/svg" viewBox="0 0 664.41 499.84">
  <defs>
    <style>
      .cls-1 {
        fill: #fff;
      }
    </style>
  </defs>
  <g id="кошка">
    <path class="cls-1" d="M532.25,719.5c-68.81,0-133.54-24.65-182.27-69.42-49-45-76-104.92-76-168.7s27-123.7,76-168.71c48.73-44.77,113.46-69.42,182.27-69.42s133.54,24.65,182.27,69.42c49,45,76,104.92,76,168.71s-27,123.69-76,168.7C665.79,694.85,601.06,719.5,532.25,719.5Zm0-454.25C402,265.25,296,362.2,296,481.38S402,697.5,532.25,697.5s236.25-97,236.25-216.12S662.52,265.25,532.25,265.25Z" transform="translate(-201.56 -219.66)"/>
    <path class="cls-1" d="M284.84,483.13a10.94,10.94,0,0,1-7.06-2.57c-36.1-30.29-59.81-81.71-70.47-152.83A516.2,516.2,0,0,1,202,231a11,11,0,0,1,9.85-10.3c1.25-.13,31.07-3.12,71.25,1.67,37.36,4.46,91,16.82,134.52,50.41a11,11,0,1,1-13.44,17.41c-62.93-48.58-151.53-49.4-180.5-48.2-.55,36.54,2.36,166.41,68.26,221.72a11,11,0,0,1-7.08,19.42Z" transform="translate(-201.56 -219.66)"/>
    <path class="cls-1" d="M531.61,560.73a11,11,0,0,1-6.05-1.81c-.35-.23-8.67-5.72-17.14-12.12C492.78,535,487.5,528.57,487.5,521.45c0-19.32,19.38-34.45,44.11-34.45s44.11,15.13,44.11,34.45c0,7.12-5.28,13.52-20.92,25.35-8.47,6.4-16.79,11.89-17.14,12.12A11,11,0,0,1,531.61,560.73Zm-21.71-41.4c3.43,3.6,12.16,10.48,21.71,17.12,9.55-6.64,18.28-13.52,21.71-17.12-1.91-5.24-10.57-10.33-21.71-10.33S511.81,514.09,509.9,519.33Z" transform="translate(-201.56 -219.66)"/>
    <path class="cls-1" d="M461.5,465.5c-20.75,0-37-22.18-37-50.5s16.25-50.5,37-50.5,37,22.18,37,50.5S482.25,465.5,461.5,465.5Zm0-79c-7.08,0-15,12.19-15,28.5s7.92,28.5,15,28.5,15-12.19,15-28.5S468.58,386.5,461.5,386.5Z" transform="translate(-201.56 -219.66)"/>
    <path class="cls-1" d="M599.5,465.5c-20.75,0-37-22.18-37-50.5s16.25-50.5,37-50.5,37,22.18,37,50.5S620.25,465.5,599.5,465.5Zm0-79c-7.08,0-15,12.19-15,28.5s7.92,28.5,15,28.5,15-12.19,15-28.5S606.58,386.5,599.5,386.5Z" transform="translate(-201.56 -219.66)"/>
    <path class="cls-1" d="M574,618.72a11,11,0,0,1-8.5-4l-34.26-41.54L497,614.72a11,11,0,0,1-17-14l42.75-51.84a11,11,0,0,1,17,0l42.75,51.84a11,11,0,0,1-8.48,18Z" transform="translate(-201.56 -219.66)"/>
    <path class="cls-1" d="M782.68,483.25a11,11,0,0,1-7.07-19.43c65.89-55.3,68.81-185.17,68.26-221.71-29-1.2-117.56-.39-180.5,48.2a11,11,0,1,1-13.45-17.41c43.51-33.59,97.17-46,134.52-50.41,40.19-4.8,70-1.8,71.26-1.67a11,11,0,0,1,9.84,10.3,515.67,515.67,0,0,1-5.32,96.73C849.55,399,825.84,450.38,789.75,480.68A11,11,0,0,1,782.68,483.25Z" transform="translate(-201.56 -219.66)"/>
    <g>
      <line class="cls-1" x1="210.1" y1="299.75" x2="43.1" y2="272.88"/>
      <path class="cls-1" d="M411.67,529.41a9.68,9.68,0,0,1-1.6-.13l-167-26.87a10,10,0,0,1,3.18-19.75l167,26.87a10,10,0,0,1-1.58,19.88Z" transform="translate(-201.56 -219.66)"/>
    </g>
    <g>
      <line class="cls-1" x1="210.1" y1="350.88" x2="50.42" y2="394.6"/>
      <path class="cls-1" d="M252,624.27a10,10,0,0,1-2.63-19.65L409,560.89a10,10,0,1,1,5.28,19.29L254.62,623.91A10.07,10.07,0,0,1,252,624.27Z" transform="translate(-201.56 -219.66)"/>
    </g>
    <g>
      <line class="cls-1" x1="451.44" y1="355.34" x2="611.12" y2="399.07"/>
      <path class="cls-1" d="M812.69,628.73a10.07,10.07,0,0,1-2.65-.36L650.36,584.64a10,10,0,1,1,5.28-19.28l159.68,43.72a10,10,0,0,1-2.63,19.65Z" transform="translate(-201.56 -219.66)"/>
    </g>
    <g>
      <line class="cls-1" x1="451.44" y1="304.21" x2="618.44" y2="277.34"/>
      <path class="cls-1" d="M653,533.87A10,10,0,0,1,651.41,514l167-26.86a10,10,0,0,1,3.18,19.74l-167,26.87A9.68,9.68,0,0,1,653,533.87Z" transform="translate(-201.56 -219.66)"/>
    </g>
  </g>
</svg>
