<svg id="Слой_6" data-name="Слой 6" xmlns="http://www.w3.org/2000/svg" viewBox="0 0 516.5 591.36">
  <defs>
    <style>
      .cls-1 {
        fill: #fff;
      }
    </style>
  </defs>
  <g id="собака">
    <g>
      <path class="cls-1" d="M565.65,704.36c-68.81,0-133.54-24.65-182.28-69.42-49-45-76-104.92-76-168.7s27-123.7,76-168.71c48.74-44.76,113.47-69.42,182.28-69.42s133.54,24.66,182.27,69.42c49,45,76,104.92,76,168.71s-27,123.69-76,168.7C699.19,679.71,634.45,704.36,565.65,704.36Zm0-454.25c-130.27,0-236.25,96.95-236.25,216.13s106,216.12,236.25,216.12,236.25-97,236.25-216.12S695.92,250.11,565.65,250.11Z" transform="translate(-307.4 -113)"/>
      <path class="cls-1" d="M565.57,544.6a18.22,18.22,0,0,1-8.31-2c-.48-.25-11.91-6.18-23.54-13.09C512.25,516.78,505,509.88,505,502.19c0-20.85,26.6-37.19,60.57-37.19s60.56,16.34,60.56,37.19c0,7.69-7.25,14.59-28.72,27.36-11.63,6.91-23.06,12.84-23.54,13.09A18.21,18.21,0,0,1,565.57,544.6Zm-29.82-44.71c4.71,3.89,16.71,11.32,29.82,18.49,13.1-7.17,25.1-14.6,29.81-18.49-2.63-5.64-14.52-11.14-29.81-11.14S538.38,494.25,535.75,499.89Z" transform="translate(-307.4 -113)"/>
      <path class="cls-1" d="M484.9,450.36c-20.75,0-37-22.18-37-50.5s16.25-50.5,37-50.5,37,22.18,37,50.5S505.64,450.36,484.9,450.36Zm0-79c-7.08,0-15,12.19-15,28.5s7.92,28.5,15,28.5,15-12.19,15-28.5S492,371.36,484.9,371.36Z" transform="translate(-307.4 -113)"/>
      <path class="cls-1" d="M639.9,450.36c-20.75,0-37-22.18-37-50.5s16.25-50.5,37-50.5,37,22.18,37,50.5S660.64,450.36,639.9,450.36Zm0-79c-7.08,0-15,12.19-15,28.5s7.92,28.5,15,28.5,15-12.19,15-28.5S647,371.36,639.9,371.36Z" transform="translate(-307.4 -113)"/>
    </g>
    <path class="cls-1" d="M567,669c-34.78,0-46-25.12-47.07-38.39q0-.4,0-.81V579.4a10,10,0,0,1,6.29-9.29l36.11-14.4a10,10,0,0,1,7.43,0l35.88,14.4a10,10,0,0,1,6.27,9.28V628a45,45,0,0,1-5.7,20.42C600.87,657.81,589.77,669,567,669Zm-27.1-39.8a24.65,24.65,0,0,0,4.2,10.17c4.62,6.39,12.32,9.63,22.9,9.63,23.11,0,24.78-17.47,24.88-21.09V586.16L566,575.77,539.9,586.18Zm52-1.34v0Z" transform="translate(-307.4 -113)"/>
    <path class="cls-1" d="M565.89,622h0a10,10,0,0,1-10-10l.12-47a10,10,0,0,1,10-10h0a10,10,0,0,1,10,10l-.12,47A10,10,0,0,1,565.89,622Z" transform="translate(-307.4 -113)"/>
    <path class="cls-1" d="M339,375a10,10,0,0,1-10-10V123.1a10,10,0,0,1,10-10h0l183,.37a10,10,0,0,1,10,10V239.62a10,10,0,0,1-20,0V133.45l-163-.33V365A10,10,0,0,1,339,375Z" transform="translate(-307.4 -113)"/>
    <path class="cls-1" d="M430.5,232h0a10,10,0,0,1-7.3-3.17l-91.5-98a10,10,0,1,1,14.62-13.66l84.21,90.18,84.19-89.73a10,10,0,1,1,14.58,13.69l-91.5,97.51A10,10,0,0,1,430.5,232Z" transform="translate(-307.4 -113)"/>
    <path class="cls-1" d="M785.66,374.9a10,10,0,0,1-10-10V133l-163,.33V239.52a10,10,0,0,1-20,0V123.37a10,10,0,0,1,10-10l183-.37h0a10,10,0,0,1,10,10V364.9A10,10,0,0,1,785.66,374.9Z" transform="translate(-307.4 -113)"/>
    <path class="cls-1" d="M694.16,231.88a10,10,0,0,1-7.29-3.16l-91.5-97.51A10,10,0,1,1,610,117.52l84.19,89.73,84.21-90.18A10,10,0,1,1,793,130.73l-91.5,98a10,10,0,0,1-7.3,3.17Z" transform="translate(-307.4 -113)"/>
  </g>
</svg>
