<svg id="Слой_6" data-name="Слой 6" xmlns="http://www.w3.org/2000/svg" viewBox="0 0 690.95 361.95">
  <defs>
    <style>
      .cls-1 {
        fill: #fff;
      }
    </style>
  </defs>
  <g id="рыба">
    <g>
      <path class="cls-1" d="M435.5,291a175.63,175.63,0,0,0-154.76,92.82,141.69,141.69,0,0,1,17.19-12.14C304.09,368,310,363.57,316,359.43c6-10.24,15.6-16.43,27.77-18.42a154.63,154.63,0,0,1,91.72-30c47.2,0,89.54,20.16,118.08,53.47,7.41,2.68,14.79,6.41,21.9,9.81a69.82,69.82,0,0,1,14.25,8.56A175.64,175.64,0,0,0,435.5,291Z" transform="translate(-190.55 -291)"/>
      <path class="cls-1" d="M584.52,553.73c-6.28,5.61-13.63,11.35-21.71,14.75a9,9,0,0,1-1.44.63l-1.37.45-.74.25c-3.47,1.13-7,2.2-10.48,3.08a155.22,155.22,0,0,1-225.66,1c-16.68.09-31.29-13.24-41.64-25-.79-.9-1.56-1.83-2.34-2.76a175.44,175.44,0,0,0,312.14,1.13C589.09,549.52,586.81,551.68,584.52,553.73Z" transform="translate(-190.55 -291)"/>
    </g>
    <path class="cls-1" d="M344,317c-2.11,1.26,3-2-18,10L193.55,457.17a10,10,0,0,0-.13,14.14L313.68,591.83c6.17,2.19,12.25,6.63,18.13,9.47,5.5-.41,11-1.84,16.48-1.77L214.7,464.43,369,317C358.79,318.72,354.34,316.31,344,317Z" transform="translate(-190.55 -291)"/>
    <path class="cls-1" d="M676.58,460.7,551.5,335.27c-.92.4-2-1.35-3.06-1.31-13.9.56-24.61-8-34.52-16.93a7.47,7.47,0,0,1-5.41.44l-.8-.26L655.3,467.57l-137,134.51q16.61-3,33.34-4.71L676.45,474.84A10,10,0,0,0,676.58,460.7Z" transform="translate(-190.55 -291)"/>
    <path class="cls-1" d="M867.8,653a9.94,9.94,0,0,1-6.63-2.52L663.92,475.49a10,10,0,0,1,.35-15.26L865.22,298a10,10,0,0,1,16.28,7.89l-3.7,337.19a10,10,0,0,1-10,9.89ZM686,468.36,858,620.93l3.23-294.06Z" transform="translate(-190.55 -291)"/>
    <path class="cls-1" d="M347,465.81c-13.95,0-24.87-14.91-24.87-33.95s10.92-33.95,24.87-33.95,24.87,14.91,24.87,33.95S361,465.81,347,465.81Zm0-53.11c-4.76,0-10.08,8.19-10.08,19.16S342.26,451,347,451s10.08-8.19,10.08-19.16S351.78,412.7,347,412.7Z" transform="translate(-190.55 -291)"/>
    <path class="cls-1" d="M377.13,626.75l-16.26-11.64c57.42-80.17,75.25-153.79,53-218.81-16.56-48.43-50.49-74-50.83-74.3l11.86-16.1c1.58,1.16,38.72,28.93,57.52,82.85,11,31.6,13.43,65.62,7.16,101.13C431.87,533.61,410.85,579.66,377.13,626.75Z" transform="translate(-190.55 -291)"/>
  </g>
</svg>
