<svg width="119" height="21" viewBox="0 0 119 21" fill="none" xmlns="http://www.w3.org/2000/svg">
<path d="M10 0L12.2451 7.25532H19.5106L13.6327 11.7394L15.8779 18.9947L10 14.5106L4.12215 18.9947L6.36729 11.7394L0.489435 7.25532H7.75486L10 0Z" fill="#FFA440"/>
<path d="M34.5 0L36.6329 7.25532H43.535L37.9511 11.7394L40.084 18.9947L34.5 14.5106L28.916 18.9947L31.0489 11.7394L25.465 7.25532H32.3671L34.5 0Z" fill="#FFA440"/>
<path d="M59 0L61.2451 7.25532H68.5106L62.6327 11.7394L64.8779 18.9947L59 14.5106L53.1221 18.9947L55.3673 11.7394L49.4894 7.25532H56.7549L59 0Z" fill="#FFA440"/>
<path d="M84 0L86.2451 7.25532H93.5106L87.6327 11.7394L89.8779 18.9947L84 14.5106L78.1221 18.9947L80.3673 11.7394L74.4894 7.25532H81.7549L84 0Z" fill="#FFA440"/>
<path d="M109 0L111.245 7.25532H118.511L112.633 11.7394L114.878 18.9947L109 14.5106L103.122 18.9947L105.367 11.7394L99.4894 7.25532H106.755L109 0Z" fill="#FFA440"/>
</svg>
