<svg width="354" height="74" viewBox="0 0 354 74" fill="none" xmlns="http://www.w3.org/2000/svg">
<g clip-path="url(#clip0_78_3)">
<path d="M20.1912 73.5046V52.2461L19.5954 52.3683C17.3509 52.8287 15.0331 52.7991 12.8011 52.2816C10.5691 51.764 8.47572 50.7708 6.66447 49.37C4.85323 47.9691 3.36701 46.1939 2.30777 44.166C1.24853 42.1381 0.641323 39.9055 0.527809 37.6214C0.414296 35.3373 0.797158 33.0557 1.65013 30.9331C2.50311 28.8105 3.80602 26.8972 5.46948 25.3244C7.13294 23.7516 9.1176 22.5565 11.2873 21.821C13.457 21.0856 15.7605 20.8272 18.0396 21.0637L18.7563 21.138L18.5709 20.4426C17.6044 16.8321 17.9467 12.997 19.5373 9.6138C21.1279 6.23061 23.8647 3.51681 27.2647 1.9512C30.6648 0.385577 34.5097 0.0687549 38.121 1.05662C41.7323 2.04449 44.878 4.27357 47.0031 7.35057L47.4118 7.94026L47.8306 7.35057C49.956 4.27058 53.1038 2.03943 56.7179 1.05132C60.3319 0.063196 64.1796 0.381696 67.5811 1.95054C70.9827 3.51939 73.7192 6.23763 75.3071 9.62501C76.8951 13.0124 77.2324 16.8509 76.2594 20.4625L76.0707 21.1645L76.7956 21.0819C77.4 21.0129 78.0079 20.9782 78.6162 20.9778C80.8447 20.9795 83.0479 21.4491 85.0827 22.356C87.1175 23.2629 88.9384 24.5868 90.4271 26.2418C91.9158 27.8968 93.039 29.8459 93.7237 31.9624C94.4085 34.0788 94.6395 36.3154 94.4018 38.5268C94.164 40.7382 93.4628 42.8749 92.3437 44.7982C91.2245 46.7215 89.7125 48.3883 87.9059 49.6904C86.0993 50.9925 84.0384 51.9008 81.8571 52.3561C79.6758 52.8115 77.423 52.8039 75.2449 52.3337L74.6424 52.1966V73.5046H20.1912Z" fill="#FFA440"/>
<path d="M60.9057 0.991055C63.2666 0.992607 65.5956 1.53583 67.7127 2.57877C69.8298 3.6217 71.6783 5.13643 73.1154 7.0059C74.5525 8.87538 75.5398 11.0496 76.0009 13.3605C76.462 15.6714 76.3846 18.0572 75.7747 20.3335L75.3973 21.7391L76.8472 21.574C77.434 21.5077 78.0241 21.474 78.6148 21.4732C80.7735 21.475 82.9077 21.93 84.8787 22.8086C86.8498 23.6872 88.6136 24.9698 90.0557 26.573C91.4977 28.1763 92.5858 30.0643 93.2491 32.1145C93.9124 34.1648 94.1362 36.3313 93.9059 38.4735C93.6757 40.6157 92.9965 42.6855 91.9124 44.5487C90.8284 46.4118 89.3639 48.0265 87.6139 49.288C85.8638 50.5494 83.8675 51.4294 81.7546 51.8707C79.6416 52.312 77.4593 52.3048 75.3493 51.8495L74.1461 51.5902V73.0089H20.6879V51.6381L19.4946 51.8826C17.3867 52.3145 15.2114 52.3004 13.1093 51.8414C11.0071 51.3823 9.02476 50.4885 7.29016 49.2175C5.55556 47.9465 4.10728 46.3266 3.03878 44.4624C1.97029 42.5982 1.30533 40.5311 1.08684 38.3946C0.868341 36.258 1.10116 34.0995 1.77027 32.0583C2.43937 30.0171 3.5299 28.1386 4.97145 26.5441C6.413 24.9496 8.17354 23.6744 10.1394 22.801C12.1053 21.9275 14.2329 21.4752 16.3848 21.4732C16.9215 21.4735 17.4579 21.5011 17.9918 21.5558L19.4251 21.7044L19.0544 20.3169C18.1159 16.8186 18.4461 13.1018 19.9865 9.82279C21.527 6.54376 24.1787 3.91334 27.4735 2.39592C30.7684 0.878503 34.4944 0.571666 37.9939 1.52958C41.4934 2.48749 44.5413 4.64855 46.5994 7.63123L47.417 8.81226L48.2346 7.63123C49.6508 5.58386 51.5436 3.91005 53.7506 2.75348C55.9577 1.59691 58.4129 0.99213 60.9057 0.991055ZM60.9057 -1.61892e-05C58.2516 -0.00183809 55.6369 0.640611 53.287 1.87194C50.9371 3.10327 48.9226 4.88653 47.417 7.06797C45.2262 3.89275 41.9818 1.59214 38.2565 0.572299C34.5312 -0.447541 30.5647 -0.121025 27.0573 1.4942C23.5498 3.10944 20.7269 5.9095 19.087 9.40007C17.447 12.8906 17.0955 16.8472 18.0945 20.5713C17.5265 20.5115 16.9559 20.4818 16.3848 20.4821C14.0956 20.4868 11.8328 20.9701 9.74227 21.901C7.65172 22.8319 5.77981 24.1896 4.24721 25.8867C2.71461 27.5838 1.55533 29.5825 0.844095 31.7541C0.132862 33.9257 -0.114536 36.2219 0.117847 38.4948C0.35023 40.7677 1.05724 42.9667 2.19329 44.9502C3.32935 46.9336 4.86925 48.6575 6.71371 50.0107C8.55818 51.3638 10.6663 52.3162 12.9021 52.8065C15.138 53.2968 17.452 53.314 19.6949 52.8571V74H75.1391V52.8175C77.3855 53.3027 79.7089 53.3108 81.9586 52.8413C84.2082 52.3718 86.3337 51.4352 88.197 50.0924C90.0603 48.7496 91.6197 47.0305 92.7739 45.047C93.9281 43.0634 94.6513 40.8597 94.8964 38.579C95.1416 36.2983 94.9032 33.9917 94.1969 31.8089C93.4905 29.6262 92.3319 27.6161 90.7964 25.9094C89.2609 24.2027 87.3827 22.8375 85.2841 21.9025C83.1854 20.9674 80.9131 20.4835 78.6148 20.4821C77.9865 20.4828 77.3588 20.5186 76.7346 20.5895C77.3835 18.1663 77.4656 15.6267 76.9746 13.1669C76.4836 10.707 75.4325 8.39273 73.9027 6.40278C72.3728 4.41283 70.4051 2.80049 68.1516 1.69029C65.898 0.5801 63.4189 0.00177232 60.9057 -1.61892e-05Z" fill="#292929"/>
<path d="M47.4999 61.2814C56.092 61.2814 63.0574 54.3298 63.0574 45.7546C63.0574 37.1794 56.092 30.2278 47.4999 30.2278C38.9077 30.2278 31.9424 37.1794 31.9424 45.7546C31.9424 54.3298 38.9077 61.2814 47.4999 61.2814Z" fill="#FCB4E6"/>
<path d="M47.4998 30.7232C50.4786 30.7232 53.3905 31.6048 55.8672 33.2565C58.344 34.9081 60.2744 37.2557 61.4143 40.0023C62.5543 42.7489 62.8525 45.7712 62.2714 48.6869C61.6903 51.6027 60.2558 54.281 58.1495 56.3832C56.0432 58.4854 53.3596 59.9169 50.4381 60.4969C47.5165 61.0769 44.4883 60.7792 41.7362 59.6416C38.9842 58.5039 36.632 56.5773 34.9771 54.1054C33.3222 51.6335 32.4388 48.7274 32.4388 45.7545C32.4432 41.7693 34.0314 37.9486 36.8549 35.1306C39.6785 32.3127 43.5067 30.7276 47.4998 30.7232ZM47.4998 29.7322C44.3246 29.7322 41.2208 30.6719 38.5807 32.4324C35.9406 34.193 33.8829 36.6953 32.6678 39.623C31.4528 42.5507 31.1348 45.7723 31.7543 48.8803C32.3737 51.9883 33.9027 54.8432 36.1479 57.084C38.3931 59.3248 41.2537 60.8507 44.3678 61.469C47.482 62.0872 50.7099 61.7699 53.6434 60.5572C56.5769 59.3445 59.0842 57.2909 60.8482 54.656C62.6123 52.0212 63.5538 48.9234 63.5538 45.7545C63.5538 41.5051 61.8624 37.4298 58.8517 34.425C55.841 31.4202 51.7576 29.7322 47.4998 29.7322Z" fill="#292929"/>
<path d="M16.3849 46.7455C21.9606 46.7455 26.4807 42.2344 26.4807 36.6696C26.4807 31.1049 21.9606 26.5938 16.3849 26.5938C10.8091 26.5938 6.28906 31.1049 6.28906 36.6696C6.28906 42.2344 10.8091 46.7455 16.3849 46.7455Z" fill="#FCB4E6"/>
<path d="M16.3848 27.0892C18.2834 27.0892 20.1393 27.6511 21.7179 28.7038C23.2965 29.7565 24.5269 31.2527 25.2534 33.0033C25.98 34.7539 26.1701 36.6802 25.7997 38.5386C25.4293 40.397 24.515 42.1041 23.1726 43.4439C21.8301 44.7837 20.1196 45.6962 18.2576 46.0658C16.3955 46.4355 14.4654 46.2458 12.7113 45.5207C10.9573 44.7956 9.45807 43.5676 8.40329 41.9921C7.3485 40.4167 6.78552 38.5644 6.78552 36.6696C6.78858 34.1296 7.80092 31.6946 9.60047 29.8986C11.4 28.1026 13.8399 27.0923 16.3848 27.0892ZM16.3848 26.0981C14.2899 26.0981 12.2419 26.7181 10.5 27.8798C8.75814 29.0414 7.40049 30.6924 6.59878 32.6241C5.79707 34.5557 5.58731 36.6813 5.99601 38.732C6.40472 40.7826 7.41355 42.6663 8.89491 44.1447C10.3763 45.6231 12.2636 46.63 14.3184 47.0379C16.3731 47.4458 18.5028 47.2364 20.4383 46.4363C22.3738 45.6362 24.0281 44.2812 25.192 42.5427C26.3559 40.8043 26.9772 38.7604 26.9772 36.6696C26.9772 33.8659 25.8612 31.177 23.8747 29.1944C21.8883 27.2119 19.1941 26.0981 16.3848 26.0981Z" fill="#292929"/>
<path d="M33.9288 26.4286C39.5046 26.4286 44.0246 21.9175 44.0246 16.3527C44.0246 10.788 39.5046 6.27686 33.9288 6.27686C28.3531 6.27686 23.833 10.788 23.833 16.3527C23.833 21.9175 28.3531 26.4286 33.9288 26.4286Z" fill="#FCB4E6"/>
<path d="M33.9288 6.77232C35.8273 6.77232 37.6833 7.3342 39.2619 8.3869C40.8405 9.4396 42.0708 10.9359 42.7974 12.6864C43.5239 14.437 43.714 16.3633 43.3436 18.2217C42.9732 20.0801 42.059 21.7872 40.7165 23.127C39.374 24.4669 37.6636 25.3793 35.8015 25.749C33.9394 26.1186 32.0093 25.9289 30.2553 25.2038C28.5012 24.4787 27.002 23.2507 25.9472 21.6752C24.8924 20.0998 24.3295 18.2475 24.3295 16.3527C24.3325 13.8127 25.3449 11.3777 27.1444 9.58172C28.944 7.78572 31.3838 6.77538 33.9288 6.77232ZM33.9288 5.78125C31.8338 5.78125 29.7859 6.40125 28.044 7.56286C26.3021 8.72446 24.9444 10.3755 24.1427 12.3072C23.341 14.2388 23.1313 16.3644 23.54 18.4151C23.9487 20.4657 24.9575 22.3494 26.4389 23.8278C27.9202 25.3062 29.8076 26.3131 31.8623 26.721C33.917 27.1289 36.0468 26.9195 37.9823 26.1194C39.9178 25.3193 41.5721 23.9643 42.736 22.2258C43.8999 20.4874 44.5211 18.4435 44.5211 16.3527C44.5211 13.549 43.4051 10.8601 41.4187 8.87755C39.4322 6.89502 36.738 5.78125 33.9288 5.78125Z" fill="#292929"/>
<path d="M60.9059 26.4286C66.4816 26.4286 71.0017 21.9175 71.0017 16.3527C71.0017 10.788 66.4816 6.27686 60.9059 6.27686C55.3301 6.27686 50.8101 10.788 50.8101 16.3527C50.8101 21.9175 55.3301 26.4286 60.9059 26.4286Z" fill="#FCB4E6"/>
<path d="M60.9058 6.77232C62.8044 6.77232 64.6603 7.3342 66.2389 8.3869C67.8175 9.4396 69.0479 10.9359 69.7744 12.6864C70.501 14.437 70.6911 16.3633 70.3207 18.2217C69.9503 20.0801 69.036 21.7872 67.6936 23.127C66.3511 24.4669 64.6406 25.3793 62.7785 25.749C60.9165 26.1186 58.9864 25.9289 57.2323 25.2038C55.4783 24.4787 53.9791 23.2507 52.9243 21.6752C51.8695 20.0998 51.3065 18.2475 51.3065 16.3527C51.3096 13.8127 52.3219 11.3777 54.1215 9.58172C55.921 7.78572 58.3609 6.77538 60.9058 6.77232ZM60.9058 5.78125C58.8109 5.78125 56.7629 6.40125 55.021 7.56286C53.2791 8.72446 51.9215 10.3755 51.1198 12.3072C50.3181 14.2388 50.1083 16.3644 50.517 18.4151C50.9257 20.4657 51.9345 22.3494 53.4159 23.8278C54.8973 25.3062 56.7846 26.3131 58.8394 26.721C60.8941 27.1289 63.0238 26.9195 64.9593 26.1194C66.8948 25.3193 68.5491 23.9643 69.713 22.2258C70.8769 20.4874 71.4981 18.4435 71.4981 16.3527C71.4981 13.549 70.3822 10.8601 68.3957 8.87755C66.4093 6.89502 63.7151 5.78125 60.9058 5.78125Z" fill="#292929"/>
<path d="M78.4493 46.9108C84.0251 46.9108 88.5452 42.3997 88.5452 36.8349C88.5452 31.2702 84.0251 26.759 78.4493 26.759C72.8736 26.759 68.3535 31.2702 68.3535 36.8349C68.3535 42.3997 72.8736 46.9108 78.4493 46.9108Z" fill="#FCB4E6"/>
<path d="M78.4493 27.2545C80.3478 27.2545 82.2038 27.8164 83.7824 28.8691C85.361 29.9218 86.5913 31.418 87.3179 33.1686C88.0444 34.9192 88.2345 36.8455 87.8641 38.7039C87.4937 40.5623 86.5795 42.2694 85.237 43.6092C83.8945 44.949 82.1841 45.8615 80.322 46.2311C78.4599 46.6008 76.5298 46.4111 74.7758 45.686C73.0217 44.9608 71.5225 43.7329 70.4677 42.1574C69.413 40.5819 68.85 38.7297 68.85 36.8349C68.853 34.2949 69.8654 31.8599 71.6649 30.0639C73.4645 28.2679 75.9043 27.2576 78.4493 27.2545ZM78.4493 26.2634C76.3543 26.2634 74.3064 26.8834 72.5645 28.045C70.8226 29.2066 69.4649 30.8577 68.6632 32.7893C67.8615 34.721 67.6518 36.8466 68.0605 38.8972C68.4692 40.9479 69.478 42.8315 70.9594 44.31C72.4407 45.7884 74.3281 46.7953 76.3828 47.2032C78.4375 47.6111 80.5673 47.4017 82.5028 46.6016C84.4383 45.8015 86.0926 44.4465 87.2565 42.708C88.4204 40.9696 89.0416 38.9257 89.0416 36.8349C89.0416 34.0311 87.9256 31.3423 85.9392 29.3597C83.9527 27.3772 81.2585 26.2634 78.4493 26.2634Z" fill="#292929"/>
<path d="M42.6308 39.3126L42.601 39.2894C42.2675 39.0412 41.9959 38.7194 41.8073 38.3493C41.6187 37.9792 41.5182 37.5706 41.5137 37.1553C41.5137 35.6175 42.8841 34.3655 44.5672 34.3655C45.0298 34.3581 45.4882 34.4533 45.9095 34.6441C46.3308 34.8349 46.7044 35.1166 47.0035 35.4689L47.3875 35.9314L47.7698 35.4689C48.0685 35.1152 48.4421 34.8321 48.8637 34.6399C49.2852 34.4476 49.7442 34.3511 50.2077 34.3572C51.8908 34.3572 53.2612 35.6093 53.2612 37.1471C53.256 37.5411 53.1643 37.9293 52.9928 38.2843C52.8212 38.6392 52.5739 38.9524 52.2682 39.2019L52.2467 39.2201L47.4338 44.3043L42.6308 39.3126Z" fill="#10C65A"/>
<path d="M50.2075 34.8528C51.6176 34.8528 52.7646 35.8818 52.7646 37.1471C52.7621 37.4688 52.6881 37.7859 52.5479 38.0756C52.4076 38.3652 52.2046 38.6202 51.9536 38.822L51.9106 38.8583L51.8709 38.8996L47.4304 43.5858L43.0147 38.9822L42.9634 38.9277L42.9054 38.8831C42.6318 38.6811 42.4086 38.4187 42.2533 38.1164C42.098 37.8142 42.0147 37.4802 42.0101 37.1405C42.0101 35.8752 43.157 34.8462 44.5671 34.8462C44.9572 34.8401 45.3438 34.9205 45.699 35.0816C46.0541 35.2427 46.3691 35.4805 46.621 35.7778L47.3873 36.7044L48.1536 35.7778C48.4061 35.4816 48.7213 35.245 49.0765 35.0851C49.4317 34.9251 49.8179 34.8458 50.2075 34.8528ZM50.2075 33.8617C49.6723 33.8573 49.1426 33.9708 48.6563 34.1941C48.17 34.4174 47.739 34.7449 47.3939 35.1534C47.0489 34.7449 46.6179 34.4174 46.1316 34.1941C45.6453 33.9708 45.1156 33.8573 44.5804 33.8617C42.6191 33.8617 41.0303 35.3334 41.0303 37.1471C41.0345 37.6383 41.1523 38.122 41.3745 38.5603C41.5967 38.9987 41.9173 39.3799 42.3113 39.6743L47.4419 45.0228L52.5991 39.5802C52.959 39.284 53.2492 38.9126 53.4494 38.4922C53.6496 38.0718 53.7548 37.6126 53.7576 37.1471C53.7576 35.3301 52.1671 33.8617 50.2075 33.8617Z" fill="#292929"/>
<path d="M55.6972 51.6729C55.3186 51.6663 54.9463 51.575 54.6077 51.4057C54.2692 51.2365 53.973 50.9937 53.7409 50.6951L53.7243 50.6736L48.8237 45.8586L53.6449 41.0585L53.6664 41.0288C53.8961 40.7019 54.1999 40.4339 54.5531 40.2464C54.9063 40.059 55.2989 39.9575 55.6988 39.9502C57.1702 39.9502 58.3651 41.3162 58.3651 42.9977C58.3734 43.457 58.2822 43.9126 58.0976 44.3334C57.9131 44.7542 57.6396 45.1303 57.2959 45.4358L56.8574 45.8124L57.2959 46.1873C57.6398 46.4931 57.9133 46.8694 58.0978 47.2905C58.2824 47.7116 58.3735 48.1675 58.3651 48.627C58.3635 50.3069 57.1685 51.6729 55.6972 51.6729Z" fill="#10C65A"/>
<path d="M55.6973 40.4457C56.8939 40.4457 57.8671 41.5904 57.8671 42.9977C57.873 43.3852 57.7961 43.7695 57.6414 44.125C57.4867 44.4804 57.2578 44.7989 56.9701 45.0591L56.0929 45.8123L56.9701 46.5639C57.258 46.8243 57.4869 47.1431 57.6416 47.4988C57.7963 47.8546 57.8732 48.2392 57.8671 48.627C57.8671 50.0326 56.8939 51.1773 55.6973 51.1773C55.3927 51.1724 55.0932 51.0985 54.8214 50.9611C54.5496 50.8238 54.3126 50.6266 54.1283 50.3845L54.0919 50.3399L54.0522 50.3002L49.5273 45.8553L53.9678 41.4351L54.0191 41.3822L54.0638 41.3228C54.2476 41.0585 54.4913 40.8412 54.7752 40.6888C55.0591 40.5364 55.3751 40.4531 55.6973 40.4457ZM55.6973 39.4546C55.2198 39.4614 54.7507 39.5808 54.3281 39.803C53.9056 40.0251 53.5417 40.3438 53.2661 40.7331L48.1172 45.8536L53.3554 51.0006C53.6338 51.3563 53.9889 51.645 54.3943 51.8451C54.7997 52.0453 55.2451 52.1518 55.6973 52.1568C57.4451 52.1568 58.8601 50.5711 58.8601 48.6154C58.8666 48.0858 58.759 47.561 58.5445 47.0765C58.3301 46.5921 58.0138 46.1592 57.6172 45.8074C58.0137 45.4554 58.3299 45.0226 58.5444 44.5381C58.7588 44.0537 58.8665 43.5289 58.8601 42.9993C58.8601 41.042 57.4451 39.4562 55.6973 39.4562V39.4546Z" fill="#292929"/>
<path d="M50.3022 56.9866C49.8421 56.9946 49.3856 56.9033 48.9641 56.7192C48.5425 56.535 48.1657 56.2623 47.8593 55.9195L47.482 55.4818L47.1063 55.9195C46.7997 56.2624 46.4226 56.5352 46.0007 56.7194C45.5789 56.9035 45.1222 56.9947 44.6618 56.9866C42.9786 56.9866 41.6099 55.7924 41.6099 54.3256C41.6163 53.9477 41.7077 53.5761 41.8772 53.2381C42.0468 52.9002 42.2903 52.6046 42.5897 52.3732L42.6112 52.355L47.4356 47.4624L52.2452 52.274L52.275 52.2955C52.6025 52.5252 52.871 52.8287 53.0588 53.1815C53.2466 53.5342 53.3483 53.9262 53.3558 54.3256C53.3558 55.7924 51.987 56.9866 50.3022 56.9866Z" fill="#10C65A"/>
<path d="M47.4387 48.1678L51.8676 52.5979L51.9206 52.6507L51.9802 52.6937C52.245 52.8775 52.4625 53.1211 52.6152 53.4047C52.7679 53.6883 52.8515 54.0038 52.859 54.3256C52.859 55.5199 51.7121 56.4911 50.302 56.4911C49.9138 56.4966 49.5288 56.4196 49.1727 56.2653C48.8166 56.1109 48.4974 55.8827 48.2365 55.5958L47.4818 54.7204L46.7287 55.5958C46.4675 55.8829 46.1481 56.1112 45.7917 56.2656C45.4353 56.42 45.05 56.4968 44.6615 56.4911C43.2531 56.4911 42.1061 55.5199 42.1061 54.3256C42.1109 54.0213 42.1849 53.7221 42.3226 53.4506C42.4602 53.179 42.6578 52.9422 42.9006 52.7581L42.9453 52.7234L42.985 52.6837L47.4387 48.1678ZM47.4387 46.7588L42.2816 51.9883C41.925 52.2661 41.6357 52.6205 41.4352 53.0251C41.2346 53.4297 41.1279 53.8742 41.123 54.3256C41.123 56.0683 42.7119 57.4822 44.6715 57.4822C45.2021 57.4883 45.7278 57.3807 46.2132 57.1667C46.6986 56.9527 47.1323 56.6373 47.4851 56.2417C47.838 56.6371 48.2717 56.9525 48.7571 57.1665C49.2424 57.3804 49.7681 57.4881 50.2987 57.4822C52.2599 57.4822 53.8487 56.0683 53.8487 54.3256C53.8418 53.8488 53.7221 53.3804 53.4995 52.9585C53.2769 52.5366 52.9577 52.173 52.5677 51.8975L47.4371 46.7588H47.4387Z" fill="#292929"/>
<path d="M38.9519 51.7703C37.4823 51.7703 36.2857 50.4043 36.2857 48.7228C36.2777 48.2636 36.3691 47.808 36.5536 47.3873C36.7381 46.9665 37.0114 46.5905 37.3548 46.2847L37.7934 45.9081L37.3548 45.5332C37.0113 45.2272 36.7379 44.8509 36.5534 44.4298C36.3689 44.0088 36.2776 43.553 36.2857 43.0935C36.2857 41.4136 37.4823 40.0476 38.9519 40.0476C39.3306 40.054 39.7029 40.1452 40.0415 40.3145C40.3801 40.4837 40.6763 40.7267 40.9082 41.0255L40.9264 41.0469L45.8287 45.8619L41.0075 50.662L40.986 50.6917C40.7559 51.0185 40.4517 51.2865 40.0983 51.474C39.7449 51.6614 39.3521 51.7629 38.9519 51.7703Z" fill="#10C65A"/>
<path d="M38.9517 40.5431C39.2566 40.5478 39.5564 40.6217 39.8285 40.759C40.1006 40.8964 40.3378 41.0937 40.5224 41.3359L40.5571 41.3805L40.5968 41.4202L45.1217 45.8651L40.6829 50.2853L40.6299 50.3382L40.5869 50.3976C40.4024 50.6616 40.1582 50.8785 39.8742 51.0309C39.5901 51.1833 39.2741 51.2668 38.9517 51.2747C37.7551 51.2747 36.7819 50.13 36.7819 48.7227C36.7764 48.3353 36.8536 47.9511 37.0082 47.5957C37.1629 47.2403 37.3915 46.9218 37.679 46.6613L38.5562 45.9081L37.679 45.1565C37.1474 44.6575 36.828 43.9738 36.7867 43.2466C36.7455 42.5194 36.9855 41.8041 37.4572 41.2484C37.6404 41.0312 37.8682 40.8559 38.1252 40.7342C38.3822 40.6125 38.6623 40.5473 38.9467 40.5431M38.9467 39.552C37.2007 39.552 35.7839 41.1377 35.7839 43.0934C35.7778 43.623 35.8856 44.1477 36.1 44.6321C36.3144 45.1165 36.6305 45.5494 37.0269 45.9015C36.6307 46.2537 36.3147 46.6866 36.1003 47.171C35.8859 47.6553 35.778 48.18 35.7839 48.7095C35.7839 50.6669 37.2007 52.2526 38.9467 52.2526C39.4245 52.2456 39.8938 52.1262 40.3166 51.904C40.7393 51.6819 41.1036 51.3633 41.3797 50.9741L46.5285 45.8536L41.2936 40.7132C41.0153 40.3574 40.6602 40.0686 40.2548 39.8685C39.8494 39.6683 39.404 39.5618 38.9517 39.557L38.9467 39.552Z" fill="#292929"/>
</g>
<path d="M135.096 55.352C135.16 55.512 135.192 55.752 135.192 56.072C135.192 56.36 135.192 56.6 135.192 56.792C135.192 57.048 135.144 57.288 135.048 57.512C134.952 57.736 134.824 57.944 134.664 58.136C134.376 58.52 133.96 58.808 133.416 59C132.648 59.256 131.928 59.384 131.256 59.384C130.904 59.416 130.536 59.432 130.152 59.432C129.768 59.432 129.384 59.464 129 59.528H128.808C126.344 59.56 123.8 59.56 121.176 59.528C120.536 59.496 119.816 59.496 119.016 59.528C118.216 59.592 117.432 59.576 116.664 59.48C115.896 59.416 115.192 59.24 114.552 58.952C113.944 58.632 113.512 58.136 113.256 57.464C113.192 57.304 113.144 57.16 113.112 57.032C113.08 56.872 113.064 56.712 113.064 56.552C112.936 55.464 112.888 54.392 112.92 53.336C112.952 52.28 112.968 51.24 112.968 50.216L113.064 43.256V36.824C113.064 35.672 113.064 34.648 113.064 33.752C113.096 32.856 113.128 31.864 113.16 30.776V30.536C113.192 30.216 113.208 29.896 113.208 29.576C113.24 29.256 113.256 28.936 113.256 28.616C113.32 27.88 113.496 27.256 113.784 26.744C113.976 26.264 114.312 25.88 114.792 25.592C115.208 25.304 115.704 25.16 116.28 25.16C116.504 25.16 116.712 25.176 116.904 25.208C117.128 25.208 117.336 25.224 117.528 25.256C117.72 25.288 117.896 25.352 118.056 25.448C118.248 25.544 118.44 25.672 118.632 25.832C118.824 26.056 119 26.328 119.16 26.648C119.288 27 119.368 27.352 119.4 27.704C119.432 27.928 119.464 28.136 119.496 28.328C119.528 28.52 119.544 28.712 119.544 28.904C119.48 29.096 119.448 29.288 119.448 29.48C119.448 29.672 119.448 29.848 119.448 30.008V30.872L119.256 53.48L128.76 53.576H131.016C131.208 53.576 131.416 53.592 131.64 53.624C131.864 53.624 132.088 53.64 132.312 53.672C132.568 53.704 132.792 53.736 132.984 53.768C133.176 53.8 133.368 53.848 133.56 53.912C133.912 54.008 134.2 54.168 134.424 54.392C134.776 54.712 135 55.032 135.096 55.352ZM162.378 27.656C162.57 29.192 162.682 30.984 162.714 33.032C162.746 35.048 162.714 37.096 162.618 39.176C162.554 41.224 162.41 43.176 162.186 45.032C161.962 46.856 161.69 48.328 161.37 49.448C161.146 50.12 160.874 50.824 160.554 51.56C160.266 52.264 159.946 52.904 159.594 53.48C159.082 54.344 158.458 55.112 157.722 55.784C156.986 56.424 156.17 56.984 155.274 57.464C154.41 57.912 153.482 58.264 152.49 58.52C151.53 58.776 150.57 58.92 149.61 58.952C147.914 59.016 146.298 58.776 144.762 58.232C143.258 57.656 141.866 56.76 140.586 55.544C139.626 54.616 138.858 53.624 138.282 52.568C137.706 51.512 137.258 50.408 136.938 49.256C136.618 48.072 136.41 46.856 136.314 45.608C136.25 44.36 136.218 43.08 136.218 41.768C136.218 41.16 136.202 40.408 136.17 39.512C136.17 38.584 136.17 37.64 136.17 36.68C136.17 35.688 136.17 34.728 136.17 33.8C136.17 32.872 136.186 32.088 136.218 31.448C136.218 31.032 136.218 30.584 136.218 30.104C136.218 29.592 136.234 29.096 136.266 28.616C136.33 28.104 136.426 27.624 136.554 27.176C136.682 26.696 136.874 26.264 137.13 25.88C137.418 25.464 137.818 25.16 138.33 24.968C138.842 24.776 139.37 24.68 139.914 24.68C140.49 24.68 141.034 24.792 141.546 25.016C142.058 25.24 142.474 25.56 142.794 25.976C142.954 26.232 143.066 26.488 143.13 26.744C143.194 27 143.242 27.288 143.274 27.608C143.338 28.664 143.37 29.864 143.37 31.208C143.402 32.552 143.402 33.864 143.37 35.144C143.37 36.392 143.354 37.544 143.322 38.6C143.29 39.656 143.274 40.44 143.274 40.952C143.274 42.872 143.37 44.616 143.562 46.184C143.754 47.72 144.202 49 144.906 50.024C145.546 50.952 146.298 51.544 147.162 51.8C148.026 52.056 148.89 52.136 149.754 52.04C150.554 51.944 151.354 51.656 152.154 51.176C152.986 50.664 153.642 49.928 154.122 48.968C154.314 48.616 154.474 48.216 154.602 47.768C154.73 47.32 154.826 46.904 154.89 46.52C155.018 45.304 155.13 43.896 155.226 42.296C155.322 40.664 155.402 39 155.466 37.304C155.53 35.608 155.562 33.944 155.562 32.312C155.562 30.68 155.546 29.208 155.514 27.896C155.578 27.32 155.754 26.792 156.042 26.312C156.298 25.896 156.666 25.528 157.146 25.208C157.626 24.888 158.282 24.728 159.114 24.728C159.786 24.76 160.33 24.936 160.746 25.256C161.162 25.544 161.498 25.864 161.754 26.216C162.042 26.632 162.25 27.112 162.378 27.656ZM192.08 50.936C192.496 51.864 192.512 52.776 192.128 53.672C191.744 54.536 191.136 55.336 190.304 56.072C189.472 56.808 188.512 57.448 187.424 57.992C186.368 58.536 185.36 58.92 184.4 59.144C183.344 59.368 182.224 59.464 181.04 59.432C179.888 59.432 178.72 59.288 177.536 59C176.384 58.744 175.248 58.36 174.128 57.848C173.04 57.304 172.032 56.648 171.104 55.88C169.984 54.952 169.104 53.848 168.464 52.568C167.856 51.256 167.408 49.864 167.12 48.392C166.832 46.92 166.672 45.448 166.64 43.976C166.64 42.472 166.688 41.064 166.784 39.752C166.88 38.568 167.12 37.336 167.504 36.056C167.888 34.776 168.416 33.528 169.088 32.312C169.792 31.064 170.624 29.912 171.584 28.856C172.576 27.8 173.728 26.904 175.04 26.168C176.032 25.592 177.136 25.208 178.352 25.016C179.6 24.792 180.848 24.744 182.096 24.872C183.376 24.968 184.576 25.24 185.696 25.688C186.848 26.104 187.824 26.68 188.624 27.416C189.136 27.864 189.664 28.488 190.208 29.288C190.784 30.088 191.2 30.904 191.456 31.736C191.712 32.568 191.712 33.352 191.456 34.088C191.232 34.792 190.592 35.272 189.536 35.528C189.088 35.656 188.688 35.688 188.336 35.624C187.984 35.528 187.664 35.384 187.376 35.192C187.088 34.968 186.816 34.712 186.56 34.424C186.304 34.136 186.064 33.848 185.84 33.56C185.072 32.632 184.176 32.008 183.152 31.688C182.128 31.336 181.104 31.256 180.08 31.448C179.088 31.608 178.144 32.024 177.248 32.696C176.384 33.336 175.712 34.168 175.232 35.192C174.72 36.28 174.304 37.48 173.984 38.792C173.696 40.072 173.536 41.384 173.504 42.728C173.472 44.04 173.584 45.32 173.84 46.568C174.128 47.816 174.608 48.92 175.28 49.88C175.792 50.648 176.416 51.272 177.152 51.752C177.92 52.232 178.736 52.568 179.6 52.76C180.464 52.952 181.328 52.984 182.192 52.856C183.088 52.728 183.952 52.44 184.784 51.992C185.04 51.864 185.312 51.688 185.6 51.464C185.92 51.208 186.24 50.952 186.56 50.696C186.88 50.44 187.2 50.2 187.52 49.976C187.872 49.752 188.24 49.592 188.624 49.496C189.2 49.304 189.824 49.32 190.496 49.544C191.2 49.768 191.728 50.232 192.08 50.936ZM219.496 55.544C219.752 56.024 219.768 56.504 219.544 56.984C219.384 57.496 219.112 57.88 218.728 58.136C218.536 58.296 218.36 58.44 218.2 58.568C218.04 58.664 217.864 58.744 217.672 58.808C217.32 59 216.904 59.064 216.424 59C216.232 59 216.056 58.968 215.896 58.904C215.736 58.84 215.576 58.76 215.416 58.664C215.256 58.568 215.08 58.472 214.888 58.376C214.728 58.248 214.568 58.12 214.408 57.992C214.216 57.832 214.04 57.688 213.88 57.56C213.72 57.432 213.576 57.288 213.448 57.128C213.288 56.968 213.144 56.808 213.016 56.648C212.888 56.488 212.76 56.344 212.632 56.216L212.056 55.592L202.84 45.944L202.984 55.592V56.024C202.984 56.152 202.968 56.296 202.936 56.456C202.904 56.584 202.872 56.728 202.84 56.888C202.744 57.304 202.632 57.672 202.504 57.992C202.44 58.184 202.344 58.344 202.216 58.472C202.12 58.6 202.008 58.728 201.88 58.856C201.528 59.176 201.112 59.352 200.632 59.384C200.152 59.544 199.704 59.592 199.288 59.528C198.904 59.496 198.504 59.384 198.088 59.192C197.768 59 197.48 58.68 197.224 58.232C197.16 58.104 197.112 58.024 197.08 57.992C197.08 57.96 197.048 57.848 196.984 57.656C196.792 57.336 196.696 57.016 196.696 56.696C196.664 56.504 196.632 56.328 196.6 56.168C196.6 56.008 196.584 55.832 196.552 55.64C196.52 55.512 196.504 55.384 196.504 55.256C196.504 55.128 196.504 55 196.504 54.872C196.536 54.712 196.552 54.584 196.552 54.488C196.552 54.36 196.552 54.216 196.552 54.056L196.504 50.264L196.456 43.208C196.456 41.16 196.408 38.952 196.312 36.584C196.28 35.432 196.264 34.408 196.264 33.512C196.264 32.616 196.28 31.608 196.312 30.488V30.296C196.376 29.944 196.408 29.608 196.408 29.288C196.408 28.936 196.424 28.6 196.456 28.28C196.456 27.64 196.6 27 196.888 26.36C197.08 25.88 197.416 25.496 197.896 25.208C198.152 25.048 198.392 24.952 198.616 24.92C198.872 24.856 199.144 24.792 199.432 24.728C199.656 24.728 199.864 24.744 200.056 24.776C200.28 24.808 200.488 24.84 200.68 24.872C201.096 24.936 201.48 25.112 201.832 25.4C201.928 25.496 202.008 25.608 202.072 25.736C202.168 25.864 202.248 26.024 202.312 26.216C202.472 26.472 202.584 26.84 202.648 27.32C202.68 27.512 202.696 27.704 202.696 27.896C202.728 28.088 202.744 28.296 202.744 28.52V30.488L202.792 36.344C203.304 35.896 203.8 35.432 204.28 34.952C204.792 34.472 205.288 33.96 205.768 33.416C206.632 32.52 207.48 31.656 208.312 30.824C209.176 29.96 210.04 29.112 210.904 28.28L211.048 28.136C211.304 27.88 211.56 27.64 211.816 27.416C212.104 27.16 212.376 26.92 212.632 26.696C213.112 26.152 213.704 25.768 214.408 25.544C214.856 25.256 215.384 25.144 215.992 25.208C216.28 25.24 216.536 25.304 216.76 25.4C217.016 25.496 217.256 25.624 217.48 25.784C217.64 25.944 217.8 26.088 217.96 26.216C218.12 26.312 218.248 26.44 218.344 26.6C218.6 26.824 218.76 27.16 218.824 27.608C218.824 27.96 218.76 28.28 218.632 28.568C218.536 28.728 218.44 28.888 218.344 29.048C218.248 29.208 218.136 29.368 218.008 29.528C217.848 29.72 217.704 29.896 217.576 30.056C217.448 30.216 217.304 30.376 217.144 30.536C217.016 30.696 216.872 30.84 216.712 30.968C216.584 31.096 216.456 31.24 216.328 31.4L215.704 32.024L206.728 41.192C207.208 41.672 207.704 42.184 208.216 42.728C208.76 43.24 209.272 43.752 209.752 44.264C210.232 44.744 210.68 45.208 211.096 45.656C211.512 46.072 211.864 46.424 212.152 46.712C213.016 47.608 213.848 48.504 214.648 49.4C215.448 50.264 216.232 51.144 217 52.04L217.144 52.184C217.4 52.44 217.64 52.712 217.864 53C218.088 53.256 218.296 53.512 218.488 53.768C218.968 54.312 219.304 54.904 219.496 55.544ZM247.963 27.08C247.995 27.24 247.995 27.4 247.963 27.56C247.963 27.72 247.915 27.896 247.819 28.088C247.691 28.536 247.547 28.936 247.387 29.288C247.195 29.736 246.955 30.12 246.667 30.44C246.539 30.632 246.411 30.824 246.283 31.016C246.187 31.176 246.091 31.336 245.995 31.496L245.371 32.312L239.227 41.192L238.123 42.584V55.352C238.059 55.512 238.027 55.672 238.027 55.832C238.027 55.992 238.011 56.168 237.979 56.36C237.915 56.52 237.867 56.68 237.835 56.84C237.803 56.968 237.755 57.112 237.691 57.272C237.627 57.4 237.595 57.496 237.595 57.56C237.563 57.624 237.531 57.672 237.499 57.704C237.499 57.736 237.483 57.784 237.451 57.848C237.259 58.168 236.987 58.456 236.635 58.712C235.931 59.064 235.131 59.144 234.235 58.952C233.723 58.888 233.339 58.728 233.083 58.472C232.923 58.376 232.795 58.264 232.699 58.136C232.603 58.008 232.507 57.864 232.411 57.704C232.347 57.512 232.283 57.336 232.219 57.176C232.155 57.016 232.107 56.856 232.075 56.696C232.011 56.536 231.979 56.392 231.979 56.264C231.979 56.104 231.979 55.96 231.979 55.832V42.728L230.923 41.096L224.683 32.264L224.155 31.4C223.963 31.112 223.723 30.776 223.435 30.392C223.179 30.04 222.955 29.656 222.763 29.24C222.635 29.048 222.523 28.856 222.427 28.664C222.363 28.44 222.299 28.216 222.235 27.992C222.139 27.672 222.123 27.352 222.187 27.032C222.283 26.616 222.475 26.264 222.763 25.976C223.083 25.688 223.419 25.464 223.771 25.304C224.219 24.984 224.731 24.856 225.307 24.92C225.659 24.92 225.963 24.984 226.219 25.112C226.475 25.24 226.731 25.384 226.987 25.544C227.275 25.768 227.547 26.008 227.803 26.264C228.091 26.52 228.347 26.792 228.571 27.08C228.827 27.4 229.067 27.704 229.291 27.992C229.515 28.248 229.739 28.552 229.963 28.904L230.107 29.096C230.875 30.12 231.595 31.112 232.267 32.072C232.939 33 233.643 34.008 234.379 35.096C234.443 35.16 234.539 35.288 234.667 35.48C234.795 35.672 234.939 35.896 235.099 36.152C235.227 35.928 235.339 35.736 235.435 35.576C235.563 35.384 235.659 35.256 235.723 35.192C236.459 34.104 237.163 33.08 237.835 32.12C238.507 31.16 239.227 30.168 239.995 29.144L240.091 28.952C240.347 28.664 240.571 28.376 240.763 28.088C240.987 27.768 241.227 27.448 241.483 27.128C241.899 26.552 242.459 26.056 243.163 25.64C243.675 25.288 244.203 25.064 244.747 24.968C245.355 24.904 245.883 25.032 246.331 25.352C246.523 25.48 246.699 25.592 246.859 25.688C247.051 25.784 247.211 25.896 247.339 26.024C247.595 26.312 247.803 26.664 247.963 27.08ZM285.11 28.04C286.326 29.16 287.222 30.504 287.798 32.072C288.374 33.608 288.598 35.144 288.47 36.68C288.342 38.152 287.878 39.512 287.078 40.76C286.278 41.976 285.062 42.904 283.43 43.544C282.15 44.088 280.886 44.472 279.638 44.696C278.39 44.92 277.014 45.096 275.51 45.224C274.838 45.288 274.262 45.336 273.782 45.368C273.334 45.368 272.806 45.384 272.198 45.416C272.07 45.416 271.846 45.416 271.526 45.416C271.238 45.416 271.03 45.432 270.902 45.464V55.4C270.806 56.008 270.678 56.632 270.518 57.272C270.39 57.912 270.022 58.408 269.414 58.76C269.062 58.952 268.63 59.064 268.118 59.096C267.606 59.128 267.142 59.112 266.726 59.048C266.278 58.984 265.894 58.872 265.574 58.712C265.286 58.52 265.046 58.2 264.854 57.752C264.726 57.464 264.598 57.144 264.47 56.792C264.374 56.408 264.326 55.944 264.326 55.4V28.856C264.326 28.632 264.342 28.424 264.374 28.232C264.406 28.04 264.438 27.848 264.47 27.656C264.534 27.496 264.582 27.32 264.614 27.128C264.646 26.936 264.694 26.76 264.758 26.6C264.822 26.44 264.886 26.296 264.95 26.168C265.046 26.04 265.158 25.928 265.286 25.832C265.446 25.672 265.686 25.528 266.006 25.4C266.358 25.272 266.87 25.208 267.542 25.208H267.638C268.63 25.144 269.734 25.096 270.95 25.064C272.166 25 273.174 25.016 273.974 25.112C274.422 25.176 274.838 25.224 275.222 25.256C275.606 25.256 275.974 25.272 276.326 25.304C276.71 25.336 277.094 25.368 277.478 25.4C277.862 25.432 278.246 25.48 278.63 25.544C278.95 25.608 279.238 25.656 279.494 25.688C279.782 25.72 280.07 25.768 280.358 25.832C280.614 25.896 280.886 25.96 281.174 26.024C281.494 26.088 281.782 26.2 282.038 26.36C282.71 26.552 283.27 26.792 283.718 27.08C284.166 27.368 284.63 27.688 285.11 28.04ZM282.23 35.96C282.262 35.192 282.102 34.52 281.75 33.944C281.43 33.368 280.966 32.888 280.358 32.504C279.75 32.12 279.062 31.816 278.294 31.592C277.526 31.368 276.758 31.208 275.99 31.112C275.798 31.112 275.526 31.112 275.174 31.112C274.854 31.08 274.502 31.064 274.118 31.064C273.734 31.032 273.366 31.016 273.014 31.016C272.694 30.984 272.438 30.968 272.246 30.968C272.086 30.936 271.894 30.92 271.67 30.92C271.446 30.92 271.19 30.92 270.902 30.92C270.934 31.912 270.95 32.872 270.95 33.8C270.95 34.696 270.95 35.672 270.95 36.728C270.918 37.304 270.902 37.88 270.902 38.456C270.902 39.032 270.902 39.592 270.902 40.136L273.878 40.088C274.646 40.088 275.494 40.04 276.422 39.944C277.35 39.848 278.23 39.656 279.062 39.368C279.894 39.08 280.598 38.664 281.174 38.12C281.782 37.576 282.134 36.856 282.23 35.96ZM317.239 55.736C317.271 55.928 317.287 56.12 317.287 56.312C317.319 56.472 317.335 56.664 317.335 56.888C317.335 57.272 317.223 57.624 316.999 57.944C316.903 58.104 316.775 58.264 316.615 58.424C316.455 58.552 316.263 58.664 316.039 58.76C315.239 59.208 314.391 59.368 313.495 59.24C313.047 59.112 312.647 58.904 312.295 58.616C312.231 58.552 312.183 58.52 312.151 58.52C312.119 58.488 312.087 58.44 312.055 58.376C312.023 58.344 311.991 58.312 311.959 58.28C311.927 58.216 311.879 58.168 311.815 58.136C311.655 57.976 311.527 57.832 311.431 57.704C311.335 57.544 311.239 57.384 311.143 57.224C311.079 57.064 310.999 56.92 310.903 56.792C310.839 56.632 310.759 56.472 310.663 56.312C310.599 56.184 310.535 56.072 310.471 55.976C310.407 55.848 310.359 55.72 310.327 55.592C310.199 55.304 310.119 55.048 310.087 54.824L309.079 52.472C306.871 52.472 304.663 52.488 302.455 52.52C300.279 52.52 298.087 52.504 295.879 52.472L294.871 54.824C294.807 54.952 294.759 55.08 294.727 55.208C294.727 55.336 294.695 55.464 294.631 55.592C294.567 55.72 294.503 55.848 294.439 55.976C294.407 56.072 294.359 56.184 294.295 56.312C294.199 56.472 294.103 56.632 294.007 56.792C293.943 56.92 293.863 57.064 293.767 57.224C293.703 57.384 293.623 57.544 293.527 57.704C293.431 57.832 293.303 57.976 293.143 58.136C293.079 58.168 293.031 58.216 292.999 58.28C292.967 58.312 292.935 58.344 292.903 58.376C292.871 58.44 292.839 58.488 292.807 58.52C292.775 58.52 292.727 58.552 292.663 58.616C292.311 58.904 291.911 59.112 291.463 59.24C290.567 59.368 289.719 59.208 288.919 58.76C288.695 58.664 288.503 58.552 288.343 58.424C288.183 58.264 288.055 58.104 287.959 57.944C287.735 57.624 287.623 57.272 287.623 56.888C287.623 56.664 287.623 56.472 287.623 56.312C287.655 56.12 287.687 55.928 287.719 55.736C287.783 55.448 287.863 55.16 287.959 54.872C288.055 54.584 288.103 54.44 288.103 54.44L298.087 29.864L298.375 29.096C298.439 28.904 298.519 28.728 298.615 28.568C298.711 28.408 298.791 28.216 298.855 27.992C299.015 27.576 299.191 27.208 299.383 26.888C299.479 26.696 299.591 26.52 299.719 26.36C299.847 26.2 299.975 26.04 300.103 25.88C300.295 25.624 300.567 25.416 300.919 25.256C301.367 25.096 301.879 25.016 302.455 25.016C303.063 25.016 303.591 25.096 304.039 25.256C304.391 25.416 304.663 25.624 304.855 25.88C305.079 26.168 305.319 26.504 305.575 26.888C305.767 27.208 305.943 27.576 306.103 27.992C306.167 28.216 306.247 28.408 306.343 28.568C306.439 28.728 306.519 28.904 306.583 29.096L306.871 29.864L316.855 54.44C316.855 54.44 316.903 54.584 316.999 54.872C317.095 55.16 317.175 55.448 317.239 55.736ZM305.863 43.976C305.447 43.048 305.015 42.088 304.567 41.096C304.151 40.104 303.703 39.096 303.223 38.072C303.095 37.784 302.967 37.496 302.839 37.208C302.711 36.888 302.583 36.584 302.455 36.296C302.359 36.584 302.247 36.888 302.119 37.208C301.991 37.496 301.863 37.784 301.735 38.072C301.255 39.096 300.791 40.104 300.343 41.096C299.927 42.088 299.511 43.048 299.095 43.976L298.231 46.088H306.727L305.863 43.976ZM351.614 26.936C351.742 27.544 351.742 28.184 351.614 28.856C351.55 29.176 351.486 29.496 351.422 29.816C351.39 30.104 351.342 30.408 351.278 30.728L351.23 30.92C350.782 32.904 350.27 35 349.694 37.208C349.15 39.384 348.654 41.448 348.206 43.4C347.822 45 347.422 46.76 347.006 48.68C346.59 50.6 346.158 52.36 345.71 53.96C345.55 54.504 345.374 55.048 345.182 55.592C345.022 56.136 344.814 56.68 344.558 57.224C344.334 57.704 344.062 58.136 343.742 58.52C343.454 58.872 343.118 59.128 342.734 59.288C342.35 59.48 341.934 59.544 341.486 59.48C341.07 59.448 340.606 59.256 340.094 58.904C339.326 58.36 338.75 57.608 338.366 56.648C338.014 55.688 337.646 54.808 337.262 54.008C337.134 53.784 336.942 53.288 336.686 52.52C336.43 51.752 336.158 50.92 335.87 50.024C335.582 49.096 335.294 48.216 335.006 47.384C334.75 46.52 334.526 45.88 334.334 45.464C334.046 46.168 333.758 46.968 333.47 47.864C333.182 48.76 332.91 49.64 332.654 50.504C332.398 51.368 332.158 52.152 331.934 52.856C331.742 53.528 331.598 54.024 331.502 54.344C331.246 54.984 330.958 55.688 330.638 56.456C330.35 57.224 329.982 57.88 329.534 58.424C329.118 58.968 328.606 59.32 327.998 59.48C327.39 59.672 326.67 59.496 325.838 58.952C325.198 58.568 324.75 58.024 324.494 57.32C324.334 56.872 324.174 56.44 324.014 56.024C323.854 55.608 323.726 55.176 323.63 54.728L322.67 51.128L320.702 43.4C320.446 42.408 320.19 41.4 319.934 40.376C319.71 39.32 319.438 38.232 319.118 37.112C318.958 36.568 318.814 36.04 318.686 35.528C318.59 34.984 318.478 34.408 318.35 33.8C318.254 33.16 318.126 32.44 317.966 31.64C317.838 30.84 317.678 29.912 317.486 28.856C317.422 28.504 317.374 28.184 317.342 27.896C317.342 27.576 317.374 27.256 317.438 26.936C317.502 26.456 317.726 26.04 318.11 25.688C318.27 25.528 318.462 25.4 318.686 25.304C318.91 25.208 319.15 25.128 319.406 25.064C319.79 24.936 320.19 24.872 320.606 24.872C320.99 24.872 321.39 25 321.806 25.256C322.094 25.416 322.318 25.624 322.478 25.88L323.054 26.888C323.118 27.112 323.182 27.32 323.246 27.512C323.31 27.672 323.374 27.848 323.438 28.04C323.502 28.264 323.55 28.472 323.582 28.664C323.614 28.824 323.646 28.984 323.678 29.144C323.966 30.808 324.318 32.424 324.734 33.992C325.15 35.56 325.534 37.064 325.886 38.504C326.014 39.08 326.174 39.8 326.366 40.664C326.558 41.496 326.75 42.376 326.942 43.304C327.134 44.2 327.326 45.064 327.518 45.896C327.71 46.728 327.902 47.384 328.094 47.864C328.51 46.424 328.926 44.984 329.342 43.544C329.79 42.104 330.27 40.648 330.782 39.176C331.038 38.408 331.294 37.72 331.55 37.112C331.838 36.472 332.158 35.944 332.51 35.528C332.862 35.112 333.262 34.84 333.71 34.712C334.158 34.584 334.686 34.632 335.294 34.856C335.838 35.08 336.318 35.56 336.734 36.296C337.15 37.032 337.518 37.784 337.838 38.552C338.126 39.256 338.398 40.008 338.654 40.808C338.942 41.576 339.214 42.344 339.47 43.112C339.758 43.848 340.03 44.552 340.286 45.224C340.542 45.896 340.798 46.472 341.054 46.952C341.15 46.6 341.262 46.152 341.39 45.608C341.518 45.064 341.646 44.488 341.774 43.88C341.934 43.24 342.078 42.616 342.206 42.008C342.334 41.4 342.462 40.84 342.59 40.328C343.006 38.6 343.438 36.872 343.886 35.144C344.334 33.384 344.766 31.656 345.182 29.96L345.422 29.144C345.486 28.984 345.518 28.824 345.518 28.664C345.55 28.472 345.598 28.264 345.662 28.04C345.726 27.848 345.79 27.672 345.854 27.512C345.918 27.32 345.982 27.112 346.046 26.888C346.11 26.728 346.174 26.568 346.238 26.408C346.334 26.216 346.446 26.04 346.574 25.88C346.67 25.72 346.782 25.592 346.91 25.496C347.038 25.4 347.166 25.32 347.294 25.256C347.742 25 348.126 24.872 348.446 24.872C348.862 24.872 349.262 24.936 349.646 25.064C350.158 25.16 350.622 25.368 351.038 25.688C351.358 26.008 351.55 26.424 351.614 26.936Z" fill="#BCFFBB"/>
<defs>
<clipPath id="clip0_78_3">
<rect width="95" height="74" fill="white"/>
</clipPath>
</defs>
</svg>
