<svg id="logo" data-name="Слой 5" xmlns="http://www.w3.org/2000/svg" viewBox="0 0 1224.66 191.73">
  <defs>
    <style>
      .cls-1 {
        font-size: 140px;
        fill: #bcffbb;
        font-family: Jua-Regular, Jua;
      }

      .cls-2 {
        fill: #ffa440;
      }

      .cls-3 {
        fill: #292929;
      }

      .cls-4 {
        fill: #fcb4e6;
      }

      .cls-5 {
        fill: #10c65a;
      }
    </style>
  </defs>
  <text class="cls-1" transform="translate(290.74 149.62)">LUCKY PAW</text>
  <g>
    <path class="cls-2" d="M97,376.27V321.08l-2.1.43a40.62,40.62,0,1,1-8.21-80.4,40.14,40.14,0,0,1,4.24.22l2.53.26-.65-2.46a40.62,40.62,0,0,1,72.68-33.53l1.45,2.08,1.44-2.08a40.62,40.62,0,0,1,72.67,33.58l-.66,2.49,2.56-.29a40.61,40.61,0,1,1-4,80l-2.12-.46v55.31Z" transform="translate(-44.34 -186.29)"/>
    <path class="cls-3" d="M201.84,189.79a38.91,38.91,0,0,1,38.86,38.87,39.31,39.31,0,0,1-1.32,10.07l-1.33,5,5.12-.58a39.5,39.5,0,0,1,4.46-.26,38.87,38.87,0,0,1,0,77.73,39.39,39.39,0,0,1-8.25-.88l-4.24-.92v55.72H98.78V318.93l-4.22.86a38.87,38.87,0,1,1-7.85-76.93,39.43,39.43,0,0,1,4.06.21l5.06.53-1.31-4.92a38.87,38.87,0,0,1,69.55-32.09l2.89,4.18,2.88-4.18a38.9,38.9,0,0,1,32-16.8m0-3.5A42.31,42.31,0,0,0,167,204.6a42.38,42.38,0,0,0-75.83,35,43,43,0,0,0-4.42-.23,42.37,42.37,0,1,0,8.56,83.88V378H238.64V323.14a43,43,0,0,0,9,.95,42.37,42.37,0,1,0,0-84.74,43.3,43.3,0,0,0-4.86.28,42.39,42.39,0,0,0-40.93-53.34Z" transform="translate(-44.34 -186.29)"/>
  </g>
  <g>
    <circle class="cls-4" cx="167.17" cy="304.84" r="39.76" transform="translate(-222.77 156.34) rotate(-67.5)"/>
    <path class="cls-3" d="M167.17,266.83a38,38,0,1,1-38,38,38.05,38.05,0,0,1,38-38m0-3.51a41.52,41.52,0,1,0,41.51,41.52,41.51,41.51,0,0,0-41.51-41.52Z" transform="translate(-44.34 -186.29)"/>
  </g>
  <g>
    <path class="cls-4" d="M86.71,306.93a25.64,25.64,0,1,1,25.64-25.63A25.66,25.66,0,0,1,86.71,306.93Z" transform="translate(-44.34 -186.29)"/>
    <path class="cls-3" d="M86.71,257.41A23.89,23.89,0,1,1,62.83,281.3a23.91,23.91,0,0,1,23.88-23.89m0-3.5A27.39,27.39,0,1,0,114.1,281.3a27.39,27.39,0,0,0-27.39-27.39Z" transform="translate(-44.34 -186.29)"/>
  </g>
  <g>
    <circle class="cls-4" cx="87.74" cy="42.37" r="25.64"/>
    <path class="cls-3" d="M132.08,204.77a23.89,23.89,0,1,1-23.89,23.89,23.91,23.91,0,0,1,23.89-23.89m0-3.51a27.4,27.4,0,1,0,27.39,27.4,27.39,27.39,0,0,0-27.39-27.4Z" transform="translate(-44.34 -186.29)"/>
  </g>
  <g>
    <circle class="cls-4" cx="201.84" cy="228.66" r="25.64" transform="translate(-111.41 186.27) rotate(-76.72)"/>
    <path class="cls-3" d="M201.84,204.77A23.89,23.89,0,1,1,178,228.66a23.91,23.91,0,0,1,23.89-23.89m0-3.51a27.4,27.4,0,1,0,27.39,27.4,27.39,27.39,0,0,0-27.39-27.4Z" transform="translate(-44.34 -186.29)"/>
  </g>
  <g>
    <path class="cls-4" d="M247.2,307.36a25.64,25.64,0,1,1,25.64-25.64A25.66,25.66,0,0,1,247.2,307.36Z" transform="translate(-44.34 -186.29)"/>
    <path class="cls-3" d="M247.2,257.84a23.89,23.89,0,1,1-23.88,23.88,23.92,23.92,0,0,1,23.88-23.88m0-3.51a27.4,27.4,0,1,0,27.39,27.39,27.39,27.39,0,0,0-27.39-27.39Z" transform="translate(-44.34 -186.29)"/>
  </g>
  <g>
    <path class="cls-5" d="M154.89,287.77l-.1-.08a6.53,6.53,0,0,1-2.63-5.16c0-3.72,3.33-6.76,7.43-6.76a7.65,7.65,0,0,1,5.94,2.71l1.35,1.64,1.35-1.64a7.65,7.65,0,0,1,5.94-2.71c4.1,0,7.43,3,7.43,6.76a6.52,6.52,0,0,1-2.39,5l-.08.06L167,300.4Z" transform="translate(-44.34 -186.29)"/>
    <path class="cls-3" d="M174.17,277.53c3.13,0,5.67,2.24,5.67,5a4.71,4.71,0,0,1-1.76,3.63l-.15.12-.14.15L167,297.86l-10.74-11.21-.18-.19-.21-.16a4.77,4.77,0,0,1-2-3.77c0-2.76,2.55-5,5.68-5a5.85,5.85,0,0,1,4.58,2.07l2.71,3.28,2.7-3.28a5.89,5.89,0,0,1,4.59-2.07m0-3.51a9.41,9.41,0,0,0-7.29,3.35,9.41,9.41,0,0,0-7.29-3.35c-5.07,0-9.18,3.81-9.18,8.51a8.27,8.27,0,0,0,3.31,6.55L167,302.94l13.34-14.1a8.24,8.24,0,0,0,3-6.31c0-4.7-4.11-8.51-9.18-8.51Z" transform="translate(-44.34 -186.29)"/>
  </g>
  <g>
    <path class="cls-5" d="M188.37,319.7a6,6,0,0,1-4.69-2.36l-.07-.08L171.26,305.1,183.41,293l.08-.1a6.07,6.07,0,0,1,4.88-2.6c3.54,0,6.42,3.33,6.42,7.42a7.77,7.77,0,0,1-2.6,6L190.64,305l1.55,1.33a7.79,7.79,0,0,1,2.6,6C194.79,316.37,191.91,319.7,188.37,319.7Z" transform="translate(-44.34 -186.29)"/>
    <path class="cls-3" d="M188.37,292c2.58,0,4.67,2.54,4.67,5.67a6.11,6.11,0,0,1-2,4.63L188,305l3.1,2.66a6.15,6.15,0,0,1,2,4.64c0,3.12-2.09,5.67-4.67,5.67a4.28,4.28,0,0,1-3.33-1.71l-.13-.16-.14-.13-11-10.86,10.81-10.78.18-.19.16-.21a4.38,4.38,0,0,1,3.47-1.89m0-3.51a7.85,7.85,0,0,0-6.29,3.31l-13.32,13.29,13.55,13.33a7.81,7.81,0,0,0,6.06,3c4.52,0,8.18-4.11,8.18-9.18a9.58,9.58,0,0,0-3.22-7.3,9.56,9.56,0,0,0,3.22-7.29c0-5.07-3.66-9.18-8.18-9.18Z" transform="translate(-44.34 -186.29)"/>
  </g>
  <g>
    <path class="cls-5" d="M174.42,333.47a7.84,7.84,0,0,1-6-2.6l-1.33-1.55-1.33,1.55a7.8,7.8,0,0,1-6,2.6c-4.09,0-7.42-2.88-7.42-6.43a6,6,0,0,1,2.36-4.69l.07-.06L167,309.93l12.12,12.15.11.08a6.13,6.13,0,0,1,2.6,4.88C181.84,330.59,178.51,333.47,174.42,333.47Z" transform="translate(-44.34 -186.29)"/>
    <path class="cls-3" d="M167,312.42l10.78,10.81.19.19.21.15a4.38,4.38,0,0,1,1.89,3.47c0,2.58-2.54,4.67-5.67,4.67a6.11,6.11,0,0,1-4.63-2l-2.67-3.1-2.66,3.1a6.11,6.11,0,0,1-4.63,2c-3.13,0-5.67-2.09-5.67-4.67a4.31,4.31,0,0,1,1.71-3.33l.15-.12.14-.14,10.86-11m0-5L153.66,321a7.77,7.77,0,0,0-3,6.05c0,4.52,4.11,8.18,9.18,8.18a9.57,9.57,0,0,0,7.29-3.21,9.6,9.6,0,0,0,7.3,3.21c5.07,0,9.18-3.66,9.18-8.18a7.84,7.84,0,0,0-3.32-6.29L167,307.44Z" transform="translate(-44.34 -186.29)"/>
  </g>
  <g>
    <path class="cls-5" d="M145.06,320c-3.54,0-6.42-3.33-6.42-7.42a7.8,7.8,0,0,1,2.6-6l1.55-1.33-1.55-1.33a7.84,7.84,0,0,1-2.6-6c0-4.09,2.88-7.42,6.42-7.42a6,6,0,0,1,4.7,2.36l.06.07,12.36,12.17L150,317.24l-.07.11A6.13,6.13,0,0,1,145.06,320Z" transform="translate(-44.34 -186.29)"/>
    <path class="cls-3" d="M145.06,292.27a4.28,4.28,0,0,1,3.33,1.71l.13.15.14.14,11,10.86-10.81,10.78-.19.19-.15.21a4.4,4.4,0,0,1-3.48,1.89c-2.57,0-4.67-2.54-4.67-5.67a6.12,6.12,0,0,1,2-4.63l3.09-2.66-3.09-2.67a6.12,6.12,0,0,1-2-4.63c0-3.13,2.1-5.67,4.67-5.67m0-3.51c-4.51,0-8.17,4.11-8.17,9.18a9.6,9.6,0,0,0,3.21,7.3,9.57,9.57,0,0,0-3.21,7.29c0,5.07,3.66,9.18,8.17,9.18a7.84,7.84,0,0,0,6.29-3.32l13.32-13.28-13.55-13.34a7.77,7.77,0,0,0-6.06-3Z" transform="translate(-44.34 -186.29)"/>
  </g>
</svg>
