<svg id="Слой_1" data-name="Слой 1" xmlns="http://www.w3.org/2000/svg" viewBox="0 0 574 448">
  <defs>
    <style>
      .cls-1 {
        fill: #ffa440;
      }

      .cls-2 {
        fill: #fcb4e6;
      }

      .cls-3 {
        fill: #10c65a;
      }
    </style>
  </defs>
  <g>
    <path class="cls-1" d="M348,652V523.3l-3.6.74A96,96,0,1,1,335,334.52l4.33.45-1.12-4.21A96,96,0,0,1,510,251.5l2.47,3.57L515,251.5a96,96,0,0,1,171.77,79.38l-1.14,4.25,4.38-.5a97.33,97.33,0,0,1,11-.63,96,96,0,1,1-20.37,189.83L677,523V652Z" transform="translate(-226 -207)"/>
    <path d="M594,213a93.06,93.06,0,0,1,89.84,117.1l-2.28,8.51,8.76-1A96.14,96.14,0,0,1,701,337a93,93,0,1,1-19.73,183.9L674,519.33V649H351V519.62l-7.21,1.48A93,93,0,1,1,325,337a95.53,95.53,0,0,1,9.71.5l8.66.9L341.13,330A93,93,0,0,1,507.56,253.2l4.94,7.15,4.94-7.15A93.08,93.08,0,0,1,594,213m0-6a98.88,98.88,0,0,0-81.5,42.79,99,99,0,0,0-177.17,81.75A97.85,97.85,0,0,0,325,331a99,99,0,1,0,20,196V655H680V526.76A99,99,0,1,0,701,331a101.48,101.48,0,0,0-11.36.65A99.07,99.07,0,0,0,594,207Z" transform="translate(-226 -207)"/>
  </g>
  <g>
    <circle class="cls-2" cx="287" cy="277" r="94"/>
    <path d="M513,393a91,91,0,1,1-91,91,91.1,91.1,0,0,1,91-91m0-6a97,97,0,1,0,97,97,97,97,0,0,0-97-97Z" transform="translate(-226 -207)"/>
  </g>
  <g>
    <circle class="cls-2" cx="99" cy="222" r="61"/>
    <path d="M325,371a58,58,0,1,1-58,58,58.07,58.07,0,0,1,58-58m0-6a64,64,0,1,0,64,64,64,64,0,0,0-64-64Z" transform="translate(-226 -207)"/>
  </g>
  <g>
    <circle class="cls-2" cx="205" cy="99" r="61"/>
    <path d="M431,248a58,58,0,1,1-58,58,58.07,58.07,0,0,1,58-58m0-6a64,64,0,1,0,64,64,64,64,0,0,0-64-64Z" transform="translate(-226 -207)"/>
  </g>
  <g>
    <circle class="cls-2" cx="368" cy="99" r="61"/>
    <path d="M594,248a58,58,0,1,1-58,58,58.07,58.07,0,0,1,58-58m0-6a64,64,0,1,0,64,64,64,64,0,0,0-64-64Z" transform="translate(-226 -207)"/>
  </g>
  <g>
    <circle class="cls-2" cx="474" cy="223" r="61"/>
    <path d="M700,372a58,58,0,1,1-58,58,58.07,58.07,0,0,1,58-58m0-6a64,64,0,1,0,64,64,64,64,0,0,0-64-64Z" transform="translate(-226 -207)"/>
  </g>
  <g>
    <path class="cls-3" d="M483.58,445l-.18-.14a16.34,16.34,0,0,1-6.57-12.92c0-9.31,8.28-16.89,18.45-16.89A18.9,18.9,0,0,1,510,421.73l2.32,2.8,2.31-2.8A18.94,18.94,0,0,1,529.36,415c10.17,0,18.45,7.58,18.45,16.89a16.35,16.35,0,0,1-6,12.44l-.13.11L512.6,475.22Z" transform="translate(-226 -207)"/>
    <path d="M529.36,418c8.52,0,15.45,6.23,15.45,13.89a13.15,13.15,0,0,1-4.9,10.14l-.26.22-.24.25-26.83,28.37L485.9,443l-.31-.33-.35-.27a13.35,13.35,0,0,1-5.41-10.55c0-7.66,6.93-13.89,15.45-13.89a15.93,15.93,0,0,1,12.41,5.64l4.63,5.61,4.63-5.61A15.92,15.92,0,0,1,529.36,418m0-6a22,22,0,0,0-17,7.82,22,22,0,0,0-17-7.82c-11.85,0-21.45,8.91-21.45,19.89a19.32,19.32,0,0,0,7.74,15.3l31,32.38,31.16-32.95a19.24,19.24,0,0,0,7-14.73c0-11-9.61-19.89-21.45-19.89Z" transform="translate(-226 -207)"/>
  </g>
  <g>
    <path class="cls-3" d="M562.53,519.83a15.3,15.3,0,0,1-11.82-5.92l-.1-.13L521,484.63l29.13-29.06.13-.18a15.34,15.34,0,0,1,12.28-6.53c8.89,0,16.11,8.27,16.11,18.45a19.3,19.3,0,0,1-6.46,14.76l-2.65,2.28,2.65,2.27a19.31,19.31,0,0,1,6.46,14.77C578.64,511.56,571.42,519.83,562.53,519.83Z" transform="translate(-226 -207)"/>
    <path d="M562.53,451.86c7.23,0,13.11,6.93,13.11,15.45a16.5,16.5,0,0,1-5.42,12.48l-5.3,4.56,5.3,4.55a16.51,16.51,0,0,1,5.42,12.49c0,8.51-5.88,15.44-13.11,15.44a12.15,12.15,0,0,1-9.48-4.8l-.22-.27-.24-.24-27.34-26.91,26.83-26.76.31-.32.27-.36a12.36,12.36,0,0,1,9.87-5.31m0-6a18.31,18.31,0,0,0-14.69,7.74l-31.11,31,31.65,31.16a18.21,18.21,0,0,0,14.15,7c10.56,0,19.11-9.6,19.11-21.44a22.38,22.38,0,0,0-7.51-17,22.39,22.39,0,0,0,7.51-17c0-11.85-8.55-21.45-19.11-21.45Z" transform="translate(-226 -207)"/>
  </g>
  <g>
    <path class="cls-3" d="M529.93,552a19.33,19.33,0,0,1-14.76-6.46l-2.28-2.65-2.27,2.65A19.34,19.34,0,0,1,495.85,552c-10.17,0-18.44-7.23-18.44-16.11a15.28,15.28,0,0,1,5.92-11.82l.13-.11,29.15-29.62,29.06,29.13.18.13a15.37,15.37,0,0,1,6.53,12.29C548.38,544.77,540.11,552,529.93,552Z" transform="translate(-226 -207)"/>
    <path d="M512.63,498.61l26.76,26.82.32.32.36.26a12.39,12.39,0,0,1,5.31,9.88c0,7.23-6.93,13.11-15.45,13.11a16.54,16.54,0,0,1-12.48-5.42l-4.56-5.3-4.55,5.3A16.54,16.54,0,0,1,495.85,549c-8.51,0-15.44-5.88-15.44-13.11a12.16,12.16,0,0,1,4.8-9.49l.27-.21.24-.24,26.91-27.34m0-8.53-31.16,31.66a18.2,18.2,0,0,0-7,14.15c0,10.55,9.6,19.11,21.44,19.11a22.41,22.41,0,0,0,17-7.51,22.43,22.43,0,0,0,17,7.51c11.85,0,21.45-8.56,21.45-19.11a18.34,18.34,0,0,0-7.74-14.7l-31-31.11Z" transform="translate(-226 -207)"/>
  </g>
  <g>
    <path class="cls-3" d="M461.35,520.42c-8.88,0-16.11-8.27-16.11-18.45a19.33,19.33,0,0,1,6.46-14.76l2.65-2.28-2.65-2.27a19.34,19.34,0,0,1-6.46-14.77c0-10.17,7.23-18.44,16.11-18.44a15.28,15.28,0,0,1,11.82,5.92l.11.13,29.62,29.15-29.13,29.06-.13.18A15.37,15.37,0,0,1,461.35,520.42Z" transform="translate(-226 -207)"/>
    <path d="M461.35,452.45a12.16,12.16,0,0,1,9.49,4.8l.21.27.24.24,27.34,26.91-26.82,26.76-.32.32-.26.36a12.42,12.42,0,0,1-9.88,5.31c-7.23,0-13.11-6.93-13.11-15.45a16.54,16.54,0,0,1,5.42-12.48l5.3-4.56-5.3-4.55a17.21,17.21,0,0,1-1.34-23.66,12,12,0,0,1,9-4.27h0m0-6c-10.55,0-19.11,9.6-19.11,21.44a22.41,22.41,0,0,0,7.51,17,22.43,22.43,0,0,0-7.51,17c0,11.85,8.56,21.45,19.11,21.45a18.34,18.34,0,0,0,14.7-7.74l31.11-31L475.5,453.48a18.2,18.2,0,0,0-14.15-7Z" transform="translate(-226 -207)"/>
  </g>
</svg>
