<svg id="Слой_6" data-name="Слой 6" xmlns="http://www.w3.org/2000/svg" viewBox="0 0 677 690.73">
  <defs>
    <style>
      .cls-1 {
        fill: #fff;
      }
    </style>
  </defs>
  <g id="ветаптека">
    <path class="cls-1" d="M807.7,787H265.3A67.38,67.38,0,0,1,198,719.7V397.3A67.38,67.38,0,0,1,265.3,330H807.7A67.38,67.38,0,0,1,875,397.3V719.7A67.38,67.38,0,0,1,807.7,787ZM265.3,350A47.36,47.36,0,0,0,218,397.3V719.7A47.36,47.36,0,0,0,265.3,767H807.7A47.36,47.36,0,0,0,855,719.7V397.3A47.36,47.36,0,0,0,807.7,350Z" transform="translate(-198 -96.27)"/>
    <g>
      <g>
        <path class="cls-1" d="M576,505a123.13,123.13,0,0,1,.27,12.46l0,0a42.52,42.52,0,0,1,8.24-4,8.35,8.35,0,0,1,7.38-5,7,7,0,0,1,4.09,1.13V444a10,10,0,0,0-10-10H488a10,10,0,0,0-10,10v71.67a47.81,47.81,0,0,1,9.36,3.35,59.17,59.17,0,0,1,7.41-.1,7.34,7.34,0,0,0,1.26-1c2-2.06,1.77-5.9,1.87-8.56,0-1.19.07-2.38.1-3.56V454H576Z" transform="translate(-198 -96.27)"/>
        <path class="cls-1" d="M590.53,596.52a87.89,87.89,0,0,1-10.77.54c-2,1.24-3.34,1.38-3.72,3.19,0,.11,0,.22-.07.33v2.66c0,1.41,0,2.81,0,4.22V662H498V603a47.49,47.49,0,0,0-3.22-5.08c.06.07-.6-.69-1.1-1.24-5.09,2.5-10.17,4.6-15.68,5.16V672a10,10,0,0,0,10,10H586a10,10,0,0,0,10-10V596.52Z" transform="translate(-198 -96.27)"/>
      </g>
      <g>
        <path class="cls-1" d="M498.18,603.25a48.15,48.15,0,0,0-3.37-5.35L494,597H433V519h54.14a59.25,59.25,0,0,1,7.65-.11,7.05,7.05,0,0,0,1.27-1c2-2.06,1.77-5.9,1.87-8.56.13-3.45.11-6.89.41-10.32H423a10,10,0,0,0-10,10V607a10,10,0,0,0,10,10h75.38A136.62,136.62,0,0,1,498.18,603.25Z" transform="translate(-198 -96.27)"/>
        <path class="cls-1" d="M651,499H575.24a99.17,99.17,0,0,1,1,18.43c.68.51,1.36,1,2,1.57H641V597H584.75c-1.66.09-3.33.12-5,.1-2,1.23-3.33,1.38-3.71,3.18l-.09.46c.06,5.43.08,10.85-.35,16.26H651a10,10,0,0,0,10-10V509A10,10,0,0,0,651,499Z" transform="translate(-198 -96.27)"/>
      </g>
    </g>
    <path class="cls-1" d="M376.05,337.87l-36.54-43.7a41.59,41.59,0,0,1,31.83-68.26c1.25,0,2.51.05,3.77.17a41.27,41.27,0,0,1,28.2,14.74l64.61,77.26a41.55,41.55,0,0,1,8.74,17.81q10.2.24,20.36.37a61.19,61.19,0,0,0-13.76-31L418.66,228a61.59,61.59,0,1,0-94.49,79L353,341.5C360.65,340,368.33,338.78,376.05,337.87Z" transform="translate(-198 -96.27)"/>
    <path class="cls-1" d="M386.42,334.16l62.29-52.09a10,10,0,0,0-12.83-15.34l-76.64,64.08a10,10,0,0,0-2.59,3.35Z" transform="translate(-198 -96.27)"/>
    <path class="cls-1" d="M802.59,227.18l-104.17-42a10,10,0,0,0-13,5.53l-61.81,153.2c6.2-1.34,12.45-2.49,18.68-3.61l4.68-.83,53.26-132L785.84,242l-37,91.73a70,70,0,0,1,19.29,5.65l40-99.17A10,10,0,0,0,802.59,227.18Z" transform="translate(-198 -96.27)"/>
    <path class="cls-1" d="M723.71,289.87a10,10,0,0,1-3.73-.72l-45.57-18.39a10,10,0,0,1,7.48-18.55l45.57,18.39a10,10,0,0,1-3.75,19.27Z" transform="translate(-198 -96.27)"/>
    <path class="cls-1" d="M699.26,350.48a10,10,0,0,1-3.73-.73l-54.63-22a10,10,0,0,1,7.48-18.55l54.63,22a10,10,0,0,1-3.75,19.28Z" transform="translate(-198 -96.27)"/>
    <path class="cls-1" d="M746.76,225.44a10.11,10.11,0,0,1-3.74-.73,10,10,0,0,1-5.53-13l44-109.16A10,10,0,0,1,800.08,110L756,219.18A10,10,0,0,1,746.76,225.44Z" transform="translate(-198 -96.27)"/>
  </g>
</svg>
