<svg id="Слой_6" data-name="Слой 6" xmlns="http://www.w3.org/2000/svg" viewBox="0 0 523 683">
  <defs>
    <style>
      .cls-1 {
        fill: #fff;
      }
    </style>
  </defs>
  <g id="грызуны">
    <path class="cls-1" d="M520,204c-115.79,0-210,94.21-210,210a209.46,209.46,0,0,0,69.17,155.62c-.09-4.54.11-9.07.35-13.6a32.33,32.33,0,0,1-8.93-24.83A189,189,0,0,1,330,414c0-104.77,85.23-190,190-190s190,85.23,190,190a189.22,189.22,0,0,1-48.2,126.31,53.56,53.56,0,0,1-8.08,18.81c-.76,1.71-1.54,3.41-2.35,5.08,2.49,2.4,5,4.82,7.46,7.19A209.49,209.49,0,0,0,730,414C730,298.21,635.79,204,520,204Z" transform="translate(-252.5 -153.5)"/>
    <path class="cls-1" d="M333.64,333a81,81,0,1,1,98.26-98.92,70.29,70.29,0,0,1,18.42-8.39A101,101,0,1,0,327.17,352,62.65,62.65,0,0,1,333.64,333Z" transform="translate(-252.5 -153.5)"/>
    <path class="cls-1" d="M674.5,153.5a101.17,101.17,0,0,0-96.37,70.76c.66-.06,1.33-.12,2-.16,6-.37,12.83-.28,18.37,2.42A81,81,0,1,1,705.41,329.36a39.71,39.71,0,0,1,7,18.75A101,101,0,0,0,674.5,153.5Z" transform="translate(-252.5 -153.5)"/>
    <g>
      <path class="cls-1" d="M490,769.77a8.15,8.15,0,0,1,3.25-10.08,43.65,43.65,0,0,1,10.13-4.75L361.57,517.83a47.12,47.12,0,0,1-4.46-3.07c-8.22-6.4-13.95-15-18.21-24.3a10,10,0,0,0-8,15.1l158.5,265A7.65,7.65,0,0,1,490,769.77Z" transform="translate(-252.5 -153.5)"/>
      <path class="cls-1" d="M709.18,494.54a10,10,0,0,0-5.95-4.65l-.09.13c-4.55,5.61-8.78,11.57-13.21,17.28-4.77,11.35-11.23,21.56-20.36,30-.4.37-.82.73-1.23,1.09a41.36,41.36,0,0,1-9.84,17.87,7.37,7.37,0,0,1-4.73,2.42L536,757.29a38.92,38.92,0,0,1,15.25,13.5L709.1,504.6A10,10,0,0,0,709.18,494.54Z" transform="translate(-252.5 -153.5)"/>
    </g>
    <path class="cls-1" d="M471.53,464.9c-13.94,0-24.87-14.91-24.87-33.95S457.59,397,471.53,397s24.88,14.91,24.88,33.95S485.48,464.9,471.53,464.9Zm0-53.11c-4.76,0-10.08,8.19-10.08,19.16s5.32,19.16,10.08,19.16,10.09-8.19,10.09-19.16S476.29,411.79,471.53,411.79Z" transform="translate(-252.5 -153.5)"/>
    <path class="cls-1" d="M567.67,464.9C553.72,464.9,542.8,450,542.8,431S553.72,397,567.67,397s24.87,14.91,24.87,33.95S581.62,464.9,567.67,464.9Zm0-53.11c-4.76,0-10.08,8.19-10.08,19.16s5.32,19.16,10.08,19.16,10.08-8.19,10.08-19.16S572.43,411.79,567.67,411.79Z" transform="translate(-252.5 -153.5)"/>
    <path class="cls-1" d="M520,836.5A44.5,44.5,0,1,1,564.5,792,44.55,44.55,0,0,1,520,836.5Zm0-69A24.5,24.5,0,1,0,544.5,792,24.53,24.53,0,0,0,520,767.5Z" transform="translate(-252.5 -153.5)"/>
    <path class="cls-1" d="M468.88,661.21a6,6,0,0,1-1.25-.13L337.55,634.21c-4.24-.87-7.13-6-6.45-11.46s4.68-9.16,8.93-8.28l130.08,26.86c4.25.88,7.13,6,6.45,11.47C476,657.71,472.64,661.21,468.88,661.21Z" transform="translate(-252.5 -153.5)"/>
    <path class="cls-1" d="M339.11,717.21a6,6,0,0,0,1.25-.13l130.08-26.87c4.24-.87,7.13-6,6.45-11.46s-4.68-9.16-8.93-8.28L337.88,697.33c-4.24.88-7.13,6-6.45,11.47C332.05,713.71,335.35,717.21,339.11,717.21Z" transform="translate(-252.5 -153.5)"/>
    <path class="cls-1" d="M565.27,661.21a5.9,5.9,0,0,0,1.25-.13L696.6,634.21c4.25-.87,7.14-6,6.46-11.46s-4.69-9.16-8.93-8.28L564.05,641.33c-4.25.88-7.14,6-6.46,11.47C558.21,657.71,561.52,661.21,565.27,661.21Z" transform="translate(-252.5 -153.5)"/>
    <path class="cls-1" d="M695.05,717.21a5.9,5.9,0,0,1-1.25-.13L563.72,690.21c-4.25-.87-7.14-6-6.46-11.46s4.69-9.16,8.93-8.28l130.08,26.86c4.25.88,7.14,6,6.46,11.47C702.11,713.71,698.8,717.21,695.05,717.21Z" transform="translate(-252.5 -153.5)"/>
  </g>
</svg>
