<svg width="24" height="16" viewBox="0 0 24 16" fill="none" xmlns="http://www.w3.org/2000/svg">
<path d="M12.0007 10.8748L3.53741 0.718102C3.19689 0.312704 2.7096 0.0587615 2.18225 0.0118903C1.65489 -0.0349828 1.13045 0.129034 0.723769 0.468021C0.317088 0.807008 0.0613124 1.29334 0.0124517 1.82051C-0.0364091 2.34769 0.125628 2.87275 0.463078 3.2807L10.4635 15.2812C10.6515 15.5062 10.8866 15.6872 11.1523 15.8114C11.4179 15.9356 11.7075 16 12.0007 16C12.2939 16 12.5836 15.9356 12.8492 15.8114C13.1148 15.6872 13.3499 15.5062 13.5379 15.2812L23.5383 3.2807C23.8774 2.87293 24.0408 2.34724 23.9925 1.81911C23.9442 1.29098 23.6883 0.803612 23.2809 0.464055C22.8736 0.124499 22.3481 -0.0394736 21.8199 0.00816059C21.2917 0.0557947 20.804 0.31114 20.464 0.718102L12.0007 10.8748Z" fill="white"/>
</svg>
