<svg width="45" height="45" viewBox="0 0 45 45" fill="none" xmlns="http://www.w3.org/2000/svg">
<path d="M22.5 0C18.0499 0 13.6998 1.3196 9.99968 3.79193C6.29957 6.26426 3.41569 9.77828 1.71272 13.8896C0.00974911 18.001 -0.435826 22.525 0.432341 26.8895C1.30051 31.2541 3.44343 35.2632 6.59011 38.4099C9.73679 41.5566 13.7459 43.6995 18.1105 44.5677C22.475 45.4358 26.999 44.9903 31.1104 43.2873C35.2217 41.5843 38.7357 38.7004 41.2081 35.0003C43.6804 31.3002 45 26.9501 45 22.5C45 16.5326 42.6295 10.8097 38.4099 6.5901C34.1903 2.37053 28.4674 0 22.5 0ZM13.86 36.54C14.4095 34.6766 15.5472 33.0409 17.1032 31.8776C18.6591 30.7142 20.5497 30.0856 22.4925 30.0856C24.4353 30.0856 26.3259 30.7142 27.8818 31.8776C29.4378 33.0409 30.5755 34.6766 31.125 36.54C28.5338 38.1509 25.5436 39.0047 22.4925 39.0047C19.4414 39.0047 16.4512 38.1509 13.86 36.54ZM22.5 22.875C21.8325 22.875 21.18 22.6771 20.625 22.3062C20.0699 21.9354 19.6374 21.4083 19.3819 20.7916C19.1265 20.1749 19.0596 19.4963 19.1899 18.8416C19.3201 18.1869 19.6415 17.5855 20.1135 17.1135C20.5855 16.6415 21.1869 16.3201 21.8416 16.1898C22.4963 16.0596 23.1749 16.1265 23.7916 16.3819C24.4083 16.6374 24.9354 17.0699 25.3062 17.6249C25.6771 18.18 25.875 18.8325 25.875 19.5C25.875 20.3951 25.5194 21.2535 24.8865 21.8865C24.2536 22.5194 23.3951 22.875 22.5 22.875ZM35.85 32.16C34.391 29.2755 32.0392 26.9395 29.145 25.5C30.3244 24.2121 31.1036 22.6088 31.3877 20.8857C31.6717 19.1626 31.4483 17.3941 30.7447 15.7958C30.0411 14.1975 28.8877 12.8383 27.4251 11.8841C25.9625 10.9299 24.2539 10.4219 22.5075 10.4219C20.7612 10.4219 19.0525 10.9299 17.5899 11.8841C16.1273 12.8383 14.9739 14.1975 14.2703 15.7958C13.5667 17.3941 13.3433 19.1626 13.6274 20.8857C13.9114 22.6088 14.6906 24.2121 15.87 25.5C12.9702 26.9369 10.6129 29.2732 9.15001 32.16C7.35927 29.6986 6.2843 26.7898 6.044 23.7555C5.80371 20.7211 6.40746 17.6794 7.78848 14.9668C9.16949 12.2543 11.2739 9.97658 13.869 8.38574C16.4641 6.7949 19.4486 5.9529 22.4925 5.9529C25.5364 5.9529 28.5209 6.7949 31.116 8.38574C33.7111 9.97658 35.8155 12.2543 37.1965 14.9668C38.5775 17.6794 39.1813 20.7211 38.941 23.7555C38.7007 26.7898 37.6257 29.6986 35.835 32.16H35.85Z" fill="#BCFFBB"/>
</svg>
